<?xml version="1.0" encoding="utf-8"?>
<!-- Generator: Adobe Illustrator 21.0.2, SVG Export Plug-In . SVG Version: 6.00 Build 0)  -->
<svg version="1.1" id="Layer_1" xmlns="http://www.w3.org/2000/svg" xmlns:xlink="http://www.w3.org/1999/xlink" x="0px" y="0px"
	 viewBox="0 0 801.4 350.6" style="enable-background:new 0 0 801.4 350.6;" xml:space="preserve">
<style type="text/css">
	.st0{fill:#006C38;}
	.st1{fill:#BB9344;}
	.st2{fill:#231F20;}
	.st3{fill:#BB8D2D;}
	.st4{fill:#0C6A37;}
	.st5{fill:#981C1F;}
	.st6{fill:#056A37;}
</style>
<title>شعار الديوان عالي الدقة</title>
<g>
	<g>
		<path class="st0" d="M314.3,241.1c0.4,1.5,0.6,3,0.7,4.5c0.6,2.3,1.4,4.5,2.2,6.7c2.3,4.9,5.3,10,6.2,15.4
			c-4.7,5-11.7,8.6-17.8,11.8c-3.1,1.3-6.3,2.7-9.2,4.2c-7.6,3-15.3,5.5-23,8.1c-1.6,0.4-3.9,0.6-5.2,1.6c-4.5,1-9.8,2.1-14.1,3.6
			c-2.6,0.4-2.6,0.4-11.4,2.4c-1,0-2,0.2-2.9,0.5c-10.1,1.6-20.2,2.7-30.4,3.5c-5.6,0.3-11.2,0.6-16.7,0.9c-2.4-0.3-4.9-0.4-7.4-0.4
			c-7.2-0.6-14.3-1.3-21.4-1.9c-12.4-1.5-24.6-4-36.8-6.4c-5.8-1.5-11.7-3-17.5-4.5c-3.6-1.2-7.1-2.2-10.6-3.3
			c-8.5-3.1-16-7.4-23.8-12c-0.9,0-1.6,0-1.6,1.1c5,3.8,9.9,8,14.8,11.9c7.7,6.8,18,10.3,27.7,13.4c2.2,0.5,7.8,2.2,14.3,3.9
			c9.9,2.1,20.1,4.7,30.3,5.5c9.1,1.6,18.2,2.4,27.4,3.2c0.2,0.1,0.3,0.2,0.5,0.3c0.3-0.1,0.5-0.1,0.8-0.2h13.7c1,0,2-0.2,3-0.5
			c4.2-0.2,5.9,0,6.1-0.2c11.6-1,12.2-1.2,12.8-1.1c0.3-0.2,4.9-0.7,5.4-0.9c13.6-1.1,26.8-6,40-9.3c5.1-1.8,5.1-1.8,5.8-1.9
			c13.4-4.6,26.6-10.1,38.3-18c2.1-1.9,4.2-3.9,6-6c3.1-5.8,6.7-11.8,7.6-18.4c-0.6-6.1-4.2-10.8-6-16.5c0-0.3,0-0.5,0-0.8
			c1.4,0.3,2.9,0.4,4.3,0.4c0.2-0.4,0.3-0.9,0.3-1.3c-2.9-3.5-5.7-7.3-8.5-10.8c-0.5-0.5-1.1-0.8-1.8-0.8c-1.4,2.7-4.2,6.8-4.2,9.7
			C312.9,239.4,313.5,240.2,314.3,241.1"/>
		<path class="st0" d="M358.9,249c4.3-3.7,10.1,1.2,13.1,3.9l-5,0.2c-2.6-0.4-6.4-0.4-8.2-2.6C358.8,250,358.8,249.5,358.9,249
			 M357,262.4c2.3,0.4,4.5,1,6.9,1.2c4.2,0,4.2,0,6.8-0.2c4.3-0.8,5.5-1.2,6.2-1.2c0.9,2.7,1.8,5,0.3,7.5
			c-5.8,5.3-12.5,9.6-19.3,13.6c-17.4,10-35.4,18.5-53.8,25.6c-0.4,0.2-8.5,3.1-5.6,4.6c3-1.1,6.1-1.9,9.3-2.6
			c9.2-1.3,18.2-2.5,27.1-5.4c7-3.5,7-3.5,9.8-4.6c6-3.3,11.9-6.8,17.7-10.6c3-2.3,6-4.6,9-7c4.3-5.3,7.6-11.4,9.7-18.2
			c0.3-1.4,0.7-2.8,1-4.2c1-1.3,3.2-1.8,4.8-2.4c1-0.7,2-1.3,3-1.9c4.8-4.3,7.3-11.2,6.6-18.1c-0.7-1.6-1.2-3.3-1.5-5
			c-1.6-3.4-3.3-6.6-5.2-9.7c1.7-0.2,2.8,1.6,4.3,0.9c0.1-0.3,0.2-0.6,0.3-0.8c-2.4-5.1-6.5-9.2-10.1-13.4c-0.7-0.4-1.4-0.6-2.2-0.3
			c-1.1,2.5-2,5.1-2.8,7.8c-0.5,2.9-0.2,2.7,2,4.8c0.3,0.6,0.4,1.2,0.5,1.9c2.2,5.3,4.7,10.3,7.5,15.2c0.9,1.9,3.1,4.9,2.7,7.2
			c-3.3,2-6.8,3.4-10.5,4.3c-1.9-7.6-7.6-13.1-14.4-13.9c-8.6,0.6-11.6,9.7-14.2,16.3c0,4.1,0.6,6.4,4.6,8.6"/>
		<path class="st0" d="M373.6,288.7c-0.2-0.1-0.5-0.1-0.8,0.1c-2.5,4.8-5.9,17.4,1.6,20.2c3.3-0.3,5.6-5.7,4.2-8.5H378
			c-1.3,1.5-1.2,3.7-3.7,3.7c-4.8-2-1.2-10.4-0.4-13.7C373.9,290,373.8,289.3,373.6,288.7"/>
		<path class="st0" d="M421,237.1c1,0,4.4,0.4,5.1-0.3c0-0.6,0-0.6-0.2-0.9c-5.3-3-10.8-5.6-16-8.6l-1.1,0.1
			c-0.1,0.2-0.2,0.4-0.3,0.6c0.7,8.7,0.7,8.7,1,10.2c1.2,1.2,3,1.7,4.4,2.6c1.3,1.5,2.6,3,3.9,4.5c3.1,2.7,6.3,5,9.7,7.4
			c6.9,4,13.8,8.1,20.6,12.4c1.7,1.6,3.5,2.5,3.9,4.8c-2.5,4.2-9,8.3-13.7,9.9c-11.4,6.3-23.3,11.5-35.4,15.6
			c-4.4,0.8-9,0.4-12.1-3.1c-2.8-4.8-1.4-10.8,0.5-15.7c1.1-2.1,2.2-3.8,3.5-6.3c1.5,0.5,2.5,1.9,4.2,1.9c2-2,3.8-4.2,5.5-6.6
			c3.3,1.4,6.6,4.2,9.6,6.2l0.8-0.1c2.2-2.6,4.5-5.2,6.7-7.7c0-0.3,0-0.6-0.2-0.8c-0.8-0.6-5.3-3.5-9.7-6.7c-3-0.2-4.4,6.7-6.9,6.7
			c-0.6-1.3-4.3-3-5.6-3.8c-1.1-0.8-2.7-2.9-4.3-2.6c-1.9,2.3-6.1,6.1-6.1,9.1c1.4,1.1,2.8,2.2,4.1,3.3c-1.6,3.4-3.3,6.8-4.9,10.2
			c-1.3,3.6-2.4,7.4-3.2,11.2c0,1.9,0.1,3.7,0.1,5.6c0.3,1.2,0.6,2.3,1,3.5c2.3,4.4,5.7,6.4,10.8,7c3.8-0.5,7.4-1.5,11-3
			c0-0.1,0.1-0.2,0.1-0.3c2.4-0.8,4.7-1.8,7-3c8.7-3.7,16.9-8.1,25.1-12.6c0.1,0.1,0.3,0.3,0.4,0.4h0.4c0-0.4,0-0.7,0.1-1.1
			c1.8-1.2,3.7-2.3,5.6-3.3c2.6-2,4.9-4.5,6.8-7.4c0.4-1.2,0.8-2.4,1-3.7c-0.2-6.6-0.7-15.1-7.5-18.6c-0.3-0.3-0.7-0.6-1-0.8
			c-7.6-4.5-15.2-9.3-22.7-14C422.7,238.8,421,237.8,421,237.1"/>
		<path class="st0" d="M47,300.9c1.5-1,3-2,4.6-2.9c6.9-3.1,13.8-6.3,20.6-9.5c1.4-1,3.6-3.3,3.6-5c-0.6-0.2-1.8,1.1-2.2,1.4
			c-2.7,1.2-5.3,2.5-8,3.7c-6.5,2.4-13.1,5-18.7,9.1c-0.8,1.8-1.4,2.7-1.4,4.5C46,301.8,46.5,301.4,47,300.9"/>
		<path class="st0" d="M186.7,284.7c-1.1,0-2.5,3.3-2.7,3.7c-1.4,3.9-3.9,10.4,0.9,13.3c2.5-0.5,4.4-4.7,4.4-7c-0.2,0-0.4,0-0.6,0.1
			c-0.5,0.9-1.5,3-2.9,2.1c-2.9-3.8-0.9-7.7,1-11.4C186.8,285.2,186.7,284.9,186.7,284.7"/>
		<path class="st0" d="M239.9,274.3c-0.2,0-0.4,0.1-0.6,0.1c-2.1,3.8-4.1,7.4-4.6,11.8c0,4-0.3,8.4,4.1,10.2c2.4-0.8,4.6-6,4.2-8.3
			c-0.1,0-0.3,0-0.4,0.1c-0.9,1.4-1.4,2.7-2.9,3.7c-4.2-0.6-3.1-7.3-2.8-10.2C237.8,279.3,239.6,276.8,239.9,274.3"/>
		<path class="st0" d="M81.5,257.5c3.4,0,6.8,0.5,10.2,1.4c1.1,0.6,5.6,2.9,5.2,4.4c-0.7,0.3-1.3,0.6-2,1c-0.9,0-1.7,0.1-2.6,0.2
			c-0.1-0.1-1.4-0.2-2.8-0.6c-3-1.3-5.8-3.3-8-6.1L81.5,257.5z M2.4,286.7c3.2,5,7.3,7.2,13.2,8.3c2.5-0.2,4.9-0.6,7.3-0.9
			c2.2-0.9,4.4-1.9,6.5-3l6.1-4.6c2-1.7,4-3.6,6.1-5.2c9.5-8.6,19.8-16.5,31.7-21.6c1.6,5,4.4,9.4,8.1,12.5c5.1,3.5,13.7,6,17.1-0.7
			c1.5-4.5,1.4-9.5,1.7-14.2c-0.2-1.4-0.5-2.8-0.8-4.2c-4.3-7.4-13.1-6.6-20.6-6.2c-2.3,0.6-1.6,1.1-2.3-2.2l-2.5-17.1
			c-1.1-10.2-1.9-18.5-2.7-25.7c-0.2-7.3-0.6-11.2-0.8-19.8c2.8,0.6,3.7,6,6.4,6.5l0.5-0.2c0-0.2,0.1-0.5,0.1-0.7
			c-3.1-7.6-6.4-15.4-9.6-23c-0.5-1.4-0.9-3.2-2.2-4.1c-0.2,0-0.4,0-0.6,0.1c-1.7,3.1-1.7,3.1-2,3.9c-1.2,1.9-2.9,3.9-2.7,6.3
			c1.1,1.1,1.8,2.5,2.3,4.1c0.8,9.3,1.7,18.5,2.5,27.8c1.1,15.7,2,31.5,5.4,46.9c-0.1,0.2-0.1,0.3-0.1,0.5
			c-7.2,2.7-14,7.9-20.2,12.4c-1,0.9-1,0.9-20.4,17c-2.1,1.8-2.1,1.8-6.8,4.8c-2.2,1.2-4.5,2.1-6.8,3.1c-5.2,0.9-9-0.4-12.1-4.5
			c-2.6-5.1-1.3-10.8,0.3-15.9C7,262,7,262,9.2,257.6c2-3.1,4.5-5.9,6.3-9.1c0.3,0,2.1,2.5,2.9,3.1c5.3,3,7.5,0.1,8.6-4.8
			c0.1-1.6,0.9-7.3-0.6-8.2c-0.2,0-0.4,0-0.6,0c-0.1,0.1-0.2,0.3-0.3,0.4c-0.6,2.6-1.1,6.5-5,5.1c-4-3.4-2.4-8.8-1.4-13.3
			c0.8-2.2,1.7-4.2,2.8-6.2c1-1.7,4.2-5.5,3.1-7.5c-0.2,0-0.4,0-0.6,0c-4.3,5.9-8.2,12.7-9.5,19.9c-0.2,1.4-0.3,2.8-0.5,4.3
			c0.1,3.1,0.3,3.6,0.3,4.5c-0.7,1.1-2.7,3.2-4.2,5.2c-4.4,6.7-7.7,12.9-9.7,20.5c-0.3,1.8-0.5,3.6-0.7,5.4c0.1,2.1,0.3,4.3,0.7,6.3
			C1.3,284.2,1.8,285.5,2.4,286.7"/>
		<path class="st0" d="M153.7,258.3c3.2-2.5,6.6-4.8,10-6.8c4.8-1.9,4.8-1.9,10-3.8c1.2-0.2,2.5-0.4,3.7-0.5h2.4
			c4.9,0.8,17.2,5,15.2,11.6c-5.1,5.4-12.9,8.1-19.9,10.2c-8.1,1.8-9.7,2-10,2.2c-8.1,1.3-16.2,2-24.4,2.1c-0.1-0.1-0.1-0.3-0.2-0.4
			C144.4,267.5,148.8,262.6,153.7,258.3 M276.8,266.7c0.4,2.3-3.2,2.5-4.9,2.6c-3.4-0.7-6.6-2.4-9.3-5
			C267.2,264.1,272.7,264.3,276.8,266.7 M105.3,198.2c2.5,14.5,2.5,29.4,3.1,44c-0.2,4.2,0.4,8.4,0.5,12.6c1,5,2.6,9.7,4.7,14.2
			c1.2,2.1,2.6,4,4,5.9c1.3,1.3,2.6,2.5,4,3.6c3.2,1.7,6.4,3.2,9.8,4.4c-0.6,2-1.1,4-1.6,6.1c0.1,0.8,0,0.9,0.5,1.4
			c0.2-0.1,0.4-0.2,0.6-0.2l3.1-6.4c3.1,0,6.2,0,9.3,0c3.2-0.5,6.4-0.7,9.6-0.6c0.3,0.2,7.2,0.9,9.1,1.3c2.5,0.1,2.5,0.1,12.7,0.2
			c2.4-0.4,4.9-0.6,7.3-0.6c3.2-0.7,6.6-1.2,9.9-1.5c3.7-0.9,7.4-1.6,11.1-2c8-1.9,16.6-3.3,24-6.5c4.4-1.3,4.4-1.3,26.7-9
			c0.4,0.5,0.4,0.5,1.4,3.7c3.1,6.4,7.5,9.5,14.2,11.5c2.2,0.3,4.5,0.1,6.7-0.5c3.2-1.7,3.9-4.8,4.8-8c0.1-4.2-0.7-8.3-2.4-12
			c-0.9-1.2-2-2.2-3.1-3.2c-5-2.8-11.5-3-17-2.5l-0.5-0.2c-0.3-0.9-0.3-0.9-2.3-10.4c-1.1-10.3-2.4-20.6-3.8-30.8
			c-0.5-7.9-1.2-13.3-1.7-20.5c-0.5-3.5-0.8-6.9-1-10.4c0.1,0,3.2,3.9,4.8,5.7c2.1,0.3,0.9-1.8,0.5-2.8c-2-7.5-4.8-15.1-7.1-22.6
			c-0.2-0.2-0.4-0.3-0.6-0.5c-2,1.1-5,7.8-5.2,10.1c0.8,1.3,1.2,2.8,1.2,4.4c0.1,0.1,0.2,0.2,0.3,0.3c0.7,12.3,1.6,24.6,3,36.8
			c1,14.2,3.4,28.3,5.8,42.3c0,0.3,0,0.6,0,0.9c-3.7,1.2-7.4,2.4-11.1,3.7c-5.8,2.5-12.3,3.5-18.1,5.9c-5.7,1.4-11.3,3.2-17.1,4.2
			c-5.7,1.4-11.5,2.5-17.3,3.1c1.4-1.2,2.8-2.5,4.1-3.8c3.1-4.6,5.8-9.5,8-14.8c0.8-3.3,0.9-5.5-0.1-8.7c-3.3-4.8-8.8-6.5-14.4-7.8
			c-3.7-0.2-7.4,0.1-11.1,1c-1.7,0.6-3.3,1.2-5,1.8c-4.2,2.2-8.3,4.8-12.3,7.5c-4.3,3.7-8.4,7.7-12.2,12.1c0.8-2.1,1.5-4.2,2.3-6.3
			c0.7-3.4,1.3-6.9,1.6-10.4c0-3.6-0.1-7.3-0.1-10.9c-1-15.4-2.6-30.8-3.9-46.2c-0.6-9.1-0.6-9.1-0.4-9.3c1.6,1.5,3.1,3.2,4.6,5
			c3.6,1.7-0.7-7.6-0.9-8c-1.9-5.9-4.2-11.6-6.7-17.2c-0.4-0.4-0.8-0.5-1.3-0.4c-2.5,4-2.5,4-4.8,7.9c0,1.4,1,2.6,1.5,3.9
			c0.7,2.5,1.2,5,1.5,7.5c0.7,19.1,2.8,38.1,4.8,57.2c0.4,9.1,0.7,18.4-1,27.4c-1.4,4.2-3.3,8.2-5.5,12c-1.6,0.2-3.5-0.6-5-1.1
			c-4.1-1.6-7.8-4.2-11-7.5c-7.6-11.6-6.7-26-7.1-39.1c-0.4-7.6-1-15.2-1-22.8c-0.2-0.7-0.2-0.7-1.2-8.9c-0.8-3.4-1.4-6.9-1.9-10.4
			c-0.6-1.5-1-3.1-1.1-4.7c-1.8-5.7-2.8-11.6-4.9-17.2c-0.2-0.7-0.3-2.8-1.6-2c-0.3,0.6-0.3,0.6-3.2,9c-0.1,0.3-0.1,0.7-0.1,1
			c1.8,5.9,3.8,11.8,4.7,18C104.3,190.3,104.9,194.2,105.3,198.2"/>
		<path class="st0" d="M331.4,180.3c0.2,4.5,0.2,4.5,1.2,15.5c1.3,7.7,2.1,15.5,3.3,23.3c2.1,16.1,4.2,32.3,5.8,48.5
			c0.3,4.8,0,9.6,0,14.4c0,0.1,0.1,0.2,0.1,0.3c0.2-0.2,0.4-0.5,0.6-0.7c1.2-3.6,2.3-7.2,3.5-10.7c0.2-1.9,0.5-3.8,0.8-5.6
			c-0.4-22.3-4-44.6-7.1-66.8c-0.1-1.3-0.3-2.5-0.4-3.7c-0.5-3.5-1.9-8.1-1.5-11.6c0.2,0.1,0.3,0.2,0.5,0.4c1.8,2.3,3.8,4.4,6,6.3
			c0.6-0.2,0.6-0.8,0.6-1.3c-1.1-3.7-2.2-7.3-3.3-11c-2-5-4.3-9.9-6.8-14.5l-1-0.6c-0.2,0-0.4,0.1-0.6,0.2c-1.8,2.8-3.4,5.9-4.8,9
			c0,1.8,1.8,4.1,2.6,5.8C331.1,178.3,331.2,179.3,331.4,180.3"/>
		<path class="st0" d="M18,260.4c-2.1,4.8-4.9,14.2,1.4,17.3c4-0.3,3.6-3.8,4-7.1c0-0.5-0.1-1-0.1-1.5c-0.3-0.1-0.6-0.1-0.9,0.1
			c-0.4,2.1-1,3.9-3.6,2.8c-1.8-1.7-1.8-4.1-1.8-6.4c1.3-4.6,1.3-4.6,1.3-5.2L18,260.4z"/>
		<path class="st0" d="M276.8,176c1,12.4,1.7,24.8,3.7,37.1c1.1,10.7,2.6,21.4,4.2,32c0.2,4.5,1.2,9,1.8,13.5
			c0.6,8.5,0.6,8.5,0.8,17.9l0.5,0.2c0.1-0.1,0.2-0.2,0.3-0.2c1-4,2.1-7.9,3.2-11.8c0.7-5.2,0.3-10.4,0.1-15.7
			c-2.3-22.3-5.6-44.4-7.6-66.7c0.4,0.5,5.9,9.5,6.4,5.2c-1.6-4.8-3.2-9.5-4.8-14.3c-1.8-4.1-3.7-8.1-5.9-12
			c-0.7-0.7-1.3-0.2-1.8,0.3c-1.3,2.7-2.6,5.4-3.9,8.1c0,0.3,0,0.6,0.1,0.8C275.1,172.1,276.1,174,276.8,176"/>
		<path class="st0" d="M304.3,267.6c0.1,0,0.3,0.1,0.5,0.2c0.1-0.1,0.3-0.1,0.4-0.2c2-2.7,4.1-5.3,6.2-8V259
			c-8.3-7.1-8.3-7.1-9.2-8.1c-0.1,0-0.3,0-0.5,0c-1.7,2-1.7,2-3.6,4.5c-0.8,1.4-2.3,2.9-2.3,4.5C302.8,266,302.8,266,304.3,267.6"/>
		<path class="st0" d="M230.8,248.6c1,2.9,1.7,3.8,4.9,4.6c4-0.8,4.5-7.2,3.9-10.2c-0.1,0-0.2-0.1-0.3-0.1c-0.3,0.2-0.3,0.2-1.3,2.7
			c-0.5,0.8-1.1,1.4-1.9,1.9c-5.3,0.4-3.3-7-2.8-9.5c0.4-1.3,5.1-9.6,4.2-11.3c-0.1,0-0.2,0-0.3,0c-3.8,5.1-6.3,11.4-7,18.2
			C230.4,246,230.6,247.3,230.8,248.6"/>
		<path class="st0" d="M39.1,199.8c0.2-0.1,0.4-0.1,0.6-0.2c0.1-0.2,0.2-0.4,0.2-0.6h0.3c0.1,0.2,0.1,0.2,1.3,2.3
			c0.8,1.6,2.2,4,2.2,5.8c-0.7,0.5-1.4,0.9-2.2,1.4c-0.8,1.4-1.3,3-1.4,4.6c0.2,0,0.2,0,1.5-1.2c1.2-0.6,2.1-0.2,3.4,0.1
			c0,0.1-0.1,0.2-0.1,0.3c-1.4,0.5-2.8,1.3-4,2.2c-4.7,5.8,0.4,13.4,2.8,18.8c0.7,1.9,1.5,3.9,2.2,5.9c2.2,8.2,2.2,8.2,2.8,9.8
			c0.1,0.9,0.3,1.8,0.8,2.5h0.3c0.6-5.1-1.5-10.2-2.6-15.2c-0.8-2.1-1.5-4.3-2.2-6.4c-1.4-2.9-2.7-5.8-3.9-8.9
			c-0.5-0.6-0.8-1.4-0.7-2.2c1.8-2.1,5.9-2.9,8.4-3.6c0.3-0.5,0.3-0.5,1.4-3.5c0-2.5-3.3-4.2-5.5-4.6c0.7-4.4,1.1-9.1,2.4-13.4
			c2.2-3.5,4.2-2.1,5.6,1.1c0.1,0,0.3,0,0.5,0c0.5-1.4,0.7-2.9,0.7-4.4c-1.1-1.9-2-3.9-4.6-3.5c-4.6,2.7-4.2,10-5.2,14.5
			c-1.4-3.3-4.4-11-8.9-11c-0.4,1.9-0.6,3.8-0.4,5.7C36.3,197.4,37.7,198.6,39.1,199.8"/>
		<path class="st0" d="M59.4,251.5c0.6-0.1,1.2-0.2,1.7-0.2c1.8-1.8,2.3-4.2,2.3-6.7c-0.5-0.3-1.4,1.6-1.6,1.9
			c-3.2,1.5-4.4-2.3-4.4-4.6c0.5-2.3,1.9-4.6,1.9-7c-2.2,0.5-3,8.2-3.2,10.4c0.1,3.1,0.6,4.6,3.3,6.3"/>
		<path class="st0" d="M220.7,224c-2.9-2.1-4-1.2-5.3,1.8c-1.1,3.9-2.2,9-3.3,13c-0.1,0.1-0.2,0.1-0.3,0.2c-0.3-0.4-0.3-0.4-1.8-3.8
			c-0.5-0.7-0.9-1.4-1.3-2.1c-1.5-1.8-6.2-7.7-9.3-6.9c-0.4,2.3-0.4,4.7,0,7c1.7,0.8,3.7,2.3,5.5,2.6c0.3-0.2,0.5-0.5,0.8-0.7
			c1,1.2,2,2.5,3,3.7c1.1,2,2.2,4.7,3.4,6.9c0.2,0,0.4,0,0.6,0c0.1-0.2,0.2-0.3,0.3-0.4c2.1-8.9,2.6-11.9,3.4-15.1
			c0.2-0.7,0.6-1.2,1.2-1.7c1.9,0.7,3.6,2.2,4.5,4.3l0.5,0.1c0.5-2,1.1-4.7,0.5-6.7c-0.2,0-0.3,0-0.5,0
			C222.1,225.5,221.4,224.7,220.7,224"/>
		<path class="st0" d="M85,229.9l1.1-0.5c2.2,3.3,4.5,6.8,5.3,10.7c0.1,0.1,0.3,0.2,0.4,0.3c0.1-0.1,0.3-0.1,0.4-0.2
			c2.3-5,2.5-10.6,4.8-15.5c2.3-2.5,3.8-0.2,5.3,1.9c1.4-0.2,1-4.4,1-5.5c-1.5-1.6-2.2-2.7-4.4-3.1c-4.5,1.7-4.9,11.8-6.5,14.9
			c-0.9-1.5-0.9-1.5-3.4-6.4c-1.3-1.8-5-7.7-7.5-7.7c-0.7,1.9-1.8,4.4-1.6,6.3C80.3,225.8,82.7,227.7,85,229.9"/>
		<path class="st0" d="M131.4,238.9c3.4-0.8,4.2-6.3,3.8-9.1l-0.2-0.1c-0.1,0-0.3,0.1-0.4,0.2c-0.5,1.6-1.1,3.3-3.1,3.3
			c-3.9-2.1-3.5-7-3.3-10.8c0.9-2.8,1.9-5.4,2.9-8.2c-0.1-0.2-0.2-0.3-0.3-0.4c-0.3,0.2-0.6,0.3-0.9,0.5c-2.2,3.9-3,8.1-3.8,12.4
			C126.1,231,125.9,237.6,131.4,238.9"/>
		<path class="st0" d="M235.5,197.7c-2.8,1.3-5.6,2.7-8.4,4.1c-14.6,6.4-29.2,12.5-43.4,19.7c-5.9,3.2-12.1,6.3-17.2,10.6
			c-0.5,0.7-0.9,4.2-0.4,4.7c6.3-5.7,14.4-9,21.6-13.4c11.3-5.4,11.3-5.4,15.6-7.3c0.5,0,0.8,0.1,1.1-0.4c10-4.4,20-8.8,29.9-13.2
			C234.9,201.7,237.3,197.9,235.5,197.7"/>
		<path class="st0" d="M434.3,234.3c2.5-0.6,2.8-2.2,3.5-4.6c0-1.1,0.3-4-0.9-4.6c-0.1,0.1-0.2,0.3-0.3,0.5c-0.3,2-1.1,4.6-3.7,3.7
			c-2-1.9-0.9-7-0.6-9.4c0.3-1.2,2.4-6.4,0.4-6.7c-1.7,2.3-2.1,6.9-2.3,9.7C430.3,227,429.8,232.2,434.3,234.3"/>
		<path class="st0" d="M364.1,228.2c-1.1-0.4-1.3-0.5-1.4-1.6c0.3-1.4,0.7-4.8,2.1-5.7c1.7,1.1,4.7,2.3,4.7,4.6
			C368,227.3,366.1,228.2,364.1,228.2 M364.6,214.8c-0.2,0-0.3-0.1-0.5-0.1c-0.6,1.2-0.5,3-0.7,4.3c-0.6,1.8-1.3,3.6-1.9,5.4
			c-0.8,3.8-1.7,6.6,2.3,8.4c2.3,0.1,4.6-1,6.2-2.9c1.9-3.4,1.6-6.5,0.5-10c-0.6-0.6-1.1-1.2-1.7-1.8
			C367.1,217.2,365.5,216.5,364.6,214.8"/>
		<path class="st0" d="M269.6,229.8c1.7-0.2,1.9-0.6,3-1.9c0.5-1.2,0.6-3.8-0.2-4.9c-0.1,0-0.3,0-0.4,0c-0.4,0.6-0.7,1.2-1,1.7
			c-1.5,1.1-3-0.6-3.6-1.7c0-3.6,1.9-6.7,1.9-10.2c-0.2,0-0.3-0.1-0.5-0.1C266,217,262.7,227.5,269.6,229.8"/>
		<path class="st0" d="M402.3,209.7c-0.1,0-0.2,0-0.3,0c-2,3.6-7.2,15.9-0.6,18.4c1.2-0.5,2.2-1.5,2.9-2.7c0.2-0.7,1.7-5.8,0.4-5.6
			c-0.6,1.3-1.4,3.3-3,3.6c-4.7-1.7-0.2-10.7,0.7-13.2C402.3,210,402.3,209.8,402.3,209.7"/>
		<path class="st0" d="M300.8,168.4c1.2,1.5,4.3,4.9,4.3,6.8c-1.8,0.6-3.4,4.1-3.4,5.9c1.1-0.1,1.4-0.8,1.8-1.6
			c1,0.1,3.4,0.3,3.7,1.4c-1,0.3-1.9,0.6-2.9,0.9c-3.4,1.9-3.4,4-4.3,7.7c1.8,9.9,8.1,18.4,11.2,27.9c0.1,1.1,0.1,2.6,1,3.5
			c2.4-5.6-1.6-14.2-4.5-19.1c-1.9-4.1-3.6-8.2-5.4-12.3c-0.2-0.8-0.2-1.6-0.1-2.4c2.9-1.6,6.1-2,9.2-2.9c0.8-1.2,1.3-2.5,1.7-3.9
			c-0.2-1.3-2.5-2.3-2.5-3c-1.3-0.6-2.5-1.2-3.7-1.8c0-1.1,0-1.1,1.2-10.2c0.6-1.7,1-3.2,3-3.2c1.1,0.8,2.3,1.3,3,2.5
			c0.8-0.2,0.9-4,0.9-4.4c-1.1-1.3-2.5-2.3-4-2.7c-2.4,0.4-2.9,2.1-3.6,4.1c-0.5,3.1-0.9,6.2-1.4,9.3c-0.9-0.3-2.7-4-3.2-4.8
			c-2.2-2.5-4.7-4.6-7.4-6.2c-0.1,0-0.2,0.1-0.3,0.1c-0.3,1.7-0.5,3.5-0.6,5.2c1.5,1.3,3.3,2.2,5.2,2.5
			C300.1,167.9,300.4,168.2,300.8,168.4"/>
		<path class="st0" d="M176.8,211.5c-2-3.6-6.7-5.6-9.8-8.2c-2.7,0.4-5.5,6.2-6.9,8.3c0,0.3,0.1,0.6,0.1,0.9
			c2.8,2.3,6.1,4.3,8.7,6.8c2-0.2,3.7-2.7,5-4.2l0.3,0.1c0.3-0.2,0.4-0.5,0.2-0.8C175.3,213.5,176.7,212.6,176.8,211.5"/>
		<path class="st0" d="M360.3,207c13.8-7.3,27.7-14.4,42.1-20.5c1.2-0.6,5.9-3.5,7.1-3.2c0.9-1.4,1.4-3.1,1.5-4.9
			c-0.9-0.3-6.6,3.2-7.6,3.6c-8.8,3.5-17.2,8.1-25.9,11.7c-0.5,0.4-2.4,1.2-16.4,8.7c-5.2,3.2-8.3,4.6-8.7,10.9
			C354.4,210.5,357.4,208.9,360.3,207"/>
		<path class="st0" d="M406.6,192.8c-0.7,1.9-1.1,4-1,6.1c1.2,1.3,2.5,2.5,3.8,3.5c0.6-0.1,1.3-0.4,1.7-0.9c2.3,2.9,4,6.2,5,9.9
			l0.2,0.1c0.1-0.2,0.3-0.4,0.5-0.5c1.1-3.4,1.1-3.4,3.9-13.5c0.2-0.4,0.4-0.8,0.7-1.2c2-1,4.6,1.3,5.1,3.2c1.4-0.3,1.1-4,0.8-5.2
			c-1.5-1.4-3.7-3.9-5.9-2.3c-2.2,4-3.3,9.1-4.8,13.5c-0.1,0-0.2,0.1-0.3,0.1c-0.9-2.3-2-4.5-3.2-6.7
			C411.9,197.3,409,192.9,406.6,192.8"/>
		<path class="st0" d="M155.8,198.7c-0.9,1.4-0.6,3.8-0.6,5.4c1.8-0.8,3.5-1.8,5-3.1c11.1-5.8,22.4-11.4,33.5-17.2
			c5.8-2.7,11.6-5.4,17.4-8.1c7-2.7,14-5.4,20.9-8.3c0.9-0.2,1.8-0.5,2.8-0.7c1.7-1.3,2-3.9,2.2-5.8c-1.8-0.8-5.8,1.6-7.5,2.3
			c-13.5,4.9-26.5,10.8-39.3,17.2c-11,5.8-22.1,11.6-33.2,17.2C156.5,198,156.2,198.4,155.8,198.7"/>
		<path class="st0" d="M205.5,195.1c0.5,3.4,0.6,4.8,3.5,6.8c2.9-0.4,4.8-4.4,3.7-7c-0.2,0-0.3,0-0.5,0c-0.2,0.3-0.4,0.6-0.6,0.9
			c-1.8,2-2.8,1.5-4.1-0.5c-1.1-4.4,2.7-8,2.7-12.2C207.6,184.1,206,192.9,205.5,195.1"/>
		<path class="st0" d="M88.9,200.9c2-0.1,2.1-0.3,3.3-1.9c0.7-1.7,1.7-6.3,0.4-7.6c-0.1,0-0.3,0-0.4,0.1c-0.6,1.2-0.7,3.9-2.7,3.9
			c-3.6-1.5-3.8-5.5-3.6-8.8c0.2-1.5,1.8-6.4,1.8-7c-0.2,0-0.3,0-0.5,0.1C84,185.5,81.1,197.1,88.9,200.9"/>
		<path class="st0" d="M359.6,177.8c0.6,1.2,1.2,2.2,2,3.2c1.2,3.1,1.8,6.5,1.7,9.9c-0.3,1-1.5,3-0.3,3.8c4.2-1.2,3-11.2,2.5-14.1
			c-0.6-1.9-1.4-3.8-2.3-5.6c-1.2-1.7-2.5-3.3-3.8-4.8c-1.1-0.9-4.3-4.2-5.8-4.2c-0.9,1.2-1,3.3-1,4.8
			C355.2,173,357.5,175.3,359.6,177.8"/>
		<path class="st0" d="M116.3,166.1c0.1,0.3,0.1,0.3,1.8,2.1c3.6,4.8,7.2,9.8,8,15.8v3.9c-0.3,2.7-0.8,5-0.8,5.3h0.7v0.3
			c0.3-0.3,0.7-0.6,1.1-0.9c2.4-4.2,1.9-11.1,1.1-15.7c-2-6.4-5.5-12-10.2-16.1c-1.6-0.2-2.5,4-2.7,4.5
			C115.5,165.5,115.5,165.5,116.3,166.1"/>
		<path class="st0" d="M380,182c1.1,0.4,2.1,0.5,2.3,0.6c0.8-0.3,1.5-0.6,2.3-0.9c1.9-2.4,2.8-4.5,1.3-7.3c-0.2,0-0.4-0.1-0.7-0.1
			c-0.9,1.6-0.9,3.2-3.3,3.2c-2.9-1.4-2.2-2.1-1.9-5.3c0.7-2.3,2.7-5.4,1.7-7.7c-0.2,0-0.3,0-0.5,0c-3.4,4-5.4,11.5-2.9,16.2
			C379,181.2,379.5,181.6,380,182"/>
		<path class="st0" d="M158.3,169.6c0.5-0.2,0.9-0.4,1.4-0.6c1.9,2.5,2.7,6.3,4.4,9.1l0.9-0.5c0.8-4.1,1.7-8.1,2.8-12.1
			c1.1-1.8,2.2-4.3,4.5-2.4c0.5,0.6,1.3,2.2,2.1,2.2c0.9-1.3,0.7-3.3,0.7-4.8c-0.8-0.8-1.5-1.6-2.3-2.4c-5.5-3.5-8,12.2-8.6,14.5
			c-0.1,0-0.1-0.1-0.2-0.1l-2.3-5.8c-1.2-1.9-2.5-4.6-4.6-5.6c-0.8-0.6-2-2-3.1-1.7c-0.6,1.5-0.5,3.6-0.7,5.3
			C153.7,166,157.1,169.7,158.3,169.6"/>
		<path class="st0" d="M264,177l1.6-0.1c2-1.9,2.1-4.5,2.1-7.2c-1.3,0.6-1.2,2.4-3,2.8c-5.4-1.7-1.8-8.1-1-11.7h-0.5
			c-1.4,2.8-2.3,5.9-2.7,9C260.6,173.5,260.6,174.7,264,177"/>
		<path class="st0" d="M194.3,173.9c0.3-0.2,0.6-0.3,0.9-0.4c1-1.6,2.6-4.6,1.4-6.4c-0.7,0.6-0.8,1.4-1.7,2
			c-4.5-0.5-1.2-6.6-0.8-9.3c-0.1-0.2-0.2-0.3-0.3-0.4c-0.1,0-0.2,0.1-0.3,0.2C191.6,163.4,188.4,172,194.3,173.9"/>
	</g>
	<g>
		<path class="st1" d="M445,107.6c-0.9-0.2-6.1-2.1-5.6-2.9c2.7-0.3,5.5,0.5,7.6,2.2C446.4,107.4,445.7,107.6,445,107.6
			 M262.3,102.9c-0.9-0.8-1.8-1.5-2.6-2.2c0.9-0.8,5.9-0.4,6.9,0.2C265.3,101.7,263.8,102.4,262.3,102.9 M102.9,105.6
			c-0.4-0.3-3.1-2.2-3-2.8c0-0.1,0-0.1,1.9-0.1c1.7,0,3.4,0.3,5.1,0.8C105.6,104.3,104.3,105,102.9,105.6 M8.7,101.5
			c-0.6-0.2-1.2-0.4-1.7-0.7c0.2-0.5,0.5-0.9,0.9-1.2c1.9-1.4,4.5-3.7,6.7-4.3c0-0.7,1.3-1.3,2-1.3c0.2,1.5,0.4,3,0.7,4.6
			C15,100.6,12,101.2,8.7,101.5 M80.7,112.4c-0.3,0-0.6,0-0.9,0.1c-1.5-0.1-4-0.3-4.8-1.5c2.4-1.1,4-0.2,5.9,1.2L80.7,112.4
			 M305.4,65.4c0-0.6,0-0.6,0.1-1c0.9,0.1,1.5,0.9,1.4,1.8C306.4,66,305.9,65.7,305.4,65.4 M448,101.8c-1.8-2.3-4.2-2.8-7.3-3
			c-1.7,0.1-1.7,0.1-2.6,0.2c-2.2,0.7-2.2,0.7-2.4,0.6c-0.7-1.8-1.3-3.6-1.8-5.4c-2-12.7-2-12.7-2.1-13c-0.5-5.6-0.8-7.2-0.8-8.1
			h0.2c0.6,1.2,1.5,2.3,2.5,3.3h0.4c0.2-0.4,0.3-0.8,0.2-1.2c-2.1-4.5-4.2-9-6.7-13.3l-0.3-0.3c-0.2,0-0.3,0-0.5,0
			c-1,1.3-1.8,2.8-2.6,4.3c-0.2,1.5,1.1,2.9,1.8,4.2c0.1,1.3-0.2,3.5,0.5,4.6c1.5,9,2.1,18.4,4.5,27.3c-0.2,0.5-1.2,0.9-1.8,1.1
			c-2.3,1.9-4.5,3.9-6.5,6.2c-0.6,1-1.2,2-1.7,3.1c-0.2,1.3-0.4,2.6-0.8,3.9c-2.1-1.8-3.1-4.5-4.2-6.7c-0.4-1.7-0.8-3.4-1.4-5
			c-0.6-3-0.9-3.9-2.4-10.5c-0.7-5.5-1.2-11.1-1.8-16.7c-1-5.3-2.2-10.6-3.4-15.8c0.2-1.2,0.6-2.4-1.2-2.9c-0.5,0.6-0.8,1.5-2.5,5
			c0,1.3,0.2,2.6,0.5,3.9c0.1,0.3,0.2,0.7,0.2,1.1v0.5c0.4,0.5,0.3,1.3,0.3,1.9c0.5,4.2,2.2,8.2,2.5,12.4c1.4,7.5,1.3,15.2,3.1,22.7
			c0.4,4.2,1.5,8.5,1.5,12.8c-2,2-5.1,2.8-7.9,3.3c-0.7,0-1.4-0.1-2.1-0.1c-2.3-0.9-4.4-1.8-4.5-4.2c1-0.2,1.9-0.6,2.8-1
			c2.1-2.5,5.1-7.2,2.8-10.1c-1.2-0.7-2.3-1.4-3.5-2c-2-0.8-2-0.8-2.3-1.1c-1.4-0.2-2.8-0.6-4.1-1.2c-3.7-0.6-7.5-0.9-11.3-0.8
			c-11.7,1.2-11.7,1.2-25.9,2.5c-2,0.1-24,2.3-24-3.3c2.3-3.3,6.8-5.8,10.5-8c2.5-1.1,5-2.2,7.5-3.1c2.7-0.6,6.5-1.4,8.8,0.3
			c0.2,0,0.4,0,0.6,0c1-1.5,2-3,3-4.5c0-0.2,0-0.4,0.1-0.6c-5.2-3.8-15.5,1.5-19.6,3.8c-1.2,0.8-2.4,1.5-3.6,2.4
			c-5,3.8-8.6,7.5-10.9,12.9v0.8c0.2,1.7,1.4,3.1,3,3.7c6.8,2,14.1,1.1,21.2,0.8c0.2-0.1,0.4-0.1,0.6-0.1c8.8-0.6,17.6-1.9,26.4-2.8
			l5.9,0.2c3.6,0.5,7.1,1.4,10.5,2.8c0.8,0.5,3.5,1.9,3.5,2.7c-5.7,0.4-11.5,1.7-17.3,1.9c-14.4,1.2-28.9,2.7-43.4,3.5
			c-3.5,0-7,0-10.5,0c-3.3-0.5-3.8-0.7-4.3-0.7c-2.7-0.9-5.3-2.2-7.7-3.9v-0.2c-0.5-0.1-1-0.9-1.3-1.2c-1-1.6-2-3.1-3-4.7
			c-1-0.8-2.6-0.7-3.8-0.7c-9.4,2.4-11.7,11-15.7,17.4c-0.6,0.7-1.2,1.3-1.7,2c-2.1,1-3.1,0.9-5-0.2c-3.4-2.9-5.2-7.2-5-11.6
			c0.4-0.2,1-0.8,1.3-0.9c2.4-4,3.6-8.5,3.7-13.2c-0.4-3.4-1-6.7-1.6-10.1c3-1.3,6-2.7,8.8-4.2l0.3,0.1c1.5,7.4,3.6,15.1,4,22.7
			c0,0.5-0.3,2.5,0,3c0.1,0,0.2-0.1,0.4-0.1c2.6-5.1,1.8-12.1,1.1-17.3c-0.6-2.5-0.6-2.5-2-10.6c1.8-1.1,3.6-2.3,5.2-3.7
			c0.5-0.5,1.1-1,1.6-1.5c2.3-2.3,3.9-5.1,4.9-8.1l1.3,1c2,2.8,0.3,5.8,0.6,8.9c0.2,0.2,0.4,0.4,0.6,0.6c2.2,1.1,3.4-3.5,3.1-4.7
			c-0.2,0-0.4,0-0.5,0.1c-0.3,0.7-0.9,1.2-1.5,1.6c-0.9-0.3,0.2-4.5,0.2-4.8c0-0.6-0.1-1.1-0.1-1.7c-0.2-1.2-0.7-2.3-1.5-3.2
			c-0.3-0.1-0.3-0.1-1.4-0.9c-0.3-2.2,0.5-3.8-1.5-5.4c-0.3,0-0.6,0-0.9,0c-1.4,1.4-2.8,4.2-2.5,6c0.2,0.4,0.2,0.4,0.9,1.1
			c0.6,0.2,2,0.6,2.2,1.2c-1.5,3.2-3.9,5.9-6.9,7.8c-0.1,0.2-4.2,3.1-4.4,3.1c-0.8-3.2-1.8-6.8-1.8-10c1.2,0.9,2.2,1.9,3.3,2.9
			c0.3-0.2,0.5-0.6,0.5-1c-1.6-3.1-3.1-6.2-4.6-9.2c-0.5-1.2-1-2.4-1.6-3.6c-0.2,0-0.4,0-0.5,0c-1.2,1.5-2.1,3.2-2.8,4.9
			c0.3,0.5,1,2.2,1.5,3.3c0.6,1.8,0.9,3.6,1.1,5.4c0,0.2,0.1,0.4,0.1,0.6c-0.1,0-0.1,0-0.2,0c0.2,0.5,0.2,1.1,0.1,1.6
			c1.1,5.9,1.1,5.9,1.1,6.7c0,0,0.1,0.1,0.1,0.1c0,0.1-0.1,0.2-0.1,0.4c-2.8,1.8-5.6,3.4-8.6,5c-1.1-5.6-1.7-11.3-2.4-16.9
			c0.1,0,0.2-0.1,0.3-0.1c0.4,0.5,0.8,0.9,1.4,1.2c0.4,0.8,1.2,1.4,2.1,1.6c0-0.1,0.1-0.2,0.1-0.2c-0.3-1.3-0.8-2.6-1.5-3.7
			c-1.1-3.5-2.6-6.8-4.4-9.9c-0.4-0.2-0.8-0.3-1.3-0.2c-1.1,1.4-2,3-2.6,4.6c0.8,2.1,1.5,4.2,2.1,6.3c0,2.6,0.8,5.1,0.8,7.6
			c0.5,3.7,1.6,8.2,1.6,11.9c-0.7,0.4-1.8,0.4-2,1.2c0.9-0.1,1.5-0.5,2.3-0.2c0.9,5,2.2,10.4,2.4,15.5c-1.2,3.1-7.9,3.2-11,2.9
			l-2.6-0.8c-0.8-0.5-1.6-1-2.4-1.5v-0.3c2.4-1.2,4.6-2.9,7.2-3.6c0.7-0.6,1.5-3.7,2.2-3.4c0.1-0.7,0.1-1.5,0.2-2.2
			c0-0.3-0.1-0.6-0.4-0.8c-3.3-1.6-6.7-1.7-10.2-2.4c-0.5,0-1,0-1.4,0c-6-0.3-11.9,1-17.2,3.8c-0.6,1.5-2.1,4.5-1.3,5.9
			c1.4,0,1.4-0.5,2.5-0.9c1-0.2,2-0.3,3-0.4c2,0.1,3.9,1,5.3,2.4c-0.4,0.3-0.8,0.5-1.3,0.6c-9.4,4.3-9.4,4.3-11.6,5.2
			c-1.1,0.7-2.3,1.4-3.6,1.9c-5,3-9.1,7.1-13.3,10.8c-2.6,1.5-4.6,2.8-7.8,3.1c-4.1-0.4-5.6-2.3-6.2-5.7c0.1-0.9,0.1-1.7,0.2-2.6
			c0.6-2,1.3-4.5,3.2-5.9c0.8-1,1.8-2,2.8-2.8c0,0.4,0.1,0.9,0.1,1.4c1.1,2.7,2.7,5.2,6.6,5.2l0.4,0.2c3-0.1,6.3-0.6,7.7-3
			c0.9-2.4,2.2-5.7,1.7-8.2c-0.5-1.1-2.2-4.3-3.8-4.2c-0.9,1.5-0.8,4.2-0.5,5.8c0.6,0.5,2,1.4,2,2.2c-4.5,2.4-10.8,2.7-12.1-2.5
			c0-1.1,0.6-2.3,0.7-3.5c-1.1-1.4-4.9,3.4-5.4,3.9c-2.8,2.6-6.2,4.5-9.9,5.4c-1.2,0.1-2.4,0-3.6-0.1c-0.9-0.3-1.7-0.6-2.5-0.8
			c-3.3-1.8-5.2-5.3-6.8-8.2c-0.2-0.3-0.5-0.6-0.7-0.9c-1.6-1.1-3.7-1.4-5.5-0.8c-0.8,0.4-1.5,0.8-2.3,1.2
			c-5.8,4.3-7.3,11.5-11.4,16.8l-1.5,1.4c-5.4,3-9-4.8-9-8c2.1-1,2.5-1.7,3.5-3.6c1.2-3.2,2.1-6.5,2.5-9.9v-1.2
			c-1-8.5-2.6-17-4.6-25.3c0-0.2,0-0.4,0-0.6c1.1,0.7,3.7,4.9,3.7,1.9c-1.7-3.4-3.3-6.9-5.2-10.3c-0.5-0.7-2.3-3.9-2.5-4.2
			c-0.5,0.1-0.5,0-0.8,0.3c-0.4,0.7-3.5,5.2-2.1,5.8c0.8,1.2,1.5,2.6,2,4c0,1.1,0.1,2.3,0.5,3.3c-0.4,0.4,0.7,3.3,0.7,4.1
			c0.7,2.9,1.4,5.8,1.9,8.7c0,0,0.1,0.1,0.2,0.1c0.5,5.8,2.4,11.8,3.4,17.6c-0.2,1.7-1.4,2.5-3.2,3.2c-0.1-0.1-0.1-0.1,0-1.4
			c-0.1,0-0.2-0.1-0.4-0.2c-0.1,0-0.3,0.1-0.4,0.1c-0.3,0.5-0.5,0.9-0.5,1.5c-0.8,0.4-2.9-0.4-3.8-0.7c-0.9-0.8-2-1.2-2-2.4
			c0.4-0.5,0.4-1.2,0.1-1.9c-1.3-0.1-1.9,1.3-2.5,2.1c-1,1.9-2.1,4-4.7,4.6c-2.2,0-3.7-0.5-4.9-2.2c-0.3-1,0.7-2.8,0-3.3
			c-0.2,0-0.3,0-0.5,0c-1.7,1.4-3.2,3.1-4.4,4.8c-3.1,2.6-5.5,3.4-9.4,1c-1.1-1.5,0.9-3-0.2-4.2h-0.9c-1.1,1-2.1,2.1-3,3.3
			c-2.5,2.4-5.7,3.8-9.2,4c-3.3-0.3-6.5-1.4-9.3-3.2l-0.2-0.3c0-0.1,0-0.2,0.1-0.3c2.4-1.3,4.9-2.4,7.5-3.1c0.3-0.7,2.1-4.1,1.9-5.4
			c-3.9-1.9-8.2-3-12.5-3.1h-2.7c-5.1,0.2-9.5,1.6-14.2,3.2c-0.6,1.8-1.6,3.8-1.6,5.6c0.6,0.4,2.3-0.3,2.8-0.6l3.3,0.1
			c1.3,0.4,5,1.5,5.6,2.5c-0.4,0.1-0.4,0.1-5.2,1.9c-1.2,0.2-2.6,1.1-3.7,1.1c-1.7-2-3.7-3.8-6-5.2c-5.1-1.8-10,3.9-11.1,7.4
			c0,0.5,0.2,1.6-0.1,2c2.4,4.7,10.4,3.1,14.8,2.4c0.3,0.5,0.5,0.8,0.3,1.3c-2.5,1.9-5.1,3.7-7.8,5.3c-5.1,2.8-10.4,5.6-16.7,5.6
			c-0.8-0.1-1.7-0.3-2.5-0.4l-3.6-1.6c-1.7-1.4-2.9-3.4-3.2-5.6c0.1-0.1,0.2-0.2,0.3-0.3c4.3-2,8.5-4.3,12.7-6.6
			c0.5-0.6,1-1.1,1.4-1.6c0.8-1.7,1.2-3.5,1.3-5.4v-1.8c-0.3-1-0.7-1.9-1.2-2.8c-0.7-0.7-1.5-1.3-2.3-1.8
			c-5.9-2.7-13.5-4.4-18.1-8.8c-0.1-0.8,2.7-0.2,2.3-0.9c-1.5-0.9-6.7-4-8.4-4c-0.5,0.9-0.3,4.5,0.2,5.7c0.6,0.3,1.2,0.6,1.8,1
			c1,1,2,2,3,3.1c1.5,1.3,3.2,2.5,4.8,3.7c4.2,2.2,9,3.5,13.4,5.4c0.8,0.5,2,1,2,2c-0.8,0.7-1.6,1.3-2.6,1.9
			c-6.7,3.7-13.9,6.7-21,9.9c-4.4,1.5-9.4,3.6-13-0.2c-1.1-2.5-0.3-4.8,1.6-6.8c2.1-0.6,4-1.7,5.6-3.2c1.9-2.8,2-6.7,2.1-9.8
			c-0.6-2.5-2.4-5-4-7.1c-0.2,0-0.4,0-0.6,0c-1.3,1.6-1.9,3.7-1.6,5.7c1.7,1.4,2.6,3.4,3.6,5.1c0.1,0.3,0,0.6-0.1,0.9
			c-2.1,1.5-4.5,2.4-7,2.7c-6.4-1.4-6.8-6.4-8.3-11c-0.6-2.3-0.6-2.3-1.1-5c0.2-1.3,1.8-2.2,2.8-3.2c0.3-0.3,5.2-4.6,2.8-4.6
			c-1.2,0.8-5.1,4-6.1,4c-0.4-2-0.7-4.1-1-6.1c-0.3-0.5-0.3-0.5-0.5-0.7c-1.4,0-2.6,4.9-2.6,6c0.5,0.9,0.7,2,0.7,3.1
			c-2.5,1.5-4.8,3.2-7,5c-2.5,2.8-5.6,7.2-3.7,10.6c1.5,0.9,3.1,1.3,4.8,1.2c4.1-0.8,6.7-2.2,8.3-5.5c0.1,0,0.2,0,0.2,0
			c1.4,4.5,2.3,9.4,7.7,11.7l2.8,0.7c0,0.3,0,0.3-1,2.4c-0.2,0.7-0.5,1.4-0.6,2c-0.6,3.3-0.4,6.1,2.3,8.6l2.3,1.1
			c0.8,0,1.6,0.1,2.3,0.3c2.5,0.1,5.2-0.8,7.5-1.6c2.1-0.9,4.2-1.8,6.3-2.6c1-0.7,2.1-1.1,3.3-1.3c-0.5,2.7,0.1,5.6,1.6,7.9
			c2.5,3.2,6.4,4.9,11.1,4.6c8.3-1.5,17-6.8,22.4-12.3c1-2.1,2.2-4.2,3-6.4c0.7-0.5,1.5-0.9,2.4-1.1c3.6-1,6.9-2.7,10.4-3.9
			c2,1.3,3.9,2.7,5.7,4.3c0.1,0,0.3,0.1,0.4,0.1v0.2c0.2,0,0.2,0,1.4,0.7c1.1,0.6,2.3,1,3.5,1.1c1.6,0.4,3.3,0.5,5,0.3
			c0,0.1,0,0.2,0.1,0.3c4-0.7,6.8-3.8,9.1-6.4c0.1,0,0.2,0,0.3,0c0.1,0.5,0.1,1,0.2,1.5c1.2,2.1,3.2,2.9,5.7,3.4
			c3.1-0.4,5.3-2.8,6.8-5c0.8-0.2,1.8-2.7,2-3.1c0.1,0,0.2,0,0.3,0c-0.2,3.5,1.8,6,6.1,6.2l1.8-0.6c1.9-1.4,3.3-3.3,4-5.6
			c0.1,0,0.2,0,0.2,0c0.6,2.6,3.8,4.5,6.9,4.6c0.3,1.5,0.6,3.1,1,4.6c0.5,1.1,1,2.2,1.5,3.3c0.1,1.3,1.7,2,2.2,3.2h0.3
			c0.5,1.2,2.4,1.7,3.6,2.2c4,0.3,4.9-3.1,6.9-5.2c0.5-0.7,0.9-1.6,1.2-2.4c0.1,0,0.2,0,0.2-0.1c2.2-3.7,2.2-3.7,3.8-6.9
			c0.1,0,0.2-0.1,0.2-0.1c1.2-2.9,6.1-6.5,9.6-3.6c1,1.5,2.2,4.3,3.7,5.5c0.9,1.4,2.6,2.4,4.2,3.2c1.5,1.7,6.4,0.9,8.4,0.5
			c0-0.1,0.1-0.2,0.1-0.2c0.3,0,0.5-0.1,0.7-0.3c1.3-0.4,2.6-1,3.7-1.7c0,0.2,0,0.2-0.9,2.6c-0.3,1.5-0.6,3.1-0.6,4.7l0.5,2.1
			c0.4,0.8,1.2,2.7,2.3,2.9c0.6,0.5,1.2,1,1.7,1.5c2.4,1.5,5.4,1.4,8.2,1c0.7-0.3,1.4-0.6,2.2-0.7c1.8-1,2-1.3,3.5-2.2
			c0.5-0.6,1.2-1.1,1.9-1.5c0.6-0.8,0.6-0.8,0.8-0.8c1.5-1.2,2.8-2.7,4.5-3.8c0.3-0.4,0.3-0.5,0.8-0.7c1.3-1.2,3-1.7,4.4-2.8
			c2.6-1.3,5.2-2.5,7.9-3.8c0.2,0.1,0.6-0.3,0.9-0.4c1.5-0.5,8.6-3.2,8.6-3.7c0.2,0,2.1-0.8,2.7-1c1.8,0.9,2.8,2.7,4.5,3.7
			c0.2,0.3,0.5,0.5,0.8,0.6c3,2.5,7.7,2,11.4,1.3c0,4.6,1.4,8.2,4.2,12.1c0.7,0.5,1.3,1.1,1.9,1.8c1.4,0.9,2.9,1.6,4.5,2
			c2.8-0.6,3.7-2,5.2-4.1c0.3-0.7,1.1-1.9,4.7-8.7c1-1,1.9-2.1,2.8-3.2c2.2-1.6,3.9-2.7,7-2.3c0.6,0.3,1.3,0.8,1.7,0.9
			c1.4,2.3,3.1,4.3,5.1,6.2c2.2,1.4,4.5,2.4,7,3c3.4,0.6,4.1,0.6,4.3,0.7c-0.7,2-1.7,6.5,1.5,7.3c1.7-0.2,2.4-3.2,2.1-4.4
			c-0.1,0-0.2,0-0.3,0c-0.2,0.3-0.4,0.6-0.6,1c-2.6,1.1-2.3-2.7-2.2-3.8c4-0.1,8,0.1,12.1,0.1c3.3-0.3,6.7-0.6,10-0.9
			c7.4-0.4,14.8-1.4,22.2-1.9c2.6-0.5,5.2-0.9,7.9-1c-0.7,1.8-1.2,3.7-1.4,5.6c0.2,1.9,0.6,3.5,3.2,3.5c0.4-0.2,0.6-0.2,0.8-0.6
			c1-0.3,0.8-3.2,0.7-4c-0.2,0-0.3,0-0.5,0.1c-0.3,0.7-0.9,1.2-1.6,1.4c-0.3-0.3-0.7-0.5-1-0.7c-0.6-1.4-0.6-4.2,0.8-5.3
			c1.1-0.2,1.1-0.2,1.3-0.3c4.5-0.1,9-0.5,13.5-0.9c-0.9,3.2-0.5,6,2.6,8.4c0.8,0.3,1.7,0.7,2.5,1c4.5,0.2,8.7-1.2,11.2-4.4
			c0.7-1.6,0.7-1.6,2.7-7c1,1.5,1.9,3,2.9,4.5c1.2,1.1,2.3,2.2,3.5,3.3c0.8,0.4,1.5,0.9,2.2,1.5c2.8,1.6,5.9,2.7,9.1,3.4
			c0.8,0.3,1.7,0.5,2.6,0.4c0.5-1.2,0.5-1.2,1.9-5c-0.4-0.8-2.2-1.3-3.1-1.7c-2.2-1.4-4.4-2.8-6.6-4.2c-1.3-1.1-3-2.4-3.3-4
			c2.5-3.5,6-6.2,10-7.8c2.4,2.9,6.5,7.1,11.3,7.1c0,0.1,0,0.2,0.1,0.3c-2.3,3.3-5.4,9.4-1.5,12.7c2.8,1,4.1-3.7,3.8-5.2
			c-0.8-0.3-1.1,0.9-1.4,1.4c-2.3,1.9-2.3-2.1-2.3-3.2c0.6-2,1.7-3.9,2.4-5.8c2.7-0.9,3.7-1.9,3.9-4.5c0-1.8-0.2-3.7-0.4-5.5
			c-0.3-0.7-0.6-1.3-0.9-2"/>
		<path class="st1" d="M157.9,118.5h-0.2c0-0.1,0-0.2,0.1-0.2c-0.1,0-0.1-0.1-0.2-0.2c0.1-0.1,0.2-0.2,0.3-0.3L157.9,118.5z
			 M139.6,126.7l-0.3-0.3c0.4,0,0.4,0,0.6,0.1C139.7,126.6,139.6,126.6,139.6,126.7 M138,127.3c0,0.2-0.1,0.4-0.1,0.5l-0.3,0.2
			c0-0.3,0.1-0.5,0.3-0.7c0.4-0.1,0.4-0.1,0.4,0L138,127.3z M136.1,128.4l-0.3,0.1c0.1-0.2,0.2-0.4,0.3-0.6
			C136.3,128,136.2,128.2,136.1,128.4 M158,116.2c-0.5,0.9-0.8,1.8-1.1,2.8c0.1,0.3,0.1,0.7,0.1,1.1c-1.7,0.2-2.1-0.5-2.5-1.8
			c-0.5,0.1-0.7,0.5-1,0.9c-0.7,1.4-1.9,2.4-3.4,2.8c-0.2-0.1-0.2-0.1-0.4-0.6c-3.9-2.1-6.3,0.9-9.5,2.9c0,0.1-0.1,0.2-0.1,0.3
			c-1.3,0.3-2.8,1.7-3.9,2.4c-4.7,2.6-9.8,4.1-15.2,4.6c0,0.2,0.1,0.4,0.1,0.6c2.9,0.6,5.9,0.6,8.8,0.1c0.1-0.1,0.2-0.1,0.3-0.1
			c0.2-0.1,0.5-0.2,0.8-0.3c1.7-0.7,3.4-1.5,5-2.5c0.6-0.3,1.2-0.8,1.7-1.3c1.1-0.6,2.1-1.2,3-2c1.3-0.8,2.6-1.5,4-2.1
			c2.2-0.5,2.2,0,3.9,0.9c0.3,0.4,0.3,0.4,0.5,0.6c2.3-0.6,2.8-2,3.8-3.7c0-0.1,0-0.2,0.1-0.3c0.2-0.1,0.2-0.1,0.6-0.1
			c0,0.2,0.1,0.5,0.2,0.7c0,0.3,0.2,0.5,0.3,0.8c2.6,1.3,2.7-0.1,3.7-1.9C158,120.3,159.4,116.5,158,116.2"/>
		<path class="st1" d="M199,125.7c-1.8-0.4-3.4-3.7-5.1-3.7c-1,0.7-1.8,1.6-2.5,2.6c-1,0.3-2.2,1.9-0.9,2.5c0.8,1.3,3.4,2.4,3.9,3.6
			c0.2,0.1,0.5,0.1,0.8,0c0.6-0.6,2.6-3.1,3.5-3.1c0.9,1,2.3,1.6,3.2,2.6c0.3-0.1,1.2,0.8,1.4,1c0.1,0,0.2,0,0.3,0
			c0.3-0.7,1.1-1.1,1.7-1.6c0.2-0.3,0.1-0.4,0.5-0.6c0.5-1.1,2-1.2,2-2.6c-1.8-1.3-3.5-2.6-5.2-4C201.3,122.7,199.8,124.9,199,125.7
			"/>
		<path class="st1" d="M274,124.9c-1.9,0.9-3.9,1.4-5.9,1.5c0.3-1,0.9-1.9,1.6-2.7c1.1-1,4.6-3,3.1-4.7c-1.8,0.2-2.2,2-3.9,2.2
			c-1-0.2-2.4-0.3-2.6-1.3c0.6,0.1,1.3,0.1,1.9,0.2c0.3-0.7,1.2-2.3,0.9-3c-2.1-0.2-2.5-0.5-3.6,1.1c-0.8,2.1-2.5,5.3,1.5,5.8
			c0,0.1,0,0.2,0.1,0.3c-0.8,1.3-1.3,2.7-1.6,4.2c0.5,0.8,0.9,0.6,1.7,1c2.5-0.2,4.9-0.9,7.1-2.3c0.9-0.9,2.6-2.8,1.9-4.1
			C275.8,123.3,275.8,123.3,274,124.9"/>
		<path class="st1" d="M102.9,128.8c-1.8,0.9-3.8,1.4-5.9,1.5c0.3-1,0.9-1.9,1.6-2.7c1.1-1,4.6-3,3.1-4.7c-1.8,0.2-2.2,2-3.9,2.2
			c-1-0.2-2.4-0.3-2.6-1.3c0.6,0.1,1.3,0.1,1.9,0.2c0.3-0.7,1.2-2.3,0.9-3c-2.1-0.2-2.5-0.5-3.5,1.1c-0.8,2.1-2.5,5.3,1.5,5.8
			c0,0.1,0,0.2,0.1,0.3c-0.8,1.3-1.3,2.7-1.6,4.2c0.5,0.8,0.9,0.6,1.7,1c2.5-0.2,4.9-0.9,7-2.3c0.9-0.9,2.6-2.8,1.9-4.1
			C104.2,127.5,103.5,128.1,102.9,128.8"/>
		<path class="st1" d="M309,124.3c-0.7,0.8-0.7,1.5-2,1.5c-4.9-2-1-7.1-0.5-10.2l-0.2-0.2h-0.5c-2.4,3.7-5.9,11.4,0.7,13.7l1.2-0.1
			c1.6-0.6,2.2-3.6,1.5-4.8C309.2,124.3,309.1,124.3,309,124.3"/>
		<path class="st1" d="M259.4,123.5c-0.4,0.6-0.8,1.1-1.3,1.6c-1.7,0.7-2-0.4-2.5-1.6c-0.3-2.7,1.2-5.2,2.3-7.6v-0.7l-0.3-0.1
			c-2.8,2.4-6.2,12.6-0.6,13.6l0.9-0.1c0.8-1,1.5-2.1,2.1-3.2c0.1-0.6,0-1.3-0.1-1.9C259.7,123.6,259.5,123.5,259.4,123.5"/>
		<path class="st1" d="M189.2,120.4c-0.4,0.6-0.8,1.1-1.3,1.6c-1.7,0.7-2-0.4-2.5-1.7c-0.3-2.7,1.2-5.1,2.3-7.6v-0.7l-0.3-0.1
			c-2.8,2.4-6.2,12.6-0.6,13.6l0.9-0.1c0.8-1,1.5-2.1,2.1-3.2c0.1-0.6,0-1.3-0.1-1.9L189.2,120.4"/>
		<path class="st1" d="M208,71.5c-0.4,0.6-0.9,1.2-1.5,1.8c-1.9,0.8-2.2-0.4-2.8-1.8c-0.3-3,1.3-5.6,2.6-8.3v-0.7
			c-0.1,0-0.2-0.1-0.4-0.1c-3.1,2.6-6.8,13.8-0.7,14.9l1-0.1c0.9-1.1,1.7-2.3,2.3-3.5c0.1-0.7,0.1-1.3-0.1-2L208,71.5"/>
		<path class="st1" d="M135.8,128.5l0.3-0.1c0.1-0.2,0.2-0.4,0-0.5C136,128,135.9,128.2,135.8,128.5"/>
		<path class="st1" d="M250.7,123.2c-1.3-0.9-1.8-1.1-4.1-2.9c-0.2,0-0.4,0-0.6,0c-1,1.2-3.3,3.2-3.3,4.7c1.5,1.1,3,2.1,4.6,3.1
			c1.1-1.4,3.1-2.7,4-4.2C251.3,123.5,251.1,123.2,250.7,123.2"/>
		<path class="st1" d="M18.7,120.5c0.7-1.9,5.7-3,2.2-4.9c-0.6-0.7-2.5-2.5-3.5-2.7c-1.6,1.1-3,2.5-4.3,4c0.3,1.7,3.8,2.5,3.8,3.8
			c-1.1,1-3.1,2.3-3.3,3.7c1.3,1.2,2.7,2.3,4,3.5c0.1-0.1,0.3-0.1,0.4-0.2c1.4-1.4,3.1-2.6,4.4-3.9c-0.1-0.2-0.1-0.3-0.1-0.5
			C20.9,122.6,19.7,121.6,18.7,120.5"/>
		<path class="st1" d="M137.9,127.2c-0.2,0.2-0.3,0.5-0.3,0.7c0.1-0.1,0.2-0.1,0.3-0.2c0-0.2,0.1-0.4,0.1-0.5h0.2
			C138.2,127.2,138.2,127.2,137.9,127.2"/>
		<path class="st1" d="M139.2,126.4c0.1,0.1,0.2,0.2,0.3,0.3c0.1-0.1,0.2-0.2,0.3-0.2C139.7,126.4,139.7,126.4,139.2,126.4"/>
		<path class="st1" d="M152.9,121.5c0,0.1-0.1,0.2-0.1,0.3c0.1-0.1,0.3-0.1,0.4-0.1c0.2,0.4,0.2,0.4,0.4,0.5
			c-0.1-0.2-0.1-0.5-0.2-0.7C153.1,121.5,153.1,121.5,152.9,121.5"/>
		<path class="st1" d="M456.5,105.5c-0.4-3-1.1-5.9-2.1-8.7c-1.5-7-3.4-14.1-3.9-21.2c0.7,0.7,1.5,1.4,2.2,2.1c0.2,0,0.4,0,0.6,0
			c0-0.1,0-0.3,0-0.4c-2-4.3-4.3-8.6-6.2-12.9c-0.1-0.1-0.3-0.3-0.4-0.4c-0.2,0-0.2,0-0.7,0.2c-1,1.5-2.8,3.3-2.5,5.1
			c0.8,1.4,1.5,2.9,2,4.4c0.1,0.1,0.5,2.9,1.4,7.2c0,0.4,0.1,0.9,0.1,1.3c1.3,6.4,2.7,12.7,4,19.1c1.4,5.3,2.3,10.7,3.3,16.1h0.3
			c0,0.2-0.1,0.4-0.1,0.6h-0.2c0.1,2.9,0.1,2.9,0.3,3.4c0.2-0.1,0.2-0.1,0.5-0.6c0.9-2.4,1.5-4.9,1.9-7.5
			C456.9,110.7,457.1,107.9,456.5,105.5"/>
		<path class="st1" d="M157.7,118.3c0,0.1-0.1,0.1-0.1,0.2h0.2v-0.6l-0.3,0.3C157.6,118.2,157.6,118.2,157.7,118.3"/>
		<path class="st1" d="M454.6,117.2h-0.3v0.6h0.2C454.6,117.6,454.6,117.4,454.6,117.2"/>
		<path class="st1" d="M317.7,103.7c-0.1-0.2-0.1-0.4-0.2-0.6h0.2c0.1,0.2,0.2,0.4,0.2,0.6H317.7z M316.8,102.9c0-0.2,0-0.4,0-0.6
			c0.3,0.2,0.2,0.3,0.3,0.6H316.8z M322.3,97.9c-1.2,5-1.2,5-2,7.7c-0.9-2.5-3.7-7.4-7.5-7.4c-0.3,1.7-0.2,2.5-0.3,2.7v1.2
			c0.9,0.9,2.6,2.2,3.7,1.1h0.2c0.8,0.9,1.6,1.5,1.8,2.6c1.1,0.6,1.4,2.9,2,3.9h0.2c0,0.1,0,0.1,0,0.2c0.2,0.1,0.2,0.1,0.4,0.1
			c0.8-2.8,1.5-5.6,2-8.4c0.8-1.9,1.2-1.6,3.1-0.1c0.1,0.2,0.4,0.9,0.7,0.9c0.8-0.9,0.3-3-0.3-4C324.5,97.3,323.7,96.2,322.3,97.9"
			/>
		<path class="st1" d="M172.7,68.6c1.3,8.2,3.5,16.5,4.6,24.9c0.4,2.6,1.2,5.3,1.4,8c0.2,4.3,0.2,6.6,0.3,7c1.3-0.3,2.3-5.5,2.6-6.5
			c1-5.7-0.6-11.3-1.1-17c-1.3-7.9-2.3-12.6-2.3-13.1c1,0.6,2,1.4,2.7,2.4c1.9,0.3,1.3-2,0.3-2.5c-0.8-2.1-4.7-8.8-5.3-10.2
			c-0.6-0.4-1.1-1.1-1.4-1.8c-1.7-1-3.1,2.7-3.6,3.5c-0.8,2.1-0.3,2.2,1.4,3.9C172.3,67.6,172.5,68.1,172.7,68.6"/>
		<path class="st1" d="M203.1,102.6c0-1.5-0.3-3-0.8-4.4c-0.1,0-0.2,0-0.3,0.1c-0.9,2-0.2,4.9,0.7,6.9c0.3,0.1,0.5,0.2,0.8,0.3
			l1.5-0.4c0.4-0.6,1.1-1.1,1.5-1.7c2.4,3,3.8-0.1,4.1-2.2c-0.4-1.9-0.6-2.2-1-4.3c-0.2-0.1-0.2-0.1-0.4,0c-1.6,2,0.2,3.5,0.2,5.6
			c-2,0.2-2.3-2.3-2.4-3.4c-0.3-0.6-0.5-1.3-0.8-1.9c-0.1,0-0.3,0-0.4,0c-0.2,0.6-0.5,1.1-0.7,1.7c0.4,1.1,0.7,2.3,0.8,3.6
			C205.2,102.9,203.8,103.6,203.1,102.6"/>
		<path class="st1" d="M30.1,88.7c-0.1-1.5-0.3-3-0.8-4.4c-0.1,0-0.2,0-0.3,0.1c-0.9,2-0.2,4.9,0.7,6.9l0.8,0.3l1.5-0.4
			c0.4-0.6,1.1-1.1,1.5-1.7c2.4,3,3.8-0.1,4.1-2.3c-0.4-1.9-0.6-2.2-1-4.3c-0.2-0.1-0.2-0.1-0.4,0c-1.6,2,0.2,3.5,0.2,5.6
			c-2,0.2-2.3-2.3-2.4-3.4c-0.3-0.6-0.5-1.3-0.8-1.9c-0.1,0-0.3,0-0.4,0c-0.3,0.6-0.5,1.1-0.7,1.7c0.5,1.1,0.8,2.3,0.9,3.5
			C32.3,89,30.9,89.7,30.1,88.7"/>
		<path class="st1" d="M227.9,94.5l-0.5-0.1c-1.4,2.6-4.7,8.7-0.8,10.9c0.2-0.1,0.5-0.2,0.7-0.2c0.8-1.2,1.8-3.5,1.3-4.8
			c-0.1,0-0.2,0-0.3,0c-0.3,0.5-0.3,1-0.8,1.4c-2.3,0-1.1-3.8-0.4-4.9C227.3,96,227.6,95.2,227.9,94.5"/>
		<path class="st1" d="M155.7,88.1L155,88c-1.6,3.1-5.6,10.4-0.9,13c0.3-0.1,0.6-0.2,0.9-0.3c0.9-1.4,2.1-4.1,1.5-5.7
			c-0.1,0-0.3,0-0.4,0c-0.4,0.6-0.3,1.2-1,1.7c-2.7,0-1.3-4.5-0.5-5.9C155,89.9,155.3,89,155.7,88.1"/>
		<path class="st1" d="M132.9,63.6l-0.6-0.1c-1.7,3.1-5.6,10.4-0.9,13c0.3-0.1,0.6-0.2,0.9-0.3c0.9-1.4,2.1-4.1,1.5-5.7
			c-0.1,0-0.3,0-0.4,0c-0.4,0.6-0.3,1.2-1,1.7c-2.7,0-1.3-4.5-0.5-5.9C132.2,65.4,132.5,64.5,132.9,63.6"/>
		<path class="st1" d="M118.3,76.9l-0.6-0.1c-1.5,2.8-5,9.3-0.8,11.7c0.3-0.1,0.5-0.2,0.8-0.2c0.8-1.3,1.9-3.7,1.3-5.1
			c-0.1,0-0.2,0-0.4,0c-0.3,0.5-0.3,1.1-0.9,1.5c-2.5,0-1.2-4.1-0.5-5.3C117.7,78.6,118,77.7,118.3,76.9"/>
		<path class="st1" d="M116.5,121.2l-0.6-0.1c-1.5,2.7-5,9.3-0.8,11.7c0.3-0.1,0.5-0.2,0.8-0.2c0.8-1.3,1.9-3.7,1.4-5.1
			c-0.1,0-0.2,0-0.4,0c-0.4,0.5-0.3,1.1-0.9,1.5c-2.5,0-1.2-4.1-0.5-5.3C115.8,122.9,116.1,122,116.5,121.2"/>
		<path class="st1" d="M46.6,103.1L46,103c-1.5,2.8-5,9.3-0.8,11.7c0.3-0.1,0.5-0.2,0.8-0.2c0.8-1.3,1.9-3.7,1.3-5.1
			c-0.1,0-0.2,0-0.4,0c-0.3,0.5-0.3,1.1-0.9,1.5c-2.5,0-1.2-4.1-0.5-5.3C45.9,104.7,46.3,103.8,46.6,103.1"/>
		<path class="st1" d="M28.5,93.8l-0.6-0.1c-1.5,2.2-5,7.4-0.8,9.2c0.3-0.1,0.5-0.1,0.8-0.2c0.8-1,1.9-2.9,1.4-4c-0.1,0-0.2,0-0.4,0
			c-0.4,0.4-0.3,0.9-0.9,1.2c-2.5,0-1.2-3.2-0.5-4.2C27.9,95.1,28.2,94.5,28.5,93.8"/>
		<path class="st1" d="M31.1,66.6l-0.6-0.1c-1.5,2.2-5,7.3-0.8,9.2c0.3-0.1,0.5-0.1,0.8-0.2c0.8-1,1.9-2.9,1.3-4c-0.1,0-0.2,0-0.4,0
			c-0.4,0.4-0.3,0.9-0.8,1.2c-2.5,0-1.2-3.2-0.5-4.2C30.5,67.9,30.8,67.2,31.1,66.6"/>
		<path class="st1" d="M44.4,125.5c-0.2,0-0.4-0.1-0.6-0.1c-1.5,2.8-5,9.3-0.8,11.7c0.3-0.1,0.5-0.2,0.8-0.2
			c0.8-1.3,1.9-3.7,1.3-5.1c-0.1,0-0.2,0-0.4,0c-0.4,0.5-0.3,1.1-0.9,1.5c-2.4,0-1.2-4.1-0.4-5.3C43.8,127.1,44.1,126.3,44.4,125.5"
			/>
		<path class="st1" d="M9.3,109.2l-0.6-0.1c-1.5,2.8-5,9.3-0.8,11.7c0.3-0.1,0.5-0.2,0.8-0.2c0.8-1.3,1.9-3.7,1.4-5.1
			c-0.1,0-0.2,0-0.4,0c-0.4,0.5-0.3,1.1-0.9,1.5c-2.4,0-1.2-4.1-0.4-5.3C8.7,110.8,9,109.9,9.3,109.2"/>
		<path class="st1" d="M317.5,103.1c0.1,0.2,0.1,0.4,0.2,0.6h0.2c-0.1-0.2-0.1-0.4-0.2-0.6H317.5z"/>
		<path class="st1" d="M316.8,102.9h0.2c-0.1-0.3,0-0.4-0.3-0.6C316.7,102.5,316.7,102.7,316.8,102.9"/>
		<path class="st1" d="M132.9,102.5c2.3-0.4,2.2-1,3-2.9c0.1,0,0.1,0,0.7,1.1c1,0.6,2.3,1,2.9-0.2c0.1,0,0.2,0,0.4,0
			c0.4-1.8,1.1-3.5,1.3-5.3c-0.4-1.5-0.7-3-0.9-4.5c-0.1,0-0.3,0-0.4,0c-0.5,0.9-0.9,1.9-1.2,2.9c0.2,1.4,0.7,2.7,0.8,4
			c-1.7,0.6-2-0.4-2.3-1.6c-0.2-1.6-0.6-3.2-1-4.7c-0.1,0-0.2,0-0.4,0c-0.4,0.9-0.8,1.8-1.1,2.8c0,0.5,0.1,0.9,0.1,1.4
			c0.9,2.1,1,2.9-1.4,3.5c-0.5-0.2-0.7-0.4-1-0.8c-0.2-2-0.5-4-1-6c-3,0.5-0.2,9,0.1,9.7c0.4,0.2,0.8,0.4,1.2,0.6"/>
		<path class="st1" d="M312.3,100.9c0,1.2,0,1.2,0.1,1.1v-1.1H312.3z"/>
		<path class="st1" d="M243,88.6l-0.5,0.1c-2.3,3.1-5.1,8.2-3.5,11.8c0.3,0.2,0.6,0.4,0.8,0.8c0.4,0,0.8,0.1,1.2,0.1
			c2.3-0.6,2.6-3.1,2.6-4.8c-0.2,0-0.3,0-0.5,0c-0.6,0.9-0.9,1.3-2.2,1.3c-1.8-1.9,1.4-7.1,2.1-8.8L243,88.6z"/>
		<path class="st1" d="M67.4,76.7l-0.6,0.1c-3.1,4.2-6.9,11.1-4.7,16c0.5,0.2,0.8,0.6,1.1,1c0.5,0,1,0.1,1.6,0.2
			c3.1-0.9,3.5-4.2,3.5-6.5c-0.2,0-0.5,0-0.7,0c-0.8,1.2-1.2,1.8-3,1.8c-2.4-2.5,1.9-9.6,2.8-11.9L67.4,76.7z"/>
		<path class="st1" d="M82.7,91.8l-0.4,0.1c-2,2.6-4.3,6.9-2.9,9.9c0.3,0.2,0.5,0.4,0.7,0.7l1,0.1c1.9-0.5,2.2-2.6,2.2-4
			c-0.1,0-0.3,0-0.4,0c-0.6,0.8-0.8,1.1-1.9,1.1c-1.5-1.6,1.2-6,1.8-7.4L82.7,91.8z"/>
		<path class="st1" d="M68.6,115.7l-0.4,0.1c-2,2.6-4.3,6.9-2.9,9.9c0.3,0.1,0.5,0.4,0.7,0.7c0.3,0,0.6,0.1,1,0.1
			c1.9-0.5,2.2-2.6,2.2-4c-0.1,0-0.3,0-0.4,0c-0.5,0.8-0.8,1.1-1.9,1.1c-1.5-1.6,1.2-6,1.8-7.4L68.6,115.7z"/>
		<path class="st1" d="M290.4,106.5l-0.5,0.1c-2.3,3.1-5.1,8.2-3.5,11.8c0.3,0.2,0.6,0.5,0.8,0.8c0.4,0,0.8,0.1,1.2,0.1
			c2.3-0.6,2.6-3.1,2.6-4.8c-0.2,0-0.3,0-0.5,0c-0.6,0.9-0.9,1.3-2.2,1.3c-1.8-1.9,1.4-7.1,2.1-8.8L290.4,106.5z"/>
		<path class="st1" d="M339.1,109.5h-0.3c-1.3,1.7-2.9,4.6-2,6.6c0.2,0.1,0.4,0.2,0.5,0.4l0.7,0.1c1.3-0.4,1.4-1.7,1.4-2.7
			c-0.1,0-0.2,0-0.3,0c-0.3,0.5-0.5,0.7-1.2,0.7c-1-1,0.8-4,1.2-4.9L339.1,109.5z"/>
		<path class="st1" d="M422.4,88.5c-2.3,2.9-5.5,10.6-0.2,12.5c2.4-0.8,2.7-2.8,2.7-4.8c-0.1,0-0.2,0-0.4,0.1
			c-0.3,0.4-0.5,0.7-0.8,1.1c-2.7,1.5-2.9-2.2-2.9-3.6c0.5-1.6,1.8-4.6,1.9-5.3C422.6,88.4,422.5,88.4,422.4,88.5"/>
		<rect x="169" y="98.7" class="st1" width="0.1" height="1.2"/>
		<path class="st1" d="M318,88c-3.2,1-7.6,3.4-9.5,5.8c-0.7,1.6-2.2,3.4-2.2,5.1c0.1,0,0.3,0.1,0.4,0.1c3.2-2.8,6.8-5,10.7-6.5
			c2.1-1.4,4.4-2.5,6.9-3.4c0.9-0.5,2.1-1,13.6-6.3l4.4-1.8c2.9-1.1,5-2,5.5-2.1c0-0.1,0-0.1,0.1-0.2c1.6-0.7,1.6-0.7,9.3-3.5
			c2-1.3,4.7-1.6,6.8-2.7c3.2-1.2,6.4-2.4,9.6-3.6c3.4-1.1,6.8-2.2,10.1-3.6c2.5-2.8,3.2-3.3,3.7-3.9c0.1-0.3,0-0.6-0.3-0.8
			c-1.8,0.5-3.6,1.1-5.3,1.8c-7.2,2.2-14.1,5-21.2,7.3c-1.7,0.5-3.3,1.2-4.9,2c-2.5,0.8-2.5,0.8-2.8,1c-0.2,0.1-0.5,0.2-0.7,0.4
			c0-0.1-0.1-0.1-0.1-0.1c-1.6,0.6-3.2,1.3-4.7,2c-6,2.2-11.9,4.7-17.6,7.5C325.6,84,321.7,85.8,318,88"/>
		<path class="st1" d="M94.2,72.1c-1.5-0.9-2.6-1-3-2.6c0.9-2.5,3.5,1.3,3.3,2.5C94.4,72,94.3,72,94.2,72.1 M68.2,96.3
			c4.9-2.7,9.9-5.3,14.8-8c2-1.2,3.9-2.5,5.7-4c1.4-1.4,1.4-1.4,4-4.4c0.7-1.1,1.5-3.1,2.7-3.8c3.8,1.7,1.7,5.5,1.1,8.3
			c-0.4,2.1-1.2,5.8,2.4,6.2c2.2-1,2.6-3.2,2.9-5.2c-0.8-0.1-1.2,1.1-1.4,1.5c-1.1,0.6-2,0.8-2.7-0.4c-0.8-3.3,1.6-7,1.6-10.3
			c-0.5-1.7-1.4-2.5-3.2-3.3c0.2-1,0.3-2.1,0.4-3.2c-0.2-0.7-0.4-1.4-0.5-2c-0.5-0.7-0.9-1.3-1.4-1.9c-3.1-0.6-4.4,3.6-4.9,5.5
			c0.2,0.6,0.5,1.2,0.8,1.8c1,0.3,3.6,1.7,3.8,2.4c-1.9,2.1-3.9,4.2-6,6.3c-2.9,2.1-2.9,2.1-9.9,7c-5,3.2-10.2,6.3-15.4,9.3
			c-0.2,0.3-0.2,0.4-0.2,0.7C64.8,98.6,66.2,96.8,68.2,96.3"/>
		<path class="st1" d="M141.9,68c-1.5-0.9-2.7-1-3-2.6c0.9-2.5,3.5,1.3,3.3,2.5C142.1,67.9,142,68,141.9,68 M115.8,92.3
			c4.9-2.6,9.9-5.3,14.8-8c2-1.2,3.9-2.5,5.7-4c1.4-1.4,2.7-2.8,4-4.4c0.7-1.1,1.5-3.1,2.7-3.8c3.8,1.7,1.7,5.5,1.1,8.3
			c-0.4,2.1-1.2,5.8,2.5,6.2c2.2-1,2.6-3.2,2.9-5.1c-0.8-0.1-1.2,1.1-1.4,1.4c-1.1,0.6-2,0.8-2.7-0.4c-0.8-3.3,1.6-6.9,1.6-10.3
			c-0.5-1.7-1.4-2.5-3.2-3.3c0.2-1,0.4-2.1,0.4-3.2c-0.2-0.7-0.4-1.4-0.5-2c-0.5-0.6-0.9-1.3-1.4-1.9c-3.1-0.6-4.4,3.6-4.9,5.5
			c0.2,0.6,0.5,1.2,0.8,1.8c1,0.3,3.5,1.7,3.8,2.4c-1.9,2.1-3.9,4.2-6,6.3c-2.9,2.1-2.9,2.1-9.9,7c-5,3.2-10.2,6.3-15.5,9.3
			c-0.2,0.3-0.2,0.4-0.2,0.7C112.4,94.6,113.9,92.9,115.8,92.3"/>
		<path class="st1" d="M189.4,68.5c-1-0.6-1.9-0.7-2.1-1.9c0.6-1.8,2.5,0.9,2.3,1.8C189.5,68.5,189.4,68.5,189.4,68.5 M170.9,85.8
			l10.5-5.6c1.4-0.8,2.8-1.8,4.1-2.8c1-1,1-1,2.8-3.1c0.5-0.8,1.1-2.2,1.9-2.7c2.7,1.2,1.2,3.9,0.8,5.9c-0.3,1.5-0.9,4.1,1.7,4.4
			c1.6-0.7,1.9-2.3,2-3.6c-0.5-0.1-0.9,0.8-1,1c-0.8,0.4-1.4,0.6-1.9-0.3c-0.6-2.4,1.1-4.9,1.1-7.3c-0.3-1.1-1.2-2-2.3-2.3
			c0.2-0.7,0.3-1.4,0.3-2.2c-0.1-0.5-0.3-1-0.4-1.5c-0.3-0.5-0.7-0.9-1-1.3c-2.2-0.4-3.1,2.6-3.5,3.9c0.1,0.4,0.3,0.9,0.6,1.3
			c1,0.4,1.9,0.9,2.7,1.7c-1.4,1.5-2.8,3-4.2,4.4c-2,1.5-2,1.5-7,5c-3.6,2.3-7.2,4.5-11,6.6c-0.2,0.2-0.1,0.3-0.1,0.5
			C168.5,87.5,169.5,86.2,170.9,85.8"/>
		<path class="st1" d="M185.3,90.4c0.7,0.4,1.8,0.8,1.8,1.5c-1.2,1.1-3.3,2.3-3.3,3.9c0.9,0.4,2.8,2.5,3.7,2.5
			c0.1,0.1,0.2,0.3,0.3,0.5c0.2,0,0.4,0,0.5,0c0-0.1,0-0.1,0-0.2c1.6-0.9,3.2-2.8,4.4-4c0-0.8-3.7-3-3.8-3c0.6-0.8,1.4-1.4,2.2-2
			c0-0.1-0.1-0.2-0.1-0.2h0.3c0-0.1,0.1-0.2,0.1-0.3c0.1,0,0.2,0,0.4-0.1c0.5-0.6,0.8-0.9,0.5-1.6c-1.8-1.2-3.6-2.4-5.4-3.5
			c-1.5,1.1-2.9,2.4-4.1,3.8C182.9,89.3,184.5,89.4,185.3,90.4"/>
		<path class="st1" d="M385.2,83.7c4.4-1.6,8.6-3.4,12.8-5.6c0.4-0.9,1.1-2,0.8-2.9c-0.2,0-0.3,0-0.5,0c-6.2,3.1-12.8,5.5-19.3,8
			c-8.7,3.7-17.6,6.9-25.5,11.8c-1,0.8-0.9,1.3-1,2.5v1.3c0.5,0,0.6-0.3,0.9-0.6c7.9-5,17.1-8.4,25.9-12.1l1.4-0.4
			c0,0.2,0,0.2-0.4,0.6c-1.3,2.7-2.6,5.1-2.6,8c0.3,1.6,1.1,4.5,3.7,3.6c1-1.6,1.5-3.5,1.3-5.3c-0.1,0-0.2,0-0.4,0.1
			c-0.3,1.1-0.4,1.8-1.6,2.3c-3.2-2.7-0.6-6.7,0.6-9.6C382.7,84.7,383.9,84.2,385.2,83.7"/>
		<rect x="101.4" y="97.1" class="st1" width="2.7" height="0.1"/>
		<path class="st1" d="M229.6,90.5c0-0.3,0.2-0.3,0.4-0.4l0.3,0.1c0-0.1,0-0.1,0.1-0.2c0,0.1,0,0.2,0,0.3
			C230.1,90.3,229.8,90.4,229.6,90.5 M226.6,92.1c-0.3,0.1-0.5,0.2-0.8,0.4c0.2-0.3,0.5-0.4,0.8-0.6V92.1z M238.3,85
			c-2.5,1.3-5.2,2.7-7.9,3.8c-3.5,2-10.3,3.9-11.2,8c0.1,0,0.2-0.1,0.3-0.1c0.1-0.2,0.3-0.2,0.4-0.4l0.3,0.2
			c0.8-0.4,1.6-0.8,2.3-1.4v-0.3c0.3-0.2,0.4-0.1,0.8-0.1l0.3-0.1c-0.1-0.2-0.1-0.4-0.2-0.6c0.2-0.2,0.5-0.3,0.8-0.5
			c0.1,0.2,0.1,0.2,0.4,0.3c0.4-0.1,1.4-0.4,1.4-0.7c0.2-0.6,0.3-0.8,1-0.8v0.2c3.1-1.3,6.1-2.7,9.3-4v-0.2c0.2-0.1,0.5-0.2,0.7-0.2
			c6.3-2.4,12.3-5.6,18.9-7.4c4.5-1.9,9.1-3.8,13.8-5.4c0.7-0.9,1.2-2,1.2-3.2c-0.1,0-0.1-0.1-0.2-0.1c-7.1,2.8-14.3,5.6-21.6,8.1
			c-7.5,3.2-9,3.9-10.9,4.7"/>
		<path class="st1" d="M219.7,96.7l0.3,0.1l0.4-0.3l-0.3-0.2C220,96.4,219.8,96.4,219.7,96.7"/>
		<path class="st1" d="M391.4,86.2c-0.7,0.6-0.8,2.8-0.5,3.6l3.5,1.7c0.3-0.2,0.6-0.2,0.9-0.2c1.3,1.7,2.4,3.6,3.3,5.5
			c0.1,0,0.1-0.1,0.2-0.1c0.8-1.8,2-13.4,6.4-7.1c0.1,0,0.2-0.1,0.2-0.1c0.1-1,0.1-2,0-3c-0.8-1.1-1.7-2.3-3.5-2.1
			c-2.2,1.7-2.8,6.4-3.4,8.5C397.2,90.1,395.5,86.7,391.4,86.2"/>
		<path class="st1" d="M222.7,94.8v0.2c0.3-0.1,0.6-0.2,0.8-0.4C223.1,94.7,223,94.6,222.7,94.8"/>
		<path class="st1" d="M224.4,93.6c-0.3,0.2-0.5,0.3-0.8,0.5c0,0.2,0.1,0.4,0.1,0.6c0.3-0.3,0.6-0.5,1-0.7
			C224.5,93.7,224.5,93.7,224.4,93.6"/>
		<path class="st1" d="M198.9,94.3c0.2-0.3,1-1.1,1.1-1.2c0.3-0.2,0.7-0.3,1-0.5c0.7-0.7,4.6-2.2,4.6-2.5c1.4-0.4,2.5-1.2,3.9-1.6
			c0.3-0.2,0.9-0.5,1-0.6c0-0.1,4.6-1.9,6.4-2.4c2.7-1.4,6-2.1,8.6-3.4c3.3-1,6.3-2.8,9.6-3.9c3.5-1.5,7.1-2.9,10.8-4.3
			c0.2,0,0.4-0.1,0.6-0.1c4.7-2.2,10.2-3.4,15.3-5c0-0.1,0-0.1,0.1-0.1c0.9-0.2,1.6-0.8,2.6-1c1.2-1.3,2.4-2.6,3.6-3.9
			c0.1-0.2,0.1-0.5,0-0.7c-0.6,0-1.2,0.1-1.7,0.4c-8.1,2.3-15.9,4.7-23.8,7.5c-11,4.4-22.3,8.6-33.4,12.7c-0.7,0.4-1.5,0.7-2.3,1
			c-1.8,0.8-5.1,2.1-6.2,3.4c-0.9,1.7-3.2,4.2-2.1,6.1L198.9,94.3z"/>
		<path class="st1" d="M259.5,84.4c-0.5,1.9-1,3.8-1.6,5.6l-0.2-0.1c-1-1.9-2.9-5.3-5.9-5.3c-0.1,0.2-0.1,0.2-0.3,3.3
			c0.4,0.8,2.3,1.4,3.3,1.5c1.4,1.1,2.3,3.4,3.1,4.7c0.1-0.1,0.2-0.2,0.3-0.3c0.2-0.5,1.3-4.7,1.9-6.7c0.1-0.1,0.3-0.3,0.5-0.4
			c1.6,0.3,1.9,0.8,2.5,2h0.4c0.1-0.4,0.1-0.8,0.2-1.2c-0.1-2.1-0.3-3-2.6-4.1C260.2,83.3,260,83.7,259.5,84.4"/>
		<path class="st1" d="M272.2,93.3c0.4-0.1,0.7-0.2,1.1-0.3c1.2-1.4,1.9-3.1,1.9-4.9h-0.4c-0.4,0.8-1.1,1.5-1.9,1.9
			c-0.3,0-0.7-0.1-1-0.1c-2.3-1.9,0.1-5.3,1.2-7.3c0.4-1,0.4-1,0.4-1.4c-0.2,0-0.3,0-0.5,0c-1.1,1.7-2.1,3.5-2.9,5.3
			C269.5,89.1,268.4,92.4,272.2,93.3"/>
		<path class="st1" d="M226.2,93.2c0.8-0.3,0.8-0.3,1-0.5v-0.2C226.4,92.3,226.4,92.6,226.2,93.2"/>
		<path class="st1" d="M225.8,92.4c0.3-0.1,0.5-0.3,0.8-0.4v-0.2C226.3,92,226.1,92.2,225.8,92.4"/>
		<path class="st1" d="M230.3,90.1c-0.1,0-0.2,0-0.3-0.1c-0.2,0.1-0.4,0.2-0.4,0.4C229.8,90.4,230.1,90.3,230.3,90.1
			c0.1,0,0.1-0.1,0.1-0.2C230.3,90,230.3,90.1,230.3,90.1"/>
		<path class="st1" d="M309.2,81.7c-0.6,0.6-2.7,3.1-3.7,3.3c-1.3-1-2.6-2.1-3.9-3.2c-0.1,0-0.2,0-0.3,0c-1.6,1.2-3,2.8-4.1,4.5
			c0.1,0.1,0.2,0.2,0.3,0.4c1.7,0.7,2.8,2.3,4.1,3.3c1.6-0.7,2.4-2.8,4-3.5c1.2,0.5,2.9,2.8,4.2,2.8c1.2-1,3.7-2.5,4.2-4
			C313.5,84.5,310.3,81.6,309.2,81.7"/>
		<path class="st1" d="M191.2,89.4H191c0,0.1,0.1,0.2,0.1,0.2c0.2-0.2,0.4-0.4,0.6-0.6c-0.1,0-0.2,0-0.4,0.1
			C191.3,89.2,191.3,89.3,191.2,89.4"/>
		<path class="st1" d="M236.5,88.7c0.2-0.1,0.7-0.2,0.7-0.4c-0.2,0-0.5,0.1-0.7,0.2V88.7z"/>
		<path class="st1" d="M440.4,88c0.4-0.1,0.8-0.2,1.3-0.2c1.2-1.4,1.2-3.4,1.2-4.9c-0.2-0.1-0.2-0.1-0.5,0c-0.3,0.9-0.5,1.8-1.8,1.8
			c-3.4-2.1,0.6-6.7,0.6-9.2l-0.2-0.1c-0.1,0-0.2,0.1-0.3,0.2c-1.6,2.5-2.6,5.3-3.1,8.2C437.8,85.9,437.9,87,440.4,88"/>
		<path class="st1" d="M372.4,81.1c0.1,0.7,0.3,1.4,0.6,2c0.2-0.1,0.4-0.1,0.6-0.1c1.3-2,1.7-4.8,2.4-7c0.3-0.7,0.7-2.2,1.5-2.6
			c1.2,0.6,2,1.8,2.1,3.1c0.1,0,0.2,0.1,0.3,0.1c0.2-0.9,0.4-1.8,0.7-2.7c-0.1-1.7-1.2-3.2-2.7-3.9c-0.4,0-0.8,0-1.1,0.1
			c-2,2.2-2.6,5.1-3.3,7.7c-0.1,0-0.2,0-0.3,0.1c-0.5-0.6-1-1.3-1.4-2c-0.8-0.8-5.3-5-6.8-3.1c0,2.9,0,2.9,0.2,3.2
			c1.6,0.7,3.3,1.3,5,1.6C370.9,78.7,371.7,79.9,372.4,81.1"/>
		<path class="st1" d="M416.3,78.1c1.7,1.4,2.8,3.2,4.3,4.7c0.1,0,0.1-0.1,0.2-0.1c0.9-2.7-0.1-5.6,1.8-8c1.3-0.2,1.6,1.3,2.6,1.6
			c-0.1-1.9,0-4.8-3.1-4.8c-1.8,2.3-1,5.1-1.9,7.7c-2-2.3-4-5.3-7.6-6.1c-0.4,0.3-0.2,3.1-0.2,3.7C413.1,77,415.5,78.9,416.3,78.1"
			/>
		<path class="st1" d="M24.7,82.5c8.4-4.3,17-8.1,25.9-11.3c1.3-0.7,2.6-1.3,4-1.8c0.6-0.8,1-1.8,1.1-2.9c-0.1-0.1-0.2-0.1-0.4-0.1
			c-2,1-2,1-5.3,2.5c-8.6,2.8-16.8,6.8-24.7,10.7C25.1,80.3,24.4,81.7,24.7,82.5"/>
		<path class="st1" d="M15.5,77.6c1.7,1,3.4,2.1,5,3.3c0.7,0.2,3.8-3.4,4.3-3.9c0.1-0.2,0.1-0.4,0.1-0.6L19.7,73l-0.3-0.1
			c-1.2,1.1-1.2,1.1-3.8,3.6c-1.7-0.5-3.4-2-4.7-2.9c-0.5-0.1-0.6,0.1-1,0.3c-0.8,0.9-3.2,2.9-3.2,4.3l4.3,3
			C12.3,81,14.7,78.2,15.5,77.6"/>
		<path class="st1" d="M70.6,72.9c2.5,1.8,3.5,5.3,4.4,7.9c0.2-0.1,0.2-0.1,0.5-0.4c1-3.6,2.2-7.1,3.6-10.5c1-0.7,2.5-0.5,3.2,0.6
			c0.1,0.1,0.2,0.3,0.2,0.4c0.1,0,0.2,0,0.3,0.1c0.5-0.6,0-3-0.3-3.7c-0.5-0.3-1-0.6-1.5-0.9c-2.4-0.6-3,1.1-3.9,2.6
			c-0.7,2.3-0.7,2.3-1.9,6.9h-0.2L74.5,74c-1.5-2.6-3.8-6.7-8-6.7c-0.5,1.2-0.8,2.4-0.7,3.7c1.2,0.7,2.4,1.5,3.5,2.4
			C69.9,73.4,70.1,72.9,70.6,72.9"/>
		<path class="st1" d="M49.1,81.4c2,1.4,2.8,4.2,3.5,6.2c0.2-0.1,0.3-0.2,0.4-0.3c0.8-2.8,1.7-5.5,2.9-8.2c0.8-0.6,1.9-0.4,2.5,0.4
			c0.1,0.1,0.1,0.2,0.2,0.3c0.1,0,0.2,0,0.2,0c0.4-0.5,0-2.4-0.2-2.9c-0.4-0.2-0.8-0.5-1.2-0.7c-1.9-0.5-2.3,0.9-3,2
			c-0.6,1.8-0.6,1.8-1.5,5.5h-0.2c-0.2-0.5-0.4-1-0.6-1.5c-1.2-2-3-5.3-6.3-5.3c-0.4,0.9-0.6,1.9-0.5,2.9c1.3,0.8,1.3,0.8,2.8,1.8
			C48.5,81.8,48.7,81.4,49.1,81.4"/>
		<path class="st1" d="M107.1,71.1c2.5,1.8,3.5,5.3,4.4,7.9c0.2-0.1,0.2-0.1,0.5-0.4c1-3.6,2.2-7,3.7-10.4c1-0.7,2.5-0.5,3.2,0.6
			c0.1,0.1,0.2,0.3,0.2,0.4c0.1,0,0.2,0,0.3,0.1c0.5-0.6,0-3-0.3-3.7c-0.5-0.3-1-0.6-1.5-0.9c-2.4-0.6-2.9,1.1-3.8,2.6
			c-0.7,2.3-0.7,2.3-1.9,6.9h-0.2c-0.2-0.6-0.5-1.2-0.7-1.9c-1.5-2.6-3.8-6.7-8-6.7c-0.5,1.2-0.8,2.4-0.7,3.7
			c1.2,0.7,2.4,1.5,3.5,2.3C106.4,71.6,106.6,71.1,107.1,71.1"/>
		<path class="st1" d="M320.9,70.2c0.5-0.2,0.9-0.6,1.3-1c2,1.4,3,4.1,3.7,6.2c0.1,0.1,0.1,0.1,0.2,0.2c1.2-0.3,1.3-2.4,1.4-3.2
			c0.7-2,1.4-4,2.3-5.9c1.5-1.5,2.6-0.2,3.8,0.9c0.2-0.1,0.5-0.3,0.7-0.4c0-0.9,0.2-2.2-0.3-3c-1.1-1-2.5-1.5-4-1.6
			c-2.6,1.7-3.3,5.7-4,8.2c-0.1,0-0.2-0.1-0.2-0.1c-1.8-2.9-4.1-6.3-8.5-6.3c-0.7,0.8-0.3,2.7-0.2,3.7
			C318.4,68.8,319.6,69.5,320.9,70.2"/>
		<path class="st1" d="M219.7,69c0,0.1,0,0.2,0.1,0.3c1,1,2.7,3.1,2.7,4.4c0.4,1,0.4,1,0.5,1.1c0.5-0.2,0.7-1.2,0.8-1.6
			c0.3-1.7,0.5-3.3,0.8-4.9c0.5-1.6,0.6-2,2.3-2.9c0.7,0.4,1.4,0.9,2,1.5c0.7-0.8,0.6-3,0.1-3.8c-1.7-1.2-2-1.2-3.6,0
			c-1.7,2.3-1.2,5.1-2.2,7.5c-0.1,0-0.1,0-0.9-1.7c-0.5-0.7-1-1.5-2.2-3c-0.7-0.5-3-2.6-4.1-2.6c-0.6,1.3-0.8,2.7-0.8,4.2
			c1.2,0.1,2.7,1.3,3.5,1.9C219.1,69.1,219.4,69,219.7,69"/>
		<path class="st1" d="M343,74.2c0.8-1.6,1.2-3.4,1.2-5.2c-0.1,0-0.2,0-0.2,0.1c-0.4,0.7-0.7,1.4-0.9,2.2c-2.3,0.3-2-2.9-2-4
			c0.2-0.6,1.6-3.5,1-4c-0.1,0-0.1,0.1-0.2,0.1c-1.7,3.4-3.9,8.3-0.5,11.4C342,74.7,342.5,74.5,343,74.2"/>
		<path class="st1" d="M290.8,73.4c0,0.2-0.1,0.4-0.1,0.6c0.1,0,0.1,0,0.2,0C290.9,73.8,290.8,73.6,290.8,73.4"/>
		<path class="st1" d="M352.6,72.9c-0.3,0-0.5,0.1-0.8,0.2c0,0,0,0.1,0.1,0.1C352.2,73.1,352.4,73,352.6,72.9"/>
		<path class="st1" d="M396.8,72.6c2.4-0.1,3-1.2,3.3-3.2c0-0.7-0.1-1.4-0.1-2.1c-0.1,0-0.2-0.1-0.3-0.1c-0.1,0-0.2,0.1-0.2,0.1
			c-0.4,1.4-1.9,2.7-3.5,1.3c-1.8-2.6,0.6-6.1,1.7-8.5c0-0.2,0-0.5,0-0.8h-0.3c-2.1,2.8-3.3,6.3-3.2,9.8c0.2,0.4,0.3,0.8,0.3,1.3
			C395.1,71.6,395.3,72.1,396.8,72.6"/>
		<path class="st1" d="M239.4,69.9c0-0.6,0.1-1.1,0.1-1.6c-0.1,0-0.1,0-0.1-1.4c-0.1,0-0.2,0-0.3,0c-0.4,0.3-0.8,0.7-1.1,1.1
			c-2.7-0.4-0.3-5.2-0.2-6.4c-0.1,0-0.1-0.1-0.2-0.1c-1.2,2.2-2,4.5-2.3,6.9c0.2,0.9,0.5,1.7,0.9,2.5
			C238,71.8,238.3,71.3,239.4,69.9"/>
		<path class="st1" d="M404.3,69.2c0.1,0.6,0.2,1.2,0.3,1.9C404.7,70.4,404.6,69.8,404.3,69.2"/>
		<path class="st1" d="M404.3,68.7c0-0.4-0.1-0.7-0.2-1.1C404.1,68.4,404.1,68.4,404.3,68.7"/>
		<path class="st1" d="M239.5,68.3c0-0.5-0.1-1-0.1-1.4C239.4,68.3,239.4,68.3,239.5,68.3"/>
	</g>
	<g>
		<path class="st2" d="M584.6,65.9c0.4-5.1,4.9-7.8,4.4-10.1c-0.8-0.3-1.6-0.3-2.4-0.2c-0.2,0.6-0.2,1.3-0.2,1.9h1.3
			c0,0-0.2,0.4-0.8,1.5c-0.8,1.4-2.7,3.8-3.2,7.1c-0.6,4.2,1.7,8.2,5.7,8c3.3-0.3,5.6-4.1,4.5-9.5c0.5,0.1,1-0.1,1.4-0.5
			c-0.2,3,1.9,3,2.3,3c-0.3,1-0.1,3.8,2,4.5c2.7,0.9,6-1.5,6-1.6c0.3,0.5,0.9,0.8,1.5,0.7c1-0.2,2-0.6,2.9-1.2c0.7,0.7,2.4,0,3-1
			c4.5,0.7,11-8.7,12.4-9.1c0-1.8-0.3-2.2-0.4-2.3c-1.1,0.2-1.4,1-2.1,2c-0.2,0.2-0.9,0.3-0.8-0.4c2.5-8-1.3-15.2-3.7-15.5
			c0.1,3.2,0.5,6.4,1.4,9.6c0.1,0.1,0.2,0.3,0.3-0.2c-0.5-2-0.8-4.1-0.8-6.1c3.4,5.9,2.1,8.7,2,14.8c-0.4,0.6-0.9,1.1-1.5,1.5
			c0-0.8,0.1-2.1-1.4-2.1c-1.7,0.5-2.1,2.9-2,4.2c-0.1,0.3-1.3,0.8-1.8,0.9c-0.1-0.4-0.1-0.8-0.1-1.1c-0.7,0-0.5-0.1-0.7,0.2
			c0,0.4-0.1,0.7-0.3,1c-0.6,0.6-1.4,0.9-2.3,0.8v-1.4c-0.2,0-0.4,0.1-0.6,0.3c-0.2,1.6-1.6,2.7-3.1,2.5c-0.1,0-0.2,0-0.3,0
			c-0.2-0.2,0.4-1.2,0.3-1.6c-1-0.3-4,2.9-7.1,2.9c-1.1-0.1-1.9-1-1.9-2.1c0-0.2,0-0.3,0.1-0.5c3.1-0.7,5.7-1.9,7-3.4
			c1.2-1.4,1.8-3.3,1.5-5.1c-0.2-0.1-5.3-4-9.1,6.3c-0.3,0-2.5,0.5-1.6-4.7c-1.3,0-1.1,1.8-2.1,2.2c-1.1,0.4-1.6-1.2-2.5-1
			c0,0.3-0.5,2.2-0.5,2.3c0,0.1,1.1,0.7,1.2,0.8c0.8,2.5,0.2,6.9-3.5,7.6C587,72.1,584.2,69.9,584.6,65.9z M617.1,64
			c0.1-0.4,0.3-0.8,0.7-1c0.4-0.1,0.8,0.2,1,0.6c0.1,0.3-0.6,0.7-1.1,0.7C617.4,64.3,617.2,64.3,617.1,64L617.1,64z M602.8,60.4
			c1.3-1,2-0.3,2-0.3s0.1,2.5-5.2,4.5C600.4,63.1,601.5,61.6,602.8,60.4L602.8,60.4z"/>
		<path class="st2" d="M606.5,74.4h0.3c0.9-0.4,5.8-3,6.3-3.2v-1.1C613,70.2,607.1,73.1,606.5,74.4z"/>
		<path class="st2" d="M593.1,71.9c-0.2,0.7-0.3,1.3-0.3,2c1.1-0.2,2.3-0.4,3.4-0.7c0.1-0.6,0.2-1.5,0.4-2.1
			C595.4,71.2,594.3,71.5,593.1,71.9z"/>
		<path class="st2" d="M691,73v0.3c2.1,0.6,9.5,0.5,9.7-6.9l1.4-0.3c0.2,1.8,0.8,3,2,3.2c1.7,0.4,3.9-1.6,4.2-1.9
			c0.2,0.5,0.7,0.7,1.2,0.7c0.9,0.1,2.5-0.8,3.5-2.5c0.8,0.5,1.8,0.2,2.3-0.6c0.1-0.1,0.1-0.3,0.2-0.4c4.3-0.2,5.3-9.9,2.9-10.4
			c-1.6-0.3-3,2.9-2.3,4.1c0.5,0.5,1.1,0.4,2.6,0c-0.5,1.4-1.7,3.4-2.9,3.9c-0.1-0.3-0.2-0.9-0.3-1.1c-0.3,0-0.5,0-0.5,0.3
			c0.2,1-0.4,2-1.4,2.2c-0.1,0-0.2,0-0.3,0c0-0.4,0-1.2-0.3-1.2c-0.3,0-0.3,0-0.5,0.3c-0.3,2.2-2.2,3-2.8,2.6
			c-0.1-0.3,0.2-0.8-0.2-1.1c-0.5-0.2-2.3,1.9-3.8,2.6c-1.3,0.6-2.4-0.2-2.3-1.4c7.2-2.4,9.2-7.6,7.8-9c-1.7-1.2-4.1-0.9-5.4,0.7
			c1-1.6,0.7-5.2,0.6-5.3c-0.2-1.4-1.1-4.5-4.7-8.4c-0.1,0-0.1,0.2-0.1,0.2c1.6,8,1.7,9.1,2,9.1c0.6,0-0.9-5.9-0.8-6
			c1,1.4,1.9,2.9,2.8,4.4c0.7,2.2-1.5,7-1.6,7.1s0.1,0.4,0.2,0.3s0.7-0.4,0.8-0.4c-1.3,1.7-2.3,3.7-2.8,5.7
			c-0.4,0.2-0.9,0.3-1.4,0.3c0-0.2-0.8-2.3-2.1-2.1c-1.4,0.5-1.9,2.9-1.6,3.8c0.7,1.2,1.6,0.9,2.5,0.8C698.5,69.8,694.7,72.3,691,73
			z M706.8,58c0.9-0.6,2.2-0.5,3,0.2c0,1.5-4.9,5.1-6.4,5.4C704,61.4,705.1,59.4,706.8,58L706.8,58z M698.1,64.3
			c0-0.1-0.1-0.5,0.6-0.6c0.3,0,0.5,0.2,0.7,0.4C699.2,64.5,698.2,64.4,698.1,64.3L698.1,64.3z"/>
		<path class="st2" d="M712.7,68.7c-0.1-0.2,0.2-0.6,0.1-0.8c-2,1.3-4.2,2.6-6.3,3.9c-0.4,0.5-0.7,1-1,1.5
			C705.6,73.3,712.7,68.8,712.7,68.7z"/>
		<path class="st2" d="M721.8,72.9v-0.2c8.3-1.9,8.3-8.6,8.3-8.6s-1.7,0.6-2.3-0.6c-0.7-1.3,1.1-3.2,1.3-3.2c0.3-0.1,0.6,0,0.9,0.2
			C731.7,62.3,733.3,73.8,721.8,72.9z"/>
		<path class="st2" d="M722.5,52.5c-0.5,0.7-0.2,4.6-0.2,6.7c-1,0.8-0.8-10.3-0.8-11.3h0.5c1.5,2.6,2.5,5.4,3.2,8.3
			c1.7,9.2-2.2,14.9-6,16c-3.3,1.3-6.6,0.4-7.7,0.3v-0.3c0.3,0,10.3-1.7,12.3-7.4C724.4,60.6,724,56.4,722.5,52.5z"/>
		<path class="st2" d="M630.1,70.6c-0.1,0.6-0.1,1.2-0.2,1.8c0.5,0,1,0.1,1.5,0.3c0.5,0,0.7-1.9,0.5-2
			C631.4,70.6,630.7,70.6,630.1,70.6z"/>
		<path class="st2" d="M683,71.6c0,0.1,0,0.2,0.1,0.3c1.9,0.6,10.7,0.3,12.2-6.8c1.3-5.5-0.2-11.3-3.9-15.5c0,0.2-0.3,0.2-0.3,0.4
			c0,0.2,1.1,9.8,1.4,9.8c0.5,0-0.6-7-0.1-7.2c3.2,9,1.6,12.9,1.6,12.9S691.4,69.6,683,71.6z"/>
		<path class="st2" d="M625.6,55.3h0.6c0-0.3-0.3-7.3-0.3-8c0.3,0,3.2,8.6,3.3,8.7c0,0.6-7.6,6.9-5.6,12.2c-0.7,1.1-7.4,2.8-7.6,2.8
			c0,0.1,0,0.3,0.3,0.3c3.9,0.8,8.4-1.4,8.5-1.5c1.3,0.9,3.1,1,4.5,0.2c3.1-1.4,5.4-6.5,6.4-6.2c0.1,0.3,0,1,0.1,1.3
			c1,0.2,3.4-1.1,4.8-3.6c0.9-1.9,1.4-4.1,1.3-6.2c-1.1,0.4-2.2,0.8-3.3,1.4c0.1-2.3,2.6-4.7,5-4c0.1-0.7,0.1-1.4,0.1-2.1
			c-1.2-0.7-2.8-0.7-3.9,0.2c-2.5,1.7-3.6,8.2-3,8.8c0.3,0,1.5-1.1,3.8-2c0.2,2-2.3,4.6-4.1,5.1c-0.1-0.5-0.2-1-0.5-1.5
			c-2.1-0.3-5.5,8.6-9.3,7.1c0.5-0.6,4.9-3,3.8-12c1.5-2.4,2-4.3,1.6-4.7c-0.6,1.1-1.3,2.1-2,3.1c-0.2-0.9-2.7-8.6-4.7-11.4h-0.9
			C624.5,44.2,625.5,54,625.6,55.3z M624.8,67.7c-1.2-3.1,4.2-9.7,4.7-9.9C629.9,59.8,627.6,66.1,624.8,67.7L624.8,67.7z"/>
		<path class="st2" d="M687.6,68.2c0.3,0.4,1.3-0.3,1.6,0c0.3,0.3-1.9,1.2-1.9,1.3c0.4,0.4,2.2-0.3,2.4-1.2c0.3-0.8,0-1.5-0.5-1.6
			c-0.1-0.1-1,0.6-1.1,0c-0.1-0.6,1-1,1.1-1c0.2-0.2,0.1-1.2,0-1.8c-0.1,0.1-0.2,0.2-0.3,0.3c-0.3,0.4-0.6,0.8-0.9,1.1
			C688,65.4,686.8,67.5,687.6,68.2z"/>
		<path class="st2" d="M677.3,67.9v0.6c0.3,0,6.9,1.1,10.6-3.2c3.4-3.4,1.7-16.4-3.7-20.2c-0.4,0.4,2.2,11,2.3,10.8
			c0.1-0.1,0.2-0.2,0.3-0.3c-0.2-1.7-1.5-6.6-1.2-6.6s4.3,8.5,2.7,11.7C687.7,62.6,682.7,67.7,677.3,67.9z"/>
		<path class="st2" d="M680.5,45.9c1.3,5.1-4.5,8.3-5.8,13.6c-1.1,4.6,1.7,6,4,5.6c4.7-0.6,4.4-7.3,4.3-7.4
			c-0.4-1.7-1.4-1.9-2.8-2.3c-0.4,0.6-0.6,1.3-0.7,2c2.3,0.2,3.2,1.3,2.8,2.6c-0.1,0.3-1.5,2.7-3.6,3c0,0-3.6,0.6-3-3.5
			c0.6-4.9,7.2-8.1,5-13.9C680.7,45.6,680.3,45.2,680.5,45.9z"/>
		<path class="st2" d="M643,62.5v2c1.4-0.5,2.8-1.5,3.5-1.8c-0.1-0.1,0-1.9-0.1-1.9C645.2,61.2,644.1,61.7,643,62.5z"/>
		<path class="st2" d="M677.6,60.4c0.6,0.2,1.3,0.3,2,0.3c0.3-0.6,0.4-1.3,0.3-2l-2-0.3C677.9,59.1,677.5,59.8,677.6,60.4z"/>
		<path class="st2" d="M601.1,53.5c-0.3-1.8-2.6-5.1-3.7-6.5c-0.2,0-0.1,0.1-0.3,0.3c0.2,1.8,1,7.2,1.1,8c0.1,0.1,0.2,0.2,0.3,0.3
			c0-1.4-0.4-3.3-0.3-4.7c1.6,2.2,2.5,5,1.5,9.3h0.5C601.2,58.1,601.5,55.7,601.1,53.5z"/>
		<path class="st2" d="M653.3,54.7c-0.9,3.7-3.5,1.5-3.5,1.5c-5.8-5.8,3.3-17.4,7.3-25c0.9-1.6,1.4-3.4,1.5-5.3c0,0-0.3-1-0.5,0
			c-1.2,7.7-8.9,13.3-10.8,20.5c-2.8,9,3.4,13.9,6.3,12c1.8-1.3,1.5-8.7,3.4-8.3c0.1,0.1,1.3,2.5,3.4,2.5c1.6,4.1,6.4,4.3,7.7,4
			c7.6-1.3,6.6-9.3,6.6-10.5c-0.3-7.5-8.6-14.2-10.4-18.3c-0.4-0.8-0.9-2.3-1.1-2.5c-0.2-0.2,0,0-0.8,0c0,3.7,0,12.4,0.1,12.9
			c-1.5,1-2.6,2.4-3.3,4c-0.9,2.7-0.8,5.7,0.3,8.3c-0.8-0.7-1.3-1.5-1.7-2.4C654.8,45.2,653.3,54.7,653.3,54.7z M664.2,49.3
			c3.2,2.3,7.7-1.3,6.5-5.5c-1.9-7.2-7.3-5.9-7.3-5.9v-9.1c1.9,4.1,6.9,9.4,8.4,12.3c3.2,4.7,0.2,11.5-2.9,12.7
			c-2.5,1.2-5.4,0.6-7.3-1.3C663.9,52.1,664.2,49.3,664.2,49.3z M660.5,50.5c-1.7-1.7-1.4-9,2.9-10.3c5.4-0.6,6.9,5.7,5.4,6.9
			s-3.2,1.2-4,0.5c-0.4-0.4-1.4-6.3-1.4-6.5c-0.2,0-1.1,1.3-1.1,1.4c0.7,2.8,1,2.8,1.2,5.4C663.2,49.4,661.9,50.5,660.5,50.5
			L660.5,50.5z"/>
		<path class="st2" d="M616.8,55.9c0-0.6-0.1-1.2-0.2-1.8c-1.1,0-2.1,0.4-3,1c0,0.7,0,1.4,0.2,2.1C614.8,56.9,615.8,56.5,616.8,55.9
			z"/>
		<path class="st2" d="M594.5,49.9c0.2,1-1.4,1.7-1.8,2.2c1.6-0.3,3.3-1.2,2.2-4c-1,0-2,0.5-2.6,1.4c0,0.5,0.1,1.1,0.3,1.6
			C592.7,51.1,594.4,49.9,594.5,49.9z"/>
		<path class="st2" d="M632.5,50.7c0.1,0,5.3-1.7,5.4-6.5c0-0.1-0.3-1.5-1.2-1.4c-0.7,0.5-1,1.4-0.9,2.2c0.2,0.4,0.5,0.3,0.8,0.5
			c-0.3,1.8-4.2,4.6-4.5,4.7C632.2,50.7,632.2,50.7,632.5,50.7z"/>
		<path class="st2" d="M676.2,50c0.4,0.6,1.4,0.2,1.4-0.1c1,0.6,1.5-0.7,1.5-0.8c0-0.9-0.3-1.7-0.9-2.3c-0.1,0.3-0.2,0.6-0.3,0.9
			c0.6,0.2,0.9,1.2,0.3,1.2c-0.3-0.1-0.2-0.7-0.3-0.9c-0.2,0-0.4,0.1-0.5,0.3c0,0.4,0.1,0.9-0.3,1.2c-0.3,0-0.3,0-0.3-1.7h-0.6
			C676.1,47.8,675.8,49.4,676.2,50z"/>
		<path class="st2" d="M680.8,42.8c0.1-0.4,0.2-0.8,0.2-1.2c-0.1,0.1-4.3,3.6-4.5,3.6c0.1,0.2-0.2,0.9-0.2,1.1
			C677.9,45.3,679.3,44.1,680.8,42.8z"/>
		<path class="st2" d="M659.9,34.8c-0.1,0-0.2,0.1-0.2,0.2c-0.1,0.2-0.1,1.3-0.3,1.5s-0.4,0.2-0.6,0c-0.1-0.6,0-1,0-1.6
			c-0.4-0.1-0.8,1.9-0.3,2.5c0.7,0.7,1.6-0.3,1.8-0.6c0.3,0.2,1.5-0.3,0.9-3.2c-0.2-0.2-0.3-0.2-0.6,0c-0.1,0.4,0.5,1.9-0.2,1.9
			C659.9,35.5,660,34.9,659.9,34.8z"/>
		<path class="st2" d="M658.5,30.2c0.3,0.5,1.3,1.8,1,3.2c0,0.2,0.1,0.3,0.2,0.3c0.5-1.5,0.3-3.1-0.4-4.4
			C659,29.5,658.5,30.1,658.5,30.2z"/>
		<polygon class="st2" points="718,52.5 715.1,54.2 715.1,52 717.9,50.5 		"/>
		<path class="st2" d="M618.4,302.1l-0.9-0.7c0,0-0.1-0.1-0.1-0.1c0-0.1,0-0.1,0-0.2l0.2-0.6l0.2-0.4l0.2-0.4l-0.6,0.3l-0.4,0.3
			c-0.1,0-0.1,0-0.2,0h-0.1l-0.1,0l0-0.1c-0.3-0.4-0.6-0.8-0.9-1.2l-0.3-0.3l-0.2-0.2c0.4-0.4,0.8-0.7,1.1-1c0.3-0.2,0.6-0.4,1-0.6
			c0.2,0,0.4-0.1,0.5-0.1h0.8h0.9l0.1-0.2l0.1-0.3c0.1,0,0.3-0.2,0.8-0.4c0.3-0.1,0.5-0.2,0.6-0.3l0,0v0v0.1
			c-0.1,0.1-0.3,0.7-0.8,1.5l-1.1,1.8c-0.1,0.1-0.1,0.2-0.1,0.3c0,0.1,0,0.1,0,0.2l0.6,0.5L618.4,302.1z M618.5,298.9
			c0.1-0.2,0.2-0.3,0.3-0.5l0.3-0.6H619l-0.2,0.1l-0.3,0.1H618h-0.3v0.1l0.1,0.3l0.3,0.3L618.5,298.9z M622,295.3l-0.7,0.1l-0.8,0.1
			l-0.2-0.5c-0.1-0.3-0.2-0.6-0.2-0.8l-0.6,0.1l-0.4,0.1l-0.2-0.5c-0.1-0.3-0.2-0.6-0.2-0.9c0.3-0.1,0.5-0.2,0.8-0.2l0.7-0.1
			c0,0.3,0.1,0.6,0.1,0.9l0.1,0.5l0.7-0.1l0.4-0.1c0,0.3,0.1,0.6,0.2,0.9L622,295.3z"/>
		<path class="st2" d="M620.4,306.1l-0.6,0.2l-0.8,0.2l-0.2-0.5c-0.1-0.3-0.2-0.5-0.3-0.8l-0.6,0.2l-0.4,0.1l-0.2-0.5
			c-0.1-0.3-0.2-0.6-0.3-0.9c0.3-0.1,0.5-0.2,0.8-0.3l0.7-0.2c0,0.3,0.1,0.6,0.2,0.9l0.2,0.5l0.4-0.1l0.3-0.1l0.4-0.1
			c0,0.3,0.1,0.6,0.2,0.9L620.4,306.1z M622.9,301.4l-0.4,0.5l-0.4,0.5l-0.1,0.1h-0.1l-0.1,0.1l-0.2,0.1l-0.2,0.2l-0.5,0.3l-0.5,0.3
			l-2-1.4l1.3-1.9l1.7,1.2c0,0,0.1,0,0.1-0.1v-0.1v-0.1c0,0,0-0.1,0-0.1l0-0.3c0-0.4,0-0.7,0-1.1c0.1-0.1,0.2-0.2,0.3-0.2l0.3-0.2
			l0.3-0.1c0.2-0.2,0.5-0.3,0.7-0.4c0.1,0.4,0.1,0.7,0,1.1l-0.1,0.4l-0.1,0.4C623,300.9,623,301.1,622.9,301.4L622.9,301.4z"/>
		<path class="st2" d="M626.3,304.7l-0.1,0.2c0,0.1-0.1,0.1-0.1,0.2l-0.2,0.2l-0.3,0.3l-0.3,0.3c-0.1,0.1-0.2,0.1-0.3,0l-2.2-1.4
			c-0.1,0-0.1-0.1,0-0.1l0.2-0.3l0.1-0.1l0.1-0.1l0.4-0.5c0.1-0.1,0.2-0.3,0.3-0.4l0.1-0.1l0.3-0.3l1.9,1.2c0.1-0.4,0.2-0.8,0.1-1.2
			c-0.1-0.4-0.2-0.7-0.4-1c0.1-0.1,0.3-0.4,0.7-0.7l0.4-0.4l0.2-0.2c0.3,0.4,0.4,0.8,0.4,1.3c0,0.7-0.1,1.4-0.4,2l-0.2,0.4l-0.2,0.4
			l0,0.1v0.1v0.1L626.3,304.7z"/>
		<path class="st2" d="M630.7,308.8l-1.1-0.6c-0.2,0.3-0.4,0.5-0.7,0.7c-0.1,0.1-0.2,0.2-0.3,0.2l-0.2,0.1l-0.2,0.1h-0.1l-0.1,0
			c-0.1,0-0.2,0.1-0.3,0.1c-0.1,0-0.3,0-0.4,0l-0.3-0.1c-0.4-0.2-0.7-0.5-1.1-0.8c-0.3-0.3-0.6-0.6-0.8-0.9v-0.1
			c0.2,0.1,0.5,0.3,0.8,0.4c0.3,0.1,0.6,0.2,0.9,0.2c0.3,0,0.7,0,1-0.1l0.3-0.1l0.2-0.1l0.3-0.1l0.3-0.2h-0.2l-0.3-0.1l-0.1-0.1
			c-0.2-0.1-0.4-0.3-0.5-0.5c-0.1-0.2-0.1-0.4-0.1-0.7l0.1-0.2l0.1-0.2c0.2-0.3,0.4-0.6,0.6-0.9l0.3-0.3c0.1-0.1,0.2-0.2,0.3-0.3
			c0.2-0.2,0.5-0.4,0.7-0.6c0.2-0.1,0.4-0.2,0.6-0.3c0.2-0.1,0.4-0.1,0.6,0c0.2,0.1,0.3,0.2,0.3,0.4c0,0.2,0,0.4,0,0.6
			c0,0.3-0.1,0.6-0.2,0.9l-0.2,0.5c0,0.1-0.1,0.3-0.2,0.4l0.9,0.5L630.7,308.8z M629.9,305.8c0-0.1,0-0.2,0-0.3c0-0.1,0-0.2,0-0.3
			V305l-0.1-0.1c-0.1,0-0.2,0-0.2,0c-0.1,0-0.2,0-0.2,0.1c0,0,0,0.1,0,0.3c0,0.1,0.1,0.2,0.2,0.3l0.1,0.1l0.1,0.1L629.9,305.8z"/>
		<path class="st2" d="M634.3,310.3l-1.4-0.6v-0.1v-0.4c0-0.1,0-0.3,0-0.4l-0.6,0.7l-1.6-0.7l0.9-2.1l1.4,0.6c0-0.1,0-0.2,0-0.3
			v-0.1v-0.1l-0.1-0.1l-0.2-0.2l-0.2-0.1l-0.3-0.1l-0.2-0.1c0.2-0.2,0.4-0.4,0.6-0.6l0.6-0.6c0.5-0.1,0.9-0.1,1.4,0.1
			c0.3,0.1,0.6,0.4,0.7,0.7c0.2,0.4,0.2,0.9,0.1,1.3c-0.1,0.2-0.3,0.4-0.5,0.5l-0.3,0.3l0.7,0.3L634.3,310.3z"/>
		<path class="st2" d="M640.1,312.5l-1-0.4c0,0-0.1,0-0.1-0.1v-0.3l-0.2,0.2c-0.1,0.1-0.1,0.1-0.2,0.1l-1.3-0.5
			c-0.1,0-0.1-0.1-0.2-0.4l-0.2,0.1c-0.1,0-0.1,0-0.2,0l-1.4-0.5l-0.1-0.1l-0.1-0.3l-0.2,0.1h-0.2l-0.6-0.2l0.8-2.1l0.7,0.3
			c0,0,0.1,0,0.2-0.2l0.1-0.2l0.5-0.5l0.2-0.2l0.3-0.2c0.2-0.1,0.3-0.1,0.3-0.1l0,0v0.1v0.1v0.1v0.1c0,0.1-0.1,0.2-0.1,0.2l-0.1,0.2
			l-0.3,0.3l-0.5,0.7l1.2,0.4l0.1-0.1l0.2-0.2l0.1-0.3l0.4-0.4l0.6-0.5l0.1,0h0.2c0,0.1,0,0.1-0.1,0.2l-0.1,0.2l-0.1,0.3l-0.2,0.3
			c-0.1,0.2-0.3,0.5-0.5,0.7l0.8,0.3l0.3-0.8c0.1-0.1,0.3-0.1,0.4-0.3l0.4-0.3l0.1-0.1h0.1l-0.1,0.5l-0.1,0.5l-0.1,0.3
			c0,0.1-0.1,0.2-0.1,0.4c0,0.1,0,0.1,0.1,0.2l0.7,0.3L640.1,312.5z"/>
		<path class="st2" d="M644.7,307.9l-1.2,1l-0.1,0.5l-0.1,0.3l-0.1,0.4l-0.2,0.7l-0.1,0.3l-0.1,0.2l-0.4,0.8
			c-0.1,0.2-0.2,0.4-0.3,0.6c-0.1,0.1-0.2,0.2-0.4,0.1l-1.7-0.5l0.6-2.2l1.5,0.4h0.1l0,0c0.1-0.5,0.2-1,0.3-1.5
			c0.1-0.4,0.1-0.8,0.1-1.2v-0.1c0-0.1,0-0.1,0-0.2c0-0.1-0.1-0.3-0.1-0.4c0.1-0.2,0.3-0.4,0.5-0.7c0.3-0.3,0.6-0.6,0.9-0.8l0.1,0.1
			l0,0.1v0.1v0.1c0,0.1,0,0.1,0,0.2l0.5,0.9L644.7,307.9z"/>
		<path class="st2" d="M646.3,311.4c-0.1,0.3-0.2,0.7-0.3,1c-0.1,0.2-0.2,0.4-0.3,0.6l-0.8,0.9l-0.1-0.1c0.1-0.6,0.2-1.1,0.3-1.7
			l0.3-2.1l0.1-1l0.1-0.7l0.6-0.7l0.8-1l0.1,0.1l0,0.2l-0.1,0.3l-0.1,0.5l-0.2,1v0.2v0.2l-0.1,0.5l-0.1,0.3l-0.1,0.3L646.3,311.4z"
			/>
		<path class="st2" d="M656.6,315.1l-1.1-0.1c0,0-0.1,0-0.1,0c0,0,0-0.1-0.1-0.1l-0.2-0.6l-0.1-0.4l0-0.5l-0.3,0.6l-0.2,0.4
			c0,0.1-0.1,0.1-0.2,0.1h-0.1h-0.1H654c-0.5-0.2-1-0.4-1.4-0.5l-0.4-0.1l-0.3-0.1c0.1-0.5,0.3-1,0.4-1.4c0.1-0.4,0.3-0.7,0.5-1
			c0.1-0.1,0.3-0.2,0.4-0.4l0.7-0.4l0.8-0.5V310v-0.3c0-0.1,0.2-0.3,0.5-0.8c0.2-0.3,0.3-0.5,0.4-0.6l0,0l0,0l0,0
			c0,0.2,0.1,0.7,0.1,1.8l0.1,2.1c0,0.1,0,0.2,0.1,0.3c0,0.1,0.1,0.1,0.1,0.1l0.7,0.1L656.6,315.1z M656,307.5l-0.5,0.5l-0.6,0.6
			l-0.4-0.3c-0.2-0.2-0.4-0.4-0.6-0.6l-0.4,0.4l-0.3,0.3l-0.5-0.4c-0.2-0.2-0.5-0.4-0.7-0.6c0.2-0.2,0.4-0.4,0.6-0.6l0.5-0.5
			c0.2,0.2,0.4,0.5,0.6,0.7l0.3,0.3l0.5-0.5l0.3-0.3c0.2,0.3,0.4,0.5,0.6,0.7L656,307.5z M655,312.5c0-0.2,0-0.4,0-0.6l-0.1-0.6
			l-0.1,0.1l-0.2,0.2l-0.2,0.2l-0.3,0.2l-0.3,0.2h0.1l0.3,0.1l0.3,0.1L655,312.5z"/>
		<path class="st2" d="M660.5,317l-0.4,0.5l-0.5,0.6l-0.4-0.3c-0.2-0.2-0.5-0.4-0.7-0.5l-0.4,0.5l-0.3,0.3l-0.5-0.3
			c-0.2-0.2-0.5-0.4-0.7-0.6c0.2-0.2,0.3-0.5,0.5-0.7l0.5-0.5c0.2,0.2,0.4,0.4,0.6,0.6l0.4,0.3l0.3-0.3l0.2-0.2l0.3-0.3
			c0.2,0.3,0.4,0.5,0.7,0.7L660.5,317z M660.4,315.3l-1.3-0.1h-0.2h-0.1c-0.1-0.1-0.2-0.1-0.2-0.2l-0.1-0.1l-0.1-0.2l-0.1-0.3
			l-0.2,0.3l-0.3,0.5l-1.2-0.1l0.1-2.3l1.5,0.1v-0.2v-0.3v-0.8l0.5-0.5c0.2-0.2,0.4-0.5,0.7-0.7l0.1,0.2v0.3v0.4v0.4v0.4v0.4v0.2
			v0.2c0,0.1,0.1,0.1,0.2,0.2l1,0.1L660.4,315.3z"/>
		<path class="st2" d="M663.7,312.1v0.6l-0.1,0.7v0.1v0.1v0.2l-0.1,0.2l-0.1,0.3l-0.2,0.5l-0.2,0.5h-2.5V313h2.1c0,0,0,0,0-0.1v-0.1
			v-0.1c0,0,0-0.1,0-0.1l-0.1-0.3c0-0.1-0.2-0.4-0.6-0.9c0-0.1,0-0.2,0-0.4l0.2-0.4l0.1-0.3c0.1-0.3,0.2-0.5,0.4-0.8
			c0.3,0.2,0.5,0.6,0.6,0.9l0.1,0.4l0.1,0.4C663.6,311.7,663.6,311.9,663.7,312.1z M663.3,317.4l-0.4,0.5l-0.5,0.6l-0.5-0.3
			c-0.3-0.2-0.5-0.4-0.7-0.6c0.1-0.2,0.3-0.5,0.5-0.7l0.5-0.5c0.2,0.2,0.4,0.5,0.7,0.6L663.3,317.4z"/>
		<path class="st2" d="M670,314.3l-1,0.1c-0.1,0-0.1,0-0.2,0h-0.1h-0.1c0,0.1,0,0.2-0.1,0.3l-0.1,0.3l-0.1,0.3l-0.1,0.3
			c-0.1,0.2-0.2,0.3-0.3,0.5c-0.1,0.2-0.2,0.3-0.3,0.5c-0.1,0.1-0.2,0.2-0.3,0.3c-0.1,0.1-0.3,0.2-0.5,0.2c-0.4-0.1-0.9-0.2-1.3-0.4
			c-0.5-0.2-0.9-0.5-1.2-0.9v0h0.1c0.2,0.1,0.3,0.1,0.5,0.1h0.3h0.3c0.2,0,0.4-0.1,0.6-0.1c0.1,0,0.2-0.1,0.2-0.1l0.1-0.1l0.2-0.1
			c0.3-0.3,0.5-0.5,0.8-0.8l0.1-0.2l0.1-0.2c0-0.1,0.1-0.2,0.1-0.3v-0.1v-0.1v-0.2c0-0.1,0-0.1-0.1-0.2c0-0.1-0.1-0.2-0.1-0.2
			l-0.3-0.5l-0.2-0.3l-0.2-0.3l0.1-0.3l0.2-0.5c0.1-0.3,0.2-0.5,0.4-0.8l0.4,0.6l0.3,0.5c0.2,0.2,0.3,0.4,0.6,0.6h0.1h0.1h0.3h0.6
			L670,314.3z"/>
		<path class="st2" d="M673.9,313.7l-1.5,0.2l-0.1-0.1l-0.2-0.3c-0.1-0.1-0.1-0.3-0.2-0.4l-0.2,0.9l-1.8,0.2l-0.3-2.3l1.5-0.2
			c0-0.1-0.1-0.2-0.2-0.2l-0.1-0.1l-0.1-0.1h-0.1l-0.2-0.1h-0.2l-0.3,0.1h-0.2c0-0.3,0.1-0.6,0.2-0.8l0.2-0.8
			c0.3-0.4,0.7-0.6,1.2-0.7c0.4-0.1,0.7,0,1,0.3c0.4,0.3,0.6,0.7,0.8,1.1c0,0.2-0.1,0.5-0.1,0.7l-0.1,0.4l0.7-0.1L673.9,313.7z"/>
		<path class="st2" d="M676,307.7l-0.6,1.4l0.1,0.5l0.1,0.3l0.1,0.4l0.2,0.7l0.1,0.3v0.2v0.9c0,0.2,0,0.4,0,0.7c0,0.1,0,0.1-0.1,0.2
			c0,0.1-0.1,0.1-0.2,0.1l-1.8,0.3l-0.4-2.2l1.5-0.3l0,0l0,0c-0.1-0.5-0.2-1-0.4-1.5c-0.1-0.4-0.3-0.8-0.5-1.1l-0.1-0.1
			c0-0.1-0.1-0.1-0.1-0.2c-0.1-0.1-0.2-0.2-0.3-0.3c0-0.3,0.1-0.5,0.2-0.8c0.1-0.4,0.2-0.7,0.4-1.1l0.1,0.1v0.1v0.1l0.1,0.1
			c0,0.1,0.1,0.1,0.2,0.2l0.8,0.5L676,307.7z"/>
		<path class="st2" d="M678.9,310.1c0.1,0.3,0.1,0.7,0.2,1.1c0,0.2,0,0.5,0,0.7l-0.3,1.1l-0.1,0c-0.1-0.6-0.3-1.1-0.5-1.6l-0.7-2
			l-0.3-1l-0.2-0.6l0.2-0.8l0.3-1.3l0.1,0.1l0.1,0.2l0.1,0.3l0.2,0.4l0.3,1l0.1,0.2l0.1,0.2l0.1,0.4l0.1,0.3l0.1,0.3L678.9,310.1z"
			/>
		<path class="st2" d="M684.9,302.6l-0.2,0.6l-0.3,0.8l-0.5-0.1c-0.3-0.1-0.6-0.1-0.8-0.2l-0.2,0.6l-0.2,0.4l-0.6-0.1
			c-0.3-0.1-0.6-0.2-0.9-0.3c0-0.3,0.1-0.6,0.2-0.8l0.2-0.7c0.3,0.1,0.5,0.3,0.8,0.3l0.5,0.1l0.2-0.7l0.2-0.4
			c0.3,0.2,0.6,0.3,0.9,0.4L684.9,302.6z M688.9,309.2l-1,0.4c0,0-0.1,0-0.1,0c0,0-0.1,0-0.1-0.1l-0.4-0.5l-0.2-0.3l-0.3-0.4v1.2
			c0,0.1,0,0.1-0.1,0.2l-0.1,0.1l-0.1,0h-0.1c-0.5,0-1,0.1-1.5,0.2l-0.4,0.1l-0.3,0.1c-0.1-0.5-0.2-1-0.3-1.4
			c-0.1-0.4-0.1-0.8,0-1.2c0.1-0.2,0.1-0.3,0.2-0.5l0.4-0.7l0.5-0.8l-0.1-0.2l-0.2-0.3c0-0.1,0-0.4,0.1-0.9c0-0.2,0-0.4,0.1-0.7l0,0
			l0,0l0,0c0.1,0.1,0.4,0.6,0.9,1.5l1,1.8c0.1,0.1,0.1,0.2,0.2,0.3c0.1,0,0.1,0.1,0.2,0.1l0.7-0.3L688.9,309.2z M686.3,307.5
			c-0.1-0.2-0.2-0.3-0.3-0.5l-0.3-0.6v0.1l-0.1,0.2l-0.1,0.3l-0.2,0.3l-0.2,0.3h0.1h0.3l0.3-0.1L686.3,307.5z"/>
		<path class="st2" d="M693.1,307.2l-0.8,0.4c0,0-0.2,0-0.5-0.2l-0.8-0.6v0.7c0,0.2,0,0.5-0.1,0.7l-2,0.9l-0.9-2.1l1.9-0.9l-0.7-0.3
			l-1.3-0.6l-0.8-0.3l-0.1-0.4v-0.2v-0.2l-0.2-1l-0.1-0.5l2.8-2.5c0.1,0.3,0.2,0.6,0.2,0.9c0.1,0.3,0.1,0.5,0.1,0.8l-2.1,2l3.8,1.7
			l0.6-0.3L693.1,307.2z"/>
		<path class="st2" d="M695.4,306.1l-1.2,0.6c-0.1,0-0.2,0-0.4-0.2l-0.3-0.3l0.1,0.4c0,0.1,0,0.2,0,0.3c0,0,0,0.1,0,0.1l-0.1,0.1
			l-0.4,0.2l-1-2l0.7-0.3l0,0v-0.1c-0.2-0.3-0.3-0.7-0.6-1c-0.1-0.2-0.2-0.3-0.3-0.4l-0.3-0.4l-0.4-0.5l-0.1-0.2
			c0,0-0.1-0.1-0.1-0.1l-0.1-0.1l0-0.9c0-0.3,0-0.6,0-1c0.1,0.1,0.2,0.1,0.3,0.3l0.3,0.5l2.2,3.4l0.7-0.4L695.4,306.1z"/>
		<path class="st2" d="M699.2,303.9l-0.8,0.5c0,0.1,0.1,0.2,0.1,0.4c0,0,0,0.1,0,0.1v0.2c-0.1,0-0.3,0-0.4,0l-0.6-0.1l-1.6-0.3
			c0,0.1,0,0.2,0,0.3c0.1,0.2,0.1,0.5,0.1,0.7c0,0.1,0,0.1-0.1,0.2l-0.1,0.1l-0.2,0.1l-1.1-2l0.6-0.4l-0.1-0.5
			c0-0.2-0.1-0.5-0.1-0.7c0-0.4,0.1-0.8,0.3-1.1c0.1-0.1,0.2-0.3,0.3-0.4l0.1-0.1l0.2-0.1c0.1,0,0.1,0,0.2,0c0.1,0,0.1,0,0.2,0.1
			l0.1,0.2c0.1,0.2,0.2,0.3,0.3,0.5l0.1,0.1l0.1,0.1l0.2,0.2c0.2,0.2,0.5,0.3,0.8,0.4l0.4-0.2L699.2,303.9z M696.4,302.9
			L696.4,302.9l-0.1-0.2l-0.1-0.1l-0.1-0.1c-0.1-0.1-0.2-0.2-0.3-0.2h-0.1c-0.1,0-0.1,0.1-0.2,0.2c0,0.1-0.1,0.2,0,0.3h0.5
			L696.4,302.9z"/>
		<path class="st2" d="M702.8,301.6l-0.8,0.5c0,0.1,0.1,0.2,0.1,0.3c0,0,0,0.1,0,0.1v0.2c-0.1,0-0.3,0-0.4,0H701l-1.7-0.2
			c0,0.1,0,0.2,0,0.3c0.1,0.2,0.1,0.4,0.2,0.7c0,0.1,0,0.1,0,0.2l-0.1,0.1l-0.2,0.1L698,302l0.6-0.4l-0.2-0.5
			c-0.1-0.2-0.1-0.5-0.1-0.7c0-0.4,0.1-0.8,0.2-1.1c0.1-0.1,0.2-0.3,0.3-0.4l0.1-0.1c0.1-0.1,0.1-0.1,0.2-0.2c0.1,0,0.1,0,0.2,0
			c0.1,0,0.1,0,0.2,0.1l0.1,0.2c0.1,0.1,0.2,0.3,0.3,0.4l0.1,0.1l0.1,0.1l0.2,0.1c0.3,0.2,0.5,0.3,0.8,0.3l0.4-0.2L702.8,301.6z
			 M700,300.7L700,300.7l-0.1-0.2l-0.1-0.1l-0.1-0.1c-0.1-0.1-0.2-0.1-0.3-0.2h-0.1c-0.1,0-0.1,0.1-0.2,0.2c0,0.1,0,0.2,0,0.3
			L700,300.7L700,300.7z"/>
		<path class="st2" d="M702,295.2l0.1,1.5l0.3,0.4l0.2,0.3l0.3,0.3l0.5,0.6l0.2,0.3l0.1,0.2l0.4,0.8c0.1,0.2,0.2,0.4,0.3,0.6
			c0,0.1,0,0.1,0,0.2c0,0.1-0.1,0.1-0.1,0.2l-1.5,1.1l-1.4-1.8l1.2-0.9v-0.1c-0.3-0.4-0.6-0.8-1-1.2c-0.3-0.3-0.6-0.6-0.9-0.8
			l-0.1-0.1c-0.1,0-0.1-0.1-0.2-0.1c-0.1-0.1-0.2-0.1-0.4-0.1c-0.1-0.3-0.2-0.5-0.2-0.8c-0.1-0.4-0.1-0.8-0.1-1.2h0.1l0.1,0.1
			l0.1,0.1l0.1,0.1c0.1,0,0.1,0.1,0.2,0.1l1,0.1L702,295.2z"/>
		<path class="st2" d="M705.7,296.1c0.2,0.3,0.4,0.6,0.6,0.9c0.1,0.2,0.2,0.4,0.3,0.6l0.2,1.1h-0.1c-0.4-0.4-0.7-0.9-1.2-1.3
			l-1.5-1.5l-0.7-0.7l-0.4-0.5l-0.2-0.9l-0.3-1.3h0.2l0.2,0.2l0.2,0.2l0.3,0.3l0.7,0.8l0.1,0.2l0.1,0.2l0.3,0.3l0.2,0.3l0.2,0.2
			L705.7,296.1z"/>
		<path class="st2" d="M686.9,215.8l-0.5,0.6l-0.6,0.8l-0.5-0.3c-0.3-0.2-0.6-0.4-0.8-0.6l-0.5,0.6l-0.3,0.4l-0.6-0.4
			c-0.3-0.2-0.6-0.4-0.9-0.7c0.2-0.3,0.4-0.6,0.6-0.9l0.6-0.7c0.2,0.3,0.5,0.5,0.8,0.7l0.5,0.3l0.5-0.7l0.3-0.4
			c0.3,0.3,0.5,0.6,0.9,0.8L686.9,215.8z M688.7,224.9h-1.4c-0.1,0-0.1,0-0.2,0c-0.1,0-0.1-0.1-0.1-0.1l-0.3-0.7l-0.1-0.5l-0.1-0.6
			l-0.3,0.8l-0.2,0.6c0,0.1-0.1,0.1-0.2,0.2l-0.1,0.1h-0.1h-0.1c-0.6-0.2-1.2-0.3-1.8-0.4h-0.4H683c0.1-0.6,0.2-1.2,0.3-1.8
			c0.1-0.5,0.3-0.9,0.5-1.3c0.1-0.2,0.3-0.3,0.5-0.5l0.7-0.6l0.9-0.7l-0.1-0.3l-0.1-0.4c0-0.1,0.2-0.4,0.5-1
			c0.2-0.4,0.3-0.6,0.4-0.7l0,0h0.1v0.1c0,0.2,0.2,0.9,0.4,2.1l0.4,2.5c0,0.1,0.1,0.3,0.1,0.4c0,0.1,0.1,0.1,0.2,0.2h0.9
			L688.7,224.9z M686.4,221.9c0-0.2,0-0.5-0.1-0.7l-0.2-0.8l-0.1,0.1l-0.2,0.2l-0.2,0.3l-0.3,0.3l-0.3,0.2l0.1,0.1l0.3,0.1h0.4
			L686.4,221.9z"/>
		<path class="st2" d="M697.2,224.9h-5.7h-0.2c-0.1-0.1-0.2-0.1-0.3-0.2l-0.1-0.2l-0.1-0.2l-0.2-0.4l-0.2,0.4l-0.3,0.6h-1.5v-2.8
			h1.8l-0.1-0.3v-0.4v-1l0.5-0.7c0.2-0.3,0.5-0.6,0.7-0.9l0.1,0.3l0.1,0.3v2.1v0.2c0,0.1,0.1,0.2,0.2,0.2h5.1L697.2,224.9z
			 M692.3,216.9l-0.5,0.6l-0.6,0.8l-0.6-0.4c-0.3-0.2-0.6-0.4-0.9-0.7c0.2-0.3,0.4-0.6,0.6-0.9l0.6-0.7c0.3,0.3,0.5,0.6,0.9,0.8
			L692.3,216.9z"/>
		<path class="st2" d="M703.2,222.1c0,0.1,0,0.3,0,0.4v0.2c0,0.1,0,0.1,0,0.2l-0.1,0.3l-0.1,0.3l-0.3,1c0,0.1-0.1,0.2-0.2,0.3
			c-0.1,0.1-0.1,0.1-0.2,0.2h-1.7h-0.1l-0.3-0.3l-0.2,0.2c0,0.1-0.1,0.1-0.2,0.1h-1.6l0,0l-0.1-0.1v-0.2l-0.3,0.4h-0.7v-2.8h0.7
			l0.1-0.5l0.1-0.5v-0.1l0.1-0.2l0.4-0.5c0.2-0.3,0.4-0.5,0.6-0.7c0.1,0,0.1,0.1,0.1,0.2c0,0.1,0,0.3,0,0.4c0,0.1,0,0.2,0,0.2
			c0,0.1,0,0.2-0.1,0.2l-0.2,0.8v0.2v0.3h1.3l0-0.7l0.3-0.6l0.2-0.3c0.2-0.4,0.4-0.6,0.6-0.6v0.1l-0.2,1.2c-0.1,0.3-0.1,0.7-0.1,1
			h0.8v-0.4v-0.6l0.5-0.9c0.3-0.4,0.5-0.7,0.6-0.7c0,0.1,0,0.1,0,0.2c0,0.2,0,0.3,0,0.5v1.3L703.2,222.1L703.2,222.1z"/>
		<path class="st2" d="M717.2,224.9h-1.3c0,0-0.1-0.1-0.1-0.2l-0.1-0.3l-0.2,0.3c-0.1,0.1-0.1,0.2-0.2,0.2h-1.6h-0.1l-0.3-0.3
			l-0.2,0.2c0,0.1-0.1,0.1-0.2,0.1h-1.2l0,0.4l-0.1,0.3c0,0.2-0.1,0.4-0.2,0.6c-0.1,0.3-0.3,0.7-0.5,0.9c-0.3,0.3-0.7,0.5-1.1,0.7
			c-0.5,0.2-1,0.3-1.5,0.3c-0.2,0-0.3,0-0.5,0c-0.5-0.1-1-0.3-1.3-0.7c-0.3-0.4-0.5-0.8-0.5-1.3c0-0.9,0.3-1.8,0.7-2.5
			c0.3-0.6,0.6-1.2,1.2-1.7h0.1h0.1l-0.3,0.6l-0.2,0.4c-0.1,0.3-0.2,0.7-0.3,1.1v0.3v0.4v0.2c0,0.1,0.1,0.2,0.1,0.3
			c0.2,0.3,0.5,0.4,0.8,0.5h0.4h0.5h0.1h0.2h0.2h0.1l0.2-0.1c0.4-0.1,0.7-0.3,1-0.5v-0.2c0-0.5-0.1-0.9-0.3-1.3
			c-0.2-0.5-0.4-1-0.6-1.4l0.4-0.8c0.3-0.6,0.4-0.9,0.5-1l0.1,0.1l0.3,0.4l0.7,1.5h1.1l0.1-0.7l0.5-0.9c0.1-0.3,0.3-0.5,0.5-0.7
			c0.1,0.2,0.1,0.3,0.1,0.5v0.8l-0.1,1h0.8c0-0.2,0.1-0.3,0.1-0.5c0-0.1,0-0.3,0-0.5l0.3-0.5c0.1-0.1,0.1-0.2,0.2-0.4
			c0.1-0.2,0.2-0.3,0.4-0.4c0.1,0.2,0.1,0.4,0.1,0.5v0.6v1h1L717.2,224.9z"/>
		<path class="st2" d="M725.4,222.1c0,0.1,0,0.3,0,0.4v0.2c0,0.1,0,0.1,0,0.2l0,0.3l-0.1,0.3l-0.3,1c0,0.1-0.1,0.2-0.2,0.3
			c-0.1,0.1-0.1,0.1-0.2,0.2H723h-0.1l-0.3-0.3l-0.2,0.2c0,0.1-0.1,0.1-0.2,0.1h-1.6l0,0l-0.1-0.1v-0.2l-0.3,0.4h-2.9v-2.8h3
			l0.1-0.5l0.1-0.5v-0.1l0.1-0.2l0.4-0.5c0.2-0.3,0.4-0.5,0.6-0.7c0.1,0,0.1,0.1,0.1,0.2c0,0.1,0,0.3,0,0.4c0,0.1,0,0.2,0,0.2
			c0,0.1,0,0.2-0.1,0.2l-0.2,0.8v0.2v0.3h1.3l0.1-0.7l0.3-0.6l0.2-0.3c0.2-0.4,0.4-0.6,0.6-0.6v0.1l-0.2,1.2c-0.1,0.3-0.1,0.7-0.1,1
			h0.8v-0.4v-0.6l0.5-0.9c0.3-0.4,0.5-0.7,0.6-0.7c0,0.1,0,0.1,0,0.2c0,0.2,0,0.3,0,0.5v1.3L725.4,222.1L725.4,222.1z"/>
		<path class="st2" d="M728.5,216.5c0,0.2-0.1,0.3-0.2,0.4l-0.2,0.2c-0.3,0.1-0.5,0.1-0.7,0.2c-0.3,0.2-0.6,0.4-0.8,0.6h-0.1v-0.1
			v-0.1l0.5-0.6l-0.4-0.1c-0.1,0-0.2-0.1-0.2-0.2c0-0.1-0.1-0.2-0.1-0.3c0-0.4,0.2-0.7,0.4-1c0.3-0.4,0.5-0.5,0.8-0.5
			c0.1,0,0.2,0,0.3,0.1c0.1,0.1,0.1,0.2,0.1,0.3v0.1v0.1l-0.1,0.2l-0.2,0.3l-0.2-0.2c-0.1-0.1-0.2-0.1-0.3-0.1h-0.1l0,0l0,0h0
			c0,0-0.1,0.1-0.1,0.1c0,0.1,0,0.1,0.1,0.2l0.3,0.1l0.3,0.1h0.7C728.5,216.5,728.5,216.5,728.5,216.5z M729.1,224.9h-1.9
			c-0.1,0-0.2,0-0.3,0c0,0-0.1-0.1-0.1-0.2v-0.9l0-1.4l-0.1-1.6c-0.1-0.7-0.1-1.2-0.1-1.4l0.6-0.9c0.2-0.2,0.4-0.5,0.6-0.8l0.2,0.4
			c0,0.2,0.1,0.4,0.1,0.6l0.1,0.8v0.5v0.4v0.8v0.9h0.9L729.1,224.9z"/>
		<path class="st2" d="M733.5,216.5l-0.5,0.6l-0.6,0.8l-0.5-0.3c-0.3-0.2-0.6-0.4-0.8-0.6l-0.5,0.6l-0.3,0.4l-0.6-0.4
			c-0.3-0.2-0.6-0.4-0.9-0.7c0.2-0.3,0.4-0.6,0.6-0.8l0.5-0.6c0.2,0.3,0.5,0.5,0.8,0.7l0.5,0.3l0.5-0.7l0.3-0.4
			c0.3,0.3,0.5,0.5,0.9,0.8L733.5,216.5z M734.1,221.1v0.8l-0.1,0.8v0.1v0.1l-0.1,0.2l-0.1,0.2l-0.1,0.3l-0.2,0.6l-0.3,0.7H729v-2.8
			h3.8c0,0,0.1,0,0.1-0.1v-0.1v-0.1c0-0.1,0-0.1-0.1-0.2l-0.1-0.3c-0.2-0.4-0.5-0.7-0.7-1.1c0-0.2,0.1-0.3,0.2-0.5l0.2-0.4l0.2-0.4
			c0.1-0.3,0.3-0.6,0.5-0.9c0.3,0.3,0.6,0.7,0.7,1.1l0.2,0.5l0.2,0.5C734.1,220.5,734.2,220.8,734.1,221.1L734.1,221.1z"/>
		<path class="st2" d="M602.9,221.7c0,0.6-0.1,1.2-0.3,1.7c-0.2,0.6-0.5,0.9-0.8,0.9h-7.4v-2.5h3.9c0-0.6,0.2-1.2,0.5-1.7
			c0.1-0.4,0.3-0.7,0.5-1v-0.4v-0.2v-0.1l0.1-0.2l0.1-0.4l0.1-0.3l0.1-0.2c0.6,0.4,1.1,0.9,1.6,1.4c0.5,0.4,0.8,0.9,1.2,1.5
			C602.7,220.6,602.9,221.2,602.9,221.7z M600.3,220.9c0-0.1-0.1-0.3-0.1-0.4c-0.1-0.2-0.3-0.3-0.5-0.3c0,0-0.2,0.1-0.5,0.4
			c-0.1,0.1-0.2,0.3-0.3,0.5c0,0.1,0.1,0.2,0.3,0.3c0.1,0.1,0.3,0.1,0.4,0.1c0,0,0.2-0.1,0.3-0.3S600.3,221,600.3,220.9L600.3,220.9
			z M602,221.9c0-0.2-0.1-0.4-0.2-0.6c-0.2-0.2-0.3-0.4-0.4-0.4h-0.1c-0.1,0.1-0.2,0.3-0.2,0.4v0.1l0.1,0.2l0,0l0.2,0.1h0.2h0.6
			L602,221.9z"/>
		<path class="st2" d="M607.6,222.1c0,0.3,0,0.7-0.1,1v0.3c0,0,0,0.1,0,0.2c0,0.1,0,0.2-0.1,0.3l-0.1,0.3l-0.1,0.1l-0.1,0.1l0,0
			l-0.1-0.1l-0.3-1.2l-0.2-1l-0.1-0.5l-0.1-0.4c-0.1-0.5-0.3-1-0.5-1.5l-0.3-0.7c-0.1-0.2-0.2-0.5-0.4-0.7l0.2-0.4l0.2-0.4
			c0.1-0.3,0.3-0.7,0.6-0.9c0.2,0.4,0.5,0.8,0.7,1.3c0.2,0.5,0.4,1.2,0.7,2.1c0.1,0.4,0.2,0.7,0.2,1.1l0,0.5L607.6,222.1z"/>
		<path class="st2" d="M615.6,217.8c0,0.4-0.1,0.7-0.2,1.1c-0.1,0.4-0.3,0.6-0.6,0.6c-0.1,0-0.2,0-0.3,0c-0.1,0-0.2-0.1-0.3-0.2
			l-0.3,0.3l-0.4,0.1c0.1,0.2,0.1,0.3,0.2,0.5l0.1,0.5c0.1,0.3,0.1,0.7,0.1,1c0,0.8-0.1,1.6-0.3,2.4l-0.1,0.1h-0.1l-0.3-1l-0.1-0.4
			l-0.1-0.3c-0.1-0.3-0.2-0.6-0.2-0.8c-0.1-0.3-0.2-0.6-0.3-0.9c-0.1-0.2-0.2-0.5-0.3-0.7c-0.1-0.3-0.3-0.6-0.5-0.9l-0.3-0.4
			l-0.4-0.5l0.3-0.8c0.1-0.3,0.3-0.7,0.5-0.9c0.1,0.1,0.1,0.3,0.2,0.4l0.3,0.4c0.2,0.2,0.4,0.4,0.7,0.4c0.1,0,0.3-0.1,0.5-0.4
			l0.2-0.7c0-0.1,0-0.1,0.1-0.1s0.1,0,0.2,0.1l0.1,0.5c0.1,0.2,0.2,0.3,0.3,0.4h0.1c0.1,0,0.2-0.1,0.3-0.2c0.1-0.1,0.1-0.2,0.1-0.4
			c0-0.1,0-0.2,0-0.3c0.1-0.1,0.1-0.2,0.3-0.3c0.1,0.1,0.1,0.3,0.1,0.4v0.3L615.6,217.8z"/>
		<path class="st2" d="M622.7,218.5c-0.1,0.1-0.3,0.2-0.3,0.3l-0.1,0.1l-0.1,0.2l-0.1,0.2l-0.6,1.4l-0.3,1l-0.2,0.7l-0.2,0.7
			l-0.1,0.6c0,0.1-0.1,0.2-0.2,0.2l0,0l-0.1-0.1c-0.1-0.5-0.2-1-0.4-1.4c-0.2-0.7-0.4-1.3-0.7-1.9c-0.2-0.5-0.5-1.1-0.8-1.5
			c-0.1-0.1-0.1-0.1-0.2-0.2c-0.1-0.1-0.1-0.1-0.2-0.2c0-0.4,0.1-0.8,0.2-1.1c0-0.3,0.1-0.7,0.3-1c0.3,0.1,0.5,0.3,0.7,0.5
			c0.1,0.2,0.2,0.3,0.3,0.5l0.3,0.5l0.4,1.1l0.3,1.2l0.2-1l0.2-0.6l0.1-0.2l0.1-0.2l0.1-0.2c0.2-0.4,0.4-0.8,0.7-1.2
			c0.1-0.1,0.2-0.2,0.3-0.3l0.4-0.2l0.2,0.6L622.7,218.5z"/>
		<path class="st2" d="M629.4,223.2l-0.6,0.6c-0.3,0.3-0.6,0.5-0.7,0.6l-1-0.5c-0.4-0.2-0.7-0.4-1-0.8c-0.1-0.1-0.2-0.3-0.3-0.4
			c-0.1-0.1-0.1-0.3-0.1-0.4v-0.2c0-0.1,0.1-0.1,0.1-0.2c0.2-0.3,0.5-0.6,0.7-0.9l0.3-0.4l0.3-0.3l-0.7-0.5
			c-0.2-0.2-0.4-0.4-0.6-0.7l-0.1-0.3v-0.1v-0.1l0.1-0.1l0.1-0.1l0.4-0.5l0.3-0.3l0.3-0.3l0.3-0.3l0.3-0.3l0.3-0.2l0.3-0.2h0.1v0.4
			v0.2c0,0.1,0,0.2-0.1,0.4c-0.1,0.2-0.3,0.3-0.5,0.4l-0.4,0.2c0,0.1,0.2,0.3,0.6,0.5l0.8,0.5c0.1,0.1,0.2,0.2,0.2,0.3
			c0,0.1,0,0.2-0.1,0.3l-0.3,0.3l-0.2,0.3l-0.7,0.9l-0.1,0.2c0,0.1,0,0.1,0.1,0.2l1.1,0.9C628.9,222.7,629.2,223,629.4,223.2z"/>
		<path class="st3" d="M719.2,256.4c0,0-2.3,1.3-3.7,0c0,0-5.5-5.9-7.6-7.9c0,0,4.3-8.6-3-14c0,0-0.2,5.7-3.5,7.1
			c0,0-55.3-51.8-117-35.3c0,0,60.4-7.9,110.9,41.2c0,0-2.9,5.9-8.2,4.4c0,0,5.4,7.6,13,2.2l13.6,13.6c1.9,1.4,4.5,1,5.9-0.9
			c0-0.1,0.1-0.1,0.1-0.2C721,265.2,722.2,260.7,719.2,256.4z M699.6,252c-0.3,1.2-1.7,1.8-3.3,1.5c-1.6-0.3-2.6-1.6-2.4-2.7
			c0.3-1.2,1.7-1.8,3.3-1.5C698.8,249.6,699.8,250.9,699.6,252L699.6,252z M704.2,250.7c-1.3,1-3.5,0.5-4.9-1.3
			c-1.4-1.8-1.5-4-0.2-5c1.3-1,3.5-0.5,4.9,1.3C705.4,247.5,705.5,249.7,704.2,250.7L704.2,250.7z M707.8,242.4
			c-0.4,1.6-1.6,2.7-2.8,2.4c-1.2-0.3-1.9-1.8-1.5-3.4s1.6-2.7,2.8-2.4C707.5,239.3,708.1,240.8,707.8,242.4L707.8,242.4z"/>
		<path class="st4" d="M800.9,51.8c0,0-73.8,4.6-142.3-51.7c0,0-59.3,52.1-142,52.1c0,0-19.8,187.1,142,298.5
			C658.6,350.6,810.8,257.5,800.9,51.8z M658.5,344.1C502.9,237,521.9,56.9,521.9,56.9c79.6,0,136.6-50.1,136.6-50.1
			c65.9,54.2,136.9,49.8,136.9,49.8C804.9,254.5,658.5,344.1,658.5,344.1z"/>
		<path class="st3" d="M742.5,77.1l-72.4-0.4c-4.8-8.8-10.3-8.4-10.3-8.4c-6.9,1-11.4,8.7-11.4,8.7h-72.5c-2.3,0.9-3.7,3.1-3.6,5.6
			h175.4C747.8,78.1,742.5,77.1,742.5,77.1z M652.1,76.8c0,0,3.2-6.4,7.7-6.4c0,0,5.1-0.1,7.4,6.4H652.1z"/>
		<path class="st3" d="M759.1,167.2l-26.5-80v-5.4h-1.7v5.4l-30.7,80h-6.8c1.6,13.3,15.2,23.5,34.9,23.5c36.1,0,37.2-23.5,37.2-23.5
			L759.1,167.2z M730.8,167.2h-28.5l28.5-75.7V167.2z M732.5,167.2V91.7l24.9,75.7L732.5,167.2z"/>
		<path class="st3" d="M617.7,167.2l-26.6-80v-5.4h-1.7v5.4l-30.7,80H552c1.6,13.3,15.2,23.5,34.9,23.5c36.1,0,37.2-23.5,37.2-23.5
			L617.7,167.2z M589.4,167.2h-28.5l28.5-75.7L589.4,167.2z M591.1,167.2V91.4l24.9,75.9L591.1,167.2z"/>
		<path class="st5" d="M662,122.8v74.8c0,0,2.4,5.5,7.3,7.3h-21.1c0,0,4.2-1.4,7.1-8l0.9-74.6C656.1,122.3,662,121.6,662,122.8z"/>
		<path class="st6" d="M670.4,139.8c0,0,1.2-3.1-0.4-7.7c-2.7-8.1-16-11.7-21.7-1.6c-1.3,2.3-2.6,6.1-1.4,9.3c0,0-6.8-9.9,1.3-18.1
			c0,0-14.7,6.7-15.9,15.9c0,0-2.9-9.5,7.6-18.1c0,0-13,3-15.2,8.8c0,0,1.2-11.8,12.1-15.3c0,0-11.2,0.5-15.7,5
			c0,0,7.6-10.6,20.1-10.6c0,0-3.7-6.8-14.6-10.3c0,0,15.1-3.8,22.8,6.5c0,0-1.7-12.7-4.3-15.2c0,0,6.8,3.1,9.9,9.9
			c0,0,0.5-11.1,3.6-14.1c0,0,3.3,7,3.3,13.8c0,0,1.3-5.9,9.8-9.8c0,0-4.1,9.3-4.1,15.4c0,0,7.9-9.2,22.8-6.5
			c0,0-10.7,3.9-14.7,10.5c0,0,12.7-0.4,20.2,10.2c-4.7-3.1-10.2-4.8-15.8-4.9c0,0,10.5,3.8,12.2,15c0,0-5.9-8.2-15-8.2
			c0,0,10.9,6.9,7,18.1c0,0,0-9.2-15.5-16C669,121.6,678.8,128.8,670.4,139.8z"/>
		<path class="st3" d="M597.6,266.9c1.3,2,3.9,2.5,5.9,1.2c0,0,0.1-0.1,0.1-0.1l13.6-13.6c7.6,5.4,13-2.2,13-2.2
			c-5.4,1.4-8.2-4.4-8.2-4.4c50.6-49.1,111-41.2,111-41.2c-61.6-16.5-117,35.3-117,35.3c-3.3-1.4-3.5-7.1-3.5-7.1
			c-7.3,5.4-3,14-3,14c-2.1,2.1-7.6,7.9-7.6,7.9c-1.3,1.4-3.6,0-3.6,0C595.3,260.8,596.4,265.4,597.6,266.9z M620.2,249.4
			c1.6-0.3,3,0.3,3.3,1.5c0.3,1.2-0.8,2.4-2.4,2.7c-1.6,0.4-3-0.3-3.3-1.5C617.6,251,618.7,249.8,620.2,249.4L620.2,249.4z
			 M613.4,245.8c1.4-1.8,3.6-2.3,4.9-1.3c1.3,1,1.2,3.3-0.2,5c-1.4,1.7-3.6,2.3-4.9,1.3C612,249.8,612.1,247.6,613.4,245.8
			L613.4,245.8z M611.2,239.2c1.2-0.3,2.5,0.8,2.8,2.4c0.3,1.6-0.3,3.1-1.5,3.4c-1.2,0.3-2.5-0.8-2.8-2.4
			C609.3,240.9,610,239.4,611.2,239.2L611.2,239.2z"/>
		<path class="st2" d="M675.8,275.8c0.1,0.3,0.1,0.6,0.2,0.9c0.1,0.5,0.3,0.9,0.5,1.4c0.6,1,1,2,1.3,3.1c-1,1-2.2,1.9-3.5,2.5
			c-0.6,0.3-1.2,0.6-1.8,0.9c-1.5,0.7-3,1.2-4.5,1.8c-0.4,0.1-0.7,0.2-1,0.4c-0.9,0.2-1.9,0.5-2.8,0.8c-0.5,0.1-0.5,0.1-2.2,0.6
			c-0.2,0-0.4,0-0.6,0.1c-2,0.4-4,0.6-6,0.9l-3.3,0.3c-0.5,0-1-0.1-1.5,0l-4.3-0.3c-2.5-0.3-4.9-0.7-7.3-1.1l-3.5-0.8l-2.1-0.6
			c-1.7-0.6-3.3-1.4-4.8-2.4c-0.2,0-0.3,0-0.3,0.2c1,0.8,2,1.6,3,2.4c1.7,1.3,3.6,2.1,5.6,2.6c0.4,0.1,1.6,0.4,2.9,0.7
			c2,0.5,4,0.8,6,1c1.8,0.3,3.6,0.4,5.5,0.5l0.1,0.1h0.2l2.7-0.1c0.2,0,0.4,0,0.6-0.1c0.8-0.1,1.2,0,1.2-0.1
			c2.3-0.3,2.4-0.3,2.5-0.3s1-0.2,1-0.2c2.7-0.3,5.3-1.4,7.9-2.1c0.4-0.2,0.7-0.3,1.1-0.4c2.7-1,5.2-2.3,7.5-3.9
			c0.4-0.4,0.8-0.8,1.2-1.3c0.7-1.2,1.2-2.5,1.4-3.8c-0.2-1.2-0.9-2.2-1.3-3.4c0-0.1,0-0.1,0-0.2c0.3,0.1,0.6,0.1,0.9,0.1
			c0-0.1,0-0.2,0-0.3c-0.6-0.7-1.2-1.5-1.8-2.2c-0.1-0.1-0.2-0.2-0.4-0.1c-0.4,0.6-0.7,1.3-0.8,2L675.8,275.8z"/>
		<path class="st2" d="M684.4,280c0.5,0.1,0.9,0.2,1.4,0.2c0.8,0,0.8,0,1.3-0.1c0.8-0.2,1.1-0.3,1.2-0.3c0.3,0.5,0.3,1,0.1,1.5
			c-1.2,1.1-2.4,2.1-3.8,2.9c-3.4,2.1-6.9,3.9-10.6,5.5c-0.1,0-1.7,0.7-1.1,1c0.6-0.2,1.2-0.4,1.8-0.6c1.8-0.2,3.6-0.7,5.4-1.2
			c1.4-0.8,1.4-0.8,1.9-1c1.2-0.7,2.4-1.5,3.5-2.3l1.7-1.5c0.8-1.1,1.5-2.4,1.8-3.8c0.1-0.3,0.1-0.6,0.2-0.9
			c0.3-0.2,0.6-0.4,0.9-0.5c0.2-0.1,0.4-0.3,0.6-0.4c1-1,1.4-2.4,1.2-3.8c-0.1-0.3-0.3-0.7-0.3-1c-0.3-0.7-0.7-1.4-1.1-2
			c0.3,0,0.6,0.3,0.9,0.2c0-0.1,0-0.1,0-0.2c-0.6-1-1.3-1.9-2.1-2.7c-0.2-0.1-0.2-0.1-0.4,0c-0.2,0.5-0.4,1.1-0.5,1.6
			c-0.1,0.6,0,0.6,0.4,1c0.1,0.1,0.1,0.3,0.1,0.4c0.5,1.1,1,2.1,1.6,3.1c0.2,0.4,0.7,1,0.6,1.5c-0.6,0.4-1.3,0.7-2.1,0.9
			c-0.3-1.4-1.5-2.6-2.9-2.8c-1.7,0.2-2.3,2-2.7,3.4C683.3,279,683.7,279.7,684.4,280z M684.7,277.2c0.8-0.8,2,0.2,2.6,0.7l-1,0.1
			c-0.5-0.1-1.3,0-1.6-0.5C684.7,277.4,684.7,277.3,684.7,277.2z"/>
		<path class="st2" d="M687.8,285.3c0,0-0.1,0-0.2,0c-0.5,1-1.1,3.6,0.4,4.1c0.7-0.3,1-1.1,0.8-1.8h-0.1c-0.3,0.3-0.2,0.8-0.7,0.8
			c-1-0.4-0.3-2.1-0.2-2.8C687.8,285.5,687.8,285.4,687.8,285.3z"/>
		<path class="st2" d="M696.9,274.5c0.2,0,0.9,0.1,1-0.1s0-0.1,0-0.2c-1-0.6-2.2-1.1-3.2-1.7h-0.2l-0.1,0.1c0.2,1.8,0.2,1.8,0.2,2.1
			c0.3,0.2,0.6,0.4,0.9,0.5l0.8,0.9c0.6,0.5,1.3,1,2,1.5c1.4,0.8,2.8,1.6,4.2,2.5c0.3,0.3,0.7,0.5,0.8,1c-0.7,1-1.6,1.7-2.7,2.1
			c-2.2,1.3-4.6,2.5-7,3.4c-0.9,0.3-1.8,0.1-2.4-0.6c-0.5-1-0.5-2.2,0-3.2c0.2-0.5,0.4-0.8,0.7-1.3c0.3,0.1,0.5,0.4,0.8,0.4
			c0.4-0.4,0.7-0.9,1.1-1.4c0.7,0.4,1.3,0.8,1.9,1.2h0.2l1.3-1.6c0-0.1,0-0.1,0-0.2c-0.2-0.1-1.1-0.7-2-1.3c-0.6,0-0.8,1.4-1.3,1.4
			c-0.1-0.3-0.9-0.6-1.1-0.8s-0.6-0.6-0.9-0.5c-0.4,0.5-1.2,1.3-1.2,1.9l0.8,0.7l-0.9,2.1c-0.2,0.8-0.4,1.5-0.6,2.3
			c0,0.4,0,0.8,0,1.2c0.1,0.2,0.1,0.5,0.2,0.7c0.4,0.8,1.2,1.4,2.2,1.4c0.8-0.1,1.5-0.3,2.2-0.7v-0.1c0.5-0.2,0.9-0.4,1.4-0.7
			c1.7-0.8,3.3-1.8,4.9-2.7l0.1,0.1h0.1c0-0.1,0-0.1,0-0.2l1.1-0.7c0.5-0.4,1-1,1.3-1.6c0.1-0.2,0.1-0.5,0.2-0.8
			c-0.1-1.4-0.2-3.1-1.6-3.8l-0.2-0.2c-1.5-0.9-3.1-1.8-4.6-2.8C697.3,274.8,696.9,274.6,696.9,274.5z"/>
		<path class="st2" d="M622.9,289.4c0.3-0.2,0.6-0.4,0.9-0.6c1.4-0.7,2.7-1.4,4-2c0.3-0.2,0.7-0.7,0.7-1.1c-0.1,0-0.3,0.2-0.4,0.3
			l-1.6,0.8c-1.3,0.5-2.5,1.2-3.7,2c-0.2,0.3-0.3,0.6-0.3,0.9C622.7,289.6,622.8,289.5,622.9,289.4z"/>
		<path class="st2" d="M650.6,285.4c-0.2,0-0.5,0.7-0.5,0.8c-0.3,0.8-0.7,2.2,0.2,2.7c0.5-0.1,0.8-1,0.8-1.5h-0.1
			c-0.1,0.2-0.3,0.6-0.6,0.4c-0.6-0.8-0.2-1.6,0.2-2.4C650.6,285.5,650.6,285.4,650.6,285.4z"/>
		<path class="st2" d="M657.9,288.2L657.9,288.2c-0.1,0.1-0.2,0.1-0.2,0.2c-0.1-0.1-0.1-0.1-0.2,0c0,0.1,0,0.1,0,0.2h0.1l0,0
			l0.1-0.1C657.8,288.4,657.8,288.4,657.9,288.2L657.9,288.2z"/>
		<path class="st2" d="M661.1,283H661c-0.4,0.7-0.7,1.6-0.9,2.4c0,0.8,0,1.7,0.9,2.1c0.5-0.4,0.8-1.1,0.8-1.7h-0.1
			c-0.1,0.3-0.3,0.6-0.6,0.8c-0.8-0.1-0.7-1.5-0.6-2.1C660.8,284,661,283.5,661.1,283z"/>
		<path class="st2" d="M614,286.7c0.6,0.9,1.6,1.5,2.7,1.7c0.5,0,1-0.1,1.5-0.2c0.4-0.2,0.9-0.4,1.3-0.6l1.2-1
			c0.4-0.4,0.8-0.8,1.2-1.1c1.8-1.9,3.9-3.4,6.2-4.6c0.3,1,0.9,1.9,1.7,2.5c1,0.7,2.8,1.2,3.4-0.2c0.2-1,0.3-1.9,0.3-2.9
			c0-0.3-0.1-0.6-0.2-0.9c-0.9-1.5-2.6-1.3-4.1-1.2c-0.5,0.1-0.3,0.2-0.5-0.5l-0.6-3.5c-0.3-2.1-0.5-3.8-0.7-5.3
			c-0.2-1.5-0.2-2.3-0.3-4.1c0.6,0.1,0.8,1.2,1.3,1.3l0.1,0c0,0,0-0.1,0-0.1c-0.7-1.6-1.3-3.1-2-4.7c-0.1-0.3-0.2-0.6-0.5-0.8h-0.1
			c-0.2,0.3-0.3,0.5-0.4,0.8c-0.3,0.4-0.5,0.8-0.5,1.3c0.2,0.2,0.4,0.5,0.5,0.8c0.2,1.9,0.4,3.8,0.6,5.7c0.2,3.2,0.6,6.4,1.3,9.6
			v0.1c-1.4,0.7-2.8,1.6-4,2.6c-0.2,0.2-0.2,0.2-4,3.6c-0.4,0.4-0.4,0.4-1.3,1c-0.4,0.3-0.9,0.4-1.3,0.7c-0.9,0.3-1.9-0.1-2.4-0.9
			c-0.4-1.1-0.4-2.2,0-3.3c0.4-1,0.4-1,0.8-1.9c0.4-0.6,0.9-1.2,1.2-1.9c0.1,0,0.4,0.5,0.6,0.6c1.1,0.6,1.5,0,1.7-1
			c0-0.3,0.1-1.5-0.2-1.7h-0.1l0,0.1c-0.1,0.5-0.2,1.3-1,1.1c-0.8-0.7-0.5-1.8-0.3-2.7c0.1-0.4,0.3-0.9,0.5-1.3
			c0.2-0.3,0.8-1.2,0.6-1.6H618c-0.9,1.2-1.5,2.6-1.8,4.1l-0.1,0.9c0,0.6,0.1,0.7,0.1,0.9s-0.5,0.7-0.8,1.1
			c-0.8,1.3-1.4,2.7-1.8,4.3c0,0.4-0.1,0.7-0.1,1.1c0,0.4,0.1,0.9,0.2,1.3L614,286.7z M629.6,280.3c0.7,0,1.3,0.1,2,0.2
			c0.2,0.1,1.1,0.6,1,0.9l-0.4,0.2h-0.5c0,0-0.3,0-0.6-0.1C630.5,281.3,629.9,280.9,629.6,280.3L629.6,280.3z"/>
		<rect x="686.2" y="285.9" class="st2" width="0.1" height="0.1"/>
		<path class="st2" d="M634,268c0.5,3,0.7,6,0.8,9c0,0.9,0.1,1.7,0.2,2.6c0.2,1,0.6,2,1,2.9c0.3,0.4,0.5,0.8,0.8,1.2
			c0.3,0.3,0.5,0.5,0.8,0.7c0.6,0.3,1.3,0.6,2,0.9c-0.1,0.4-0.2,0.8-0.3,1.3c0,0.2,0,0.2,0.1,0.3h0.1l0.6-1.3c0.6,0,1.2,0,1.9,0
			c0.6-0.1,1.3-0.2,1.9-0.2c0.1,0,1.4,0.1,1.8,0.2c0.4,0.1,0.5,0,2.5,0c0.5-0.1,1-0.2,1.5-0.2c1.4-0.2,2.8-0.5,4.1-0.8
			c1.6-0.3,3.2-0.8,4.7-1.5c0.8-0.3,0.8-0.3,5.3-2c0.1,0.2,0.2,0.5,0.3,0.8c0.5,1.2,1.6,2,2.8,2.3c0.4,0,0.9,0,1.3-0.1
			c0.5-0.4,0.9-1,0.9-1.7c0-0.8-0.2-1.7-0.5-2.5c-0.2-0.2-0.4-0.5-0.6-0.7c-1.1-0.5-2.2-0.6-3.4-0.4h-0.1c-0.1-0.2-0.1-0.2-0.5-2.1
			c-0.3-2.1-0.6-4.2-0.9-6.3c-0.1-1.6-0.3-2.7-0.4-4.2c-0.1-0.7-0.2-1.4-0.2-2.1c0,0,0.7,0.8,1,1.2c0.4,0,0.2-0.4,0.1-0.6
			c-0.4-1.5-1-3.1-1.5-4.6l-0.1-0.1c-0.5,0.6-0.9,1.3-1,2.1c0.2,0.3,0.3,0.6,0.3,0.9l0,0c0.2,2.5,0.4,5,0.8,7.5
			c0.3,2.9,0.8,5.8,1.4,8.7c0,0.1,0,0.1,0,0.2l-2.2,0.8c-1.2,0.5-2.4,0.8-3.6,1.3c-1.1,0.3-2.2,0.7-3.4,0.9
			c-1.1,0.3-2.3,0.6-3.4,0.7c0.3-0.3,0.5-0.5,0.8-0.8c0.6-1,1.1-2,1.5-3.1c0.2-0.6,0.1-1.2-0.1-1.8c-0.7-0.9-1.8-1.4-2.9-1.5
			c-0.7,0-1.5,0.1-2.2,0.3l-1,0.4c-0.8,0.5-1.6,1-2.4,1.6c-0.9,0.8-1.7,1.6-2.4,2.5c0.1-0.4,0.3-0.9,0.4-1.3
			c0.1-0.7,0.2-1.4,0.3-2.1c0-0.8,0-1.5-0.1-2.2c-0.3-3.2-0.7-6.3-1-9.5c-0.1-0.6-0.1-1.3-0.1-1.9c0.3,0.3,0.6,0.6,0.9,1
			c0.7,0.3-0.2-1.5-0.2-1.6c-0.4-1.2-0.8-2.3-1.3-3.5c-0.1-0.1-0.2-0.1-0.3-0.1c-0.5,0.8-0.5,0.8-0.9,1.7c0.1,0.3,0.2,0.6,0.3,0.8
			c0.1,0.4,0.1,0.4,0.3,1.5c0.2,3.9,0.8,7.8,1.2,11.7c0.2,1.9,0.2,3.8-0.1,5.6c-0.2,0.9-0.6,1.7-1,2.5c-0.3,0-0.7-0.1-1-0.2
			c-0.8-0.3-1.6-0.8-2.2-1.5c-1.6-2.3-1.5-5.3-1.6-8c-0.1-1.6-0.3-3.1-0.3-4.7c-0.1-0.6-0.2-1.2-0.3-1.8c-0.2-0.7-0.3-1.4-0.4-2.1
			c-0.1-0.3-0.2-0.7-0.2-1c-0.4-1.2-0.6-2.4-1.1-3.5c0-0.1-0.1-0.6-0.3-0.4c-0.2,0.6-0.4,1.2-0.6,1.9c0,0.1,0,0.1,0,0.2
			c0.4,1.2,0.8,2.4,1,3.7C633.8,266.4,634,267.2,634,268z M668.4,281.2c0.1,0.5-0.6,0.5-1,0.6c-0.7-0.1-1.4-0.5-1.9-1
			C666.6,280.7,667.5,280.8,668.4,281.2L668.4,281.2z M643.9,280.1c0.6-0.5,1.3-1,2-1.5c0.9-0.4,0.9-0.4,2-0.8l0.7-0.1h0.5
			c1,0.2,3.4,1,3.1,2.3c-1.1,1-2.4,1.8-3.9,2.2c-1.6,0.4-1.9,0.5-2,0.5c-1.6,0.3-3.2,0.5-4.8,0.5v-0.1
			C642.2,282.1,643,281,643.9,280.1L643.9,280.1z"/>
		<path class="st2" d="M678.9,263.3c0.1,0.9,0.1,0.9,0.3,3.2c0.3,1.6,0.5,3.2,0.8,4.8c0.5,3.3,1,6.6,1.4,9.9c0.1,1,0,2,0.1,3v0
			l0.1-0.1l0.7-2.2c0-0.4,0.1-0.8,0.1-1.2c-0.3-4.6-0.9-9.1-1.7-13.7c0-0.3-0.1-0.5-0.1-0.8c-0.2-0.8-0.3-1.6-0.4-2.4l0.1,0.1
			c0.4,0.5,0.8,0.9,1.2,1.3c0.1,0,0.1-0.2,0.1-0.3c-0.2-0.7-0.5-1.5-0.7-2.2c-0.4-1-0.9-2-1.4-2.9l-0.2-0.1h-0.1
			c-0.4,0.6-0.7,1.2-0.9,1.9c0.1,0.4,0.3,0.8,0.6,1.2C678.8,262.9,678.8,263.1,678.9,263.3z"/>
		<path class="st2" d="M617,281.2c-0.4,1-0.9,2.9,0.4,3.5c0.8-0.1,0.7-0.8,0.8-1.5c0-0.1,0-0.2,0-0.3c-0.1,0-0.1,0-0.2,0
			c-0.1,0.4-0.2,0.8-0.7,0.6c-0.3-0.4-0.4-0.8-0.4-1.3C617,281.9,617.1,281.6,617,281.2L617,281.2z"/>
		<path class="st2" d="M668,262.6c0.3,2.5,0.5,5.1,0.9,7.6c0.3,2.2,0.6,4.4,1,6.5c0.1,0.9,0.2,1.8,0.4,2.8c0.2,1.8,0.2,1.8,0.3,3.7
			h0.1h0.1c0.2-0.8,0.4-1.6,0.6-2.4c0.1-1.1,0.1-2.1-0.1-3.2c-0.6-4.6-1.3-9.1-1.8-13.7c0.1,0.1,1.2,1.9,1.3,1l-1-2.9
			c-0.4-0.8-0.8-1.6-1.2-2.4c-0.2-0.1-0.3,0-0.4,0.1l-0.7,1.7c0,0.1,0,0.1,0,0.2C667.7,261.8,667.9,262.2,668,262.6z"/>
		<path class="st2" d="M702.5,281.7c0-0.1,0-0.2-0.1-0.2s-0.1,0.2,0,0.2C702.5,281.8,702.4,281.7,702.5,281.7z"/>
		<path class="st2" d="M673.9,281.3L673.9,281.3h0.2l1.2-1.7c0,0,0-0.1,0-0.1c-1.7-1.4-1.7-1.4-1.9-1.6h-0.1
			c-0.3,0.4-0.3,0.4-0.7,0.9c-0.2,0.3-0.5,0.6-0.4,0.9C673.6,281,673.6,281,673.9,281.3z"/>
		<path class="st2" d="M704.4,278c0,0.1,0,0.1,0,0.2h0.1L704.4,278z"/>
		<path class="st2" d="M659.2,277.8c0.2,0.6,0.3,0.8,1,0.9c0.8-0.2,0.9-1.5,0.7-2.1h-0.1c0,0,0,0-0.2,0.6c-0.1,0.2-0.2,0.3-0.4,0.4
			c-1.1,0.1-0.7-1.4-0.6-1.9c0.1-0.3,1-2,0.8-2.3h-0.1c-0.7,1.1-1.2,2.4-1.3,3.8C659.1,277.2,659.2,277.5,659.2,277.8z"/>
		<path class="st2" d="M620.9,268.7h0.1v-0.1h0.1c0,0,0,0,0.3,0.5c0.2,0.4,0.4,0.8,0.5,1.2l-0.4,0.3c-0.2,0.3-0.3,0.6-0.3,1
			c0,0,0,0,0.3-0.3c0.2-0.1,0.5-0.1,0.7,0v0.1c-0.3,0.1-0.5,0.3-0.8,0.5c-0.9,1.2,0.2,2.8,0.6,3.8l0.5,1.2c0.5,1.7,0.5,1.7,0.6,2
			c0,0.2,0.1,0.4,0.2,0.5h0.1c0-1.1-0.2-2.1-0.6-3.1l-0.5-1.3c-0.3-0.6-0.6-1.2-0.8-1.8c-0.1-0.1-0.2-0.3-0.2-0.5
			c0.5-0.4,1-0.7,1.7-0.8c0.1-0.2,0.2-0.5,0.3-0.7c0-0.5-0.7-0.9-1.1-0.9c0.1-0.9,0.2-1.9,0.4-2.8c0.4-0.7,0.8-0.5,1.1,0.2h0.1
			c0.1-0.3,0.1-0.6,0.1-0.9c-0.2-0.4-0.4-0.8-0.9-0.7c-0.9,0.6-0.8,2.1-1,3c-0.3-0.7-0.9-2.2-1.8-2.2c-0.1,0.4-0.1,0.8-0.1,1.2
			C620.2,268.2,620.6,268.5,620.9,268.7z"/>
		<path class="st2" d="M625.2,279.2l0.3,0c0.3-0.4,0.5-0.9,0.4-1.4c-0.1-0.1-0.3,0.3-0.3,0.4c-0.6,0.3-0.9-0.5-0.9-0.9
			c0.2-0.5,0.3-0.9,0.3-1.4c-0.4,0.1-0.5,1.7-0.6,2.2C624.4,278.4,624.7,278.9,625.2,279.2z"/>
		<path class="st2" d="M661.1,277.5H661v0.1C661,277.6,661.1,277.5,661.1,277.5z"/>
		<path class="st2" d="M657.1,272.8c-0.6-0.4-0.8-0.2-1,0.4c-0.2,0.8-0.4,1.9-0.6,2.7l0,0c-0.2-0.2-0.3-0.5-0.5-0.8l-0.3-0.4
			c-0.3-0.4-1.3-1.5-1.9-1.4c-0.1,0.5-0.1,0.9,0,1.4c0.3,0.2,0.7,0.4,1.1,0.5l0.2-0.1l0.6,0.8c0.2,0.4,0.5,1,0.7,1.4h0.1l0.1-0.1
			c0.4-1.8,0.5-2.5,0.6-3.1c0-0.1,0.1-0.3,0.2-0.4c0.4,0.2,0.7,0.5,0.9,0.9h0.1c0.1-0.4,0.2-0.9,0.1-1.4h-0.1L657.1,272.8z"/>
		<path class="st2" d="M630.1,274.6l0.2-0.1c0.5,0.7,0.9,1.4,1.1,2.2l0.1,0.1h0.1c0.4-1,0.5-2.2,0.9-3.2c0.4-0.5,0.8-0.1,1.1,0.4
			c0.3-0.1,0.2-0.9,0.2-1.1c-0.3-0.3-0.5-0.6-0.9-0.6c-0.9,0.4-0.9,2.5-1.2,3.1c-0.2-0.3-0.2-0.3-0.7-1.3c-0.3-0.4-1-1.6-1.5-1.5
			c-0.2,0.4-0.3,0.9-0.3,1.3C629.2,273.8,629.7,274.2,630.1,274.6z"/>
		<path class="st2" d="M639.4,276.2c0.7-0.2,0.8-1.3,0.7-1.9h0H640c-0.1,0.3-0.2,0.7-0.6,0.7c-0.8-0.4-0.7-1.4-0.7-2.2
			c0.2-0.6,0.3-1.1,0.5-1.7l-0.1-0.1l-0.2,0.1c-0.4,0.8-0.6,1.7-0.7,2.6C638.3,274.7,638.3,276,639.4,276.2z"/>
		<path class="st2" d="M659.9,267.3l-1.7,0.9c-2.9,1.4-5.7,2.7-8.5,4.3c-1.2,0.6-2.3,1.4-3.4,2.3c-0.1,0.3-0.1,0.7,0,1
			c1.3-1.1,2.7-2,4.2-2.9c2.2-1.2,2.2-1.2,3.1-1.6c0.1,0,0.2,0,0.2-0.1l5.9-2.9C659.8,268.1,660.3,267.3,659.9,267.3z"/>
		<path class="st2" d="M699.6,273.8c0.5-0.1,0.5-0.5,0.7-1c0-0.2,0-0.8-0.2-0.9L700,272c0,0.4-0.2,0.9-0.7,0.8
			c-0.4-0.4-0.2-1.4-0.2-1.9c0-0.3,0.4-1.3,0-1.4c-0.3,0.6-0.4,1.3-0.4,2C698.7,272.4,698.7,273.4,699.6,273.8z"/>
		<path class="st2" d="M685.6,270.2L685.6,270.2c-0.2,0.3-0.2,0.6-0.2,0.9c-0.1,0.4-0.2,0.7-0.3,1.1c-0.1,0.8-0.3,1.4,0.5,1.7
			c0.5,0,0.9-0.2,1.2-0.6c0.3-0.7,0.3-1.4,0-2.1l-0.3-0.4C686.1,270.7,685.8,270.5,685.6,270.2z M685.6,272.9
			c-0.2-0.1-0.3-0.1-0.3-0.3c0-0.2,0.1-1,0.4-1.2c0.3,0.2,0.9,0.5,1,0.9C686.4,272.7,686,272.9,685.6,272.9L685.6,272.9z"/>
		<path class="st2" d="M666.8,273.7c0.3,0,0.4-0.1,0.6-0.4c0.1-0.3,0.1-0.7-0.1-1h-0.1c-0.1,0.1-0.1,0.2-0.2,0.4
			c-0.3,0.2-0.6-0.1-0.7-0.3c0-0.7,0.3-1.4,0.3-2.1h-0.1C666,271.1,665.4,273.3,666.8,273.7z"/>
		<path class="st2" d="M693.1,268.9L693.1,268.9c-0.5,0.8-1.4,3.3-0.1,3.8c0.2-0.1,0.4-0.3,0.5-0.6c0-0.1,0.3-1.2,0.1-1.2
			c-0.1,0.3-0.3,0.7-0.6,0.8c-0.9-0.3-0.1-2.2,0.1-2.7L693.1,268.9z"/>
		<path class="st2" d="M672.7,261c0.3,0.3,0.9,1,0.9,1.4c-0.4,0.1-0.7,0.9-0.6,1.2c0.2,0,0.3-0.2,0.3-0.3c0.2,0,0.7,0,0.8,0.3
			l-0.6,0.2c-0.7,0.4-0.7,0.9-0.8,1.6c0.4,2,1.7,3.7,2.4,5.7c0,0.2,0,0.5,0.2,0.7c0.5-1.2-0.4-2.9-1-3.9c-0.4-0.8-0.8-1.7-1.1-2.5
			c0-0.2,0-0.3,0-0.5c0.6-0.3,1.2-0.5,1.8-0.6c0.1-0.2,0.3-0.5,0.3-0.8c-0.1-0.3-0.5-0.5-0.5-0.6l-0.8-0.4c0-0.7,0.1-1.4,0.2-2.1
			c0.1-0.3,0.2-0.7,0.6-0.7c0.2,0.1,0.5,0.3,0.6,0.5c0.2,0,0.2-0.8,0.2-0.9c-0.2-0.3-0.5-0.4-0.8-0.5c-0.5,0.1-0.6,0.4-0.7,0.9
			c-0.1,0.6-0.2,1.3-0.2,1.9c-0.2-0.1-0.5-0.8-0.7-1c-0.4-0.5-0.9-0.9-1.5-1.3h-0.1c-0.1,0.4-0.1,0.7-0.1,1.1c0.3,0.2,0.6,0.4,1,0.5
			L672.7,261z"/>
		<path class="st2" d="M648.3,270.4c-0.4-0.7-1.4-1.1-2-1.6c-0.5,0.1-1.1,1.3-1.3,1.7c0,0.1,0,0.1,0,0.2c0.6,0.5,1.2,0.9,1.8,1.4
			c0.4-0.1,0.7-0.6,1-0.9h0.1c0-0.1,0.1-0.1,0-0.2C648,270.8,648.3,270.6,648.3,270.4z"/>
		<path class="st2" d="M684.7,268.6c2.7-1.6,5.4-3.1,8.3-4.4c0.3-0.1,1.2-0.8,1.4-0.7c0.2-0.3,0.3-0.6,0.3-1c-0.5,0.2-1,0.5-1.5,0.8
			c-1.7,0.8-3.4,1.7-5.1,2.5c-0.1,0.1-0.5,0.3-3.2,1.9c-1,0.7-1.6,1-1.7,2.3C683.6,269.4,684.1,268.9,684.7,268.6z"/>
		<path class="st2" d="M693.9,265.5c-0.1,0.4-0.2,0.8-0.2,1.3c0.2,0.3,0.5,0.5,0.8,0.7c0.1,0,0.3-0.1,0.3-0.2c0.5,0.6,0.8,1.3,1,2
			l0,0l0.1-0.1c0.2-0.7,0.2-0.7,0.7-2.8c0-0.1,0.1-0.2,0.1-0.2c0.4-0.2,0.9,0.3,1,0.6c0.3-0.1,0.2-0.8,0.1-1.1
			c-0.3-0.3-0.8-0.8-1.2-0.5c-0.4,0.9-0.7,1.8-0.9,2.8l0,0c-0.2-0.5-0.4-0.9-0.7-1.4C694.9,266.4,694.3,265.5,693.9,265.5z"/>
		<path class="st2" d="M644,267.9c-0.1,0.4-0.2,0.8-0.1,1.1c0.4-0.2,0.7-0.4,1-0.7c2.2-1.3,4.4-2.4,6.6-3.7c1.1-0.6,2.3-1.2,3.4-1.7
			c1.4-0.6,2.8-1.2,4.1-1.8l0.5-0.1c0.3-0.3,0.4-0.8,0.4-1.2c-0.4-0.1-1.2,0.4-1.5,0.5c-2.6,1.1-5.2,2.3-7.7,3.7
			c-2.2,1.3-4.3,2.5-6.5,3.7C644.2,267.7,644.1,267.8,644,267.9z"/>
		<path class="st2" d="M653.9,266.9c0.1,0.7,0.2,1,0.7,1.4c0.6-0.2,0.9-0.9,0.7-1.5c0,0,0,0,0,0h-0.1c0,0.1-0.1,0.1-0.1,0.2
			c-0.3,0.4-0.5,0.3-0.8-0.1c-0.3-0.9,0.5-1.6,0.5-2.5C654.3,264.6,654,266.4,653.9,266.9z"/>
		<path class="st2" d="M630.8,268.7c0.4,0,0.4-0.1,0.6-0.4s0.3-1.3,0.1-1.6h-0.1c-0.1,0.3-0.1,0.8-0.5,0.8c-0.7-0.3-0.8-1.1-0.8-1.8
			c0-0.3,0.3-1.3,0.3-1.4h-0.1C629.7,265.5,629.2,267.9,630.8,268.7z"/>
		<path class="st2" d="M684.5,262.6c0.1,0.2,0.2,0.4,0.4,0.7c0.3,0.6,0.4,1.3,0.4,2c-0.1,0.2-0.3,0.6,0,0.8c0.8-0.3,0.5-2.3,0.4-2.9
			c-0.1-0.4-0.3-0.8-0.5-1.1c-0.4-0.5-0.4-0.5-0.8-1c-0.2-0.2-0.9-0.9-1.2-0.8c-0.2,0.3-0.2,0.7-0.2,1
			C683.5,261.6,684,262.1,684.5,262.6z"/>
		<path class="st2" d="M636,261.4c0,0.1,0,0.1,0.4,0.4c0.8,0.9,1.4,2,1.7,3.2c0,0.3,0,0.5,0,0.8c0,0.5-0.1,1-0.1,1.1h0.2v0.1
			l0.2-0.2c0.4-1,0.4-2.2,0.1-3.2c-0.4-1.3-1.1-2.4-2.1-3.3c-0.3,0-0.5,0.8-0.5,0.9S635.9,261.3,636,261.4z"/>
		<path class="st2" d="M688.5,263.4c0.2,0.1,0.4,0.1,0.5,0.1l0.5-0.2c0.4-0.4,0.5-1,0.2-1.5h-0.1c-0.2,0.3-0.2,0.7-0.6,0.7
			c-0.6-0.3-0.5-0.4-0.4-1.1c0.1-0.5,0.5-1.1,0.3-1.6h-0.1c-0.7,1-0.9,2.2-0.5,3.3L688.5,263.4z"/>
		<path class="st2" d="M644.4,261.9l0.3-0.1c0.4,0.5,0.6,1.3,0.9,1.9l0.2-0.1c0.1-0.8,0.3-1.7,0.5-2.5c0.2-0.4,0.4-0.9,0.9-0.5
			c0.1,0.1,0.3,0.5,0.4,0.4c0.1-0.3,0.2-0.7,0.1-1l-0.5-0.5c-1.1-0.7-1.5,2.5-1.6,3l0,0l-0.5-1.2c-0.3-0.4-0.5-0.9-0.9-1.1
			c-0.2-0.1-0.4-0.4-0.6-0.3c-0.1,0.4-0.1,0.7-0.1,1.1C643.5,261.2,644.2,261.9,644.4,261.9z"/>
		<path class="st2" d="M665.4,262.9h0.3c0.3-0.4,0.5-1,0.4-1.5c-0.3,0.1-0.2,0.5-0.6,0.6c-1.1-0.3-0.4-1.7-0.3-2.4h-0.1
			c-0.3,0.6-0.4,1.2-0.5,1.9C664.8,262.2,664.8,262.5,665.4,262.9z"/>
		<path class="st2" d="M651.6,262.6l0.2-0.1c0.2-0.3,0.5-1,0.3-1.3c-0.1,0.1-0.2,0.3-0.3,0.4c-0.9-0.1-0.3-1.4-0.2-1.9l-0.1-0.1
			h-0.1C651,260.5,650.4,262.2,651.6,262.6z"/>
	</g>
</g>
</svg>
